<svg width="1440" height="1024" viewBox="0 0 1440 1024" fill="none" xmlns="http://www.w3.org/2000/svg">
<rect width="1440" height="1024" fill="white"/>
<rect y="99" width="1440" height="924" fill="#EFECEC"/>
<rect x="335" y="157" width="769" height="664" rx="10" fill="#5C5757"/>
<rect width="1440" height="99" fill="#C4C4C4"/>
<rect width="1440" height="99" fill="#C4C4C4"/>
<ellipse cx="1267.5" cy="49.5" rx="50.5" ry="49.5" fill="#9F9595"/>
<path d="M629.48 221.8C629 223.24 628.176 224.344 627.008 225.112C625.84 225.864 624.48 226.24 622.928 226.24C621.392 226.24 620.064 225.912 618.944 225.256C617.84 224.6 616.984 223.664 616.376 222.448C615.768 221.216 615.464 219.76 615.464 218.08C615.464 216.4 615.768 214.952 616.376 213.736C616.984 212.504 617.84 211.56 618.944 210.904C620.064 210.248 621.384 209.92 622.904 209.92C624.472 209.92 625.8 210.248 626.888 210.904C627.976 211.56 628.76 212.528 629.24 213.808L626.816 214.888C626.208 213.064 624.952 212.152 623.048 212.152C621.56 212.152 620.368 212.672 619.472 213.712C618.592 214.736 618.152 216.192 618.152 218.08C618.152 219.952 618.576 221.408 619.424 222.448C620.272 223.488 621.456 224.008 622.976 224.008C623.952 224.008 624.792 223.76 625.496 223.264C626.216 222.752 626.728 221.992 627.032 220.984L629.48 221.8ZM632.398 226V214H634.582L634.822 216.16C635.478 214.56 636.734 213.76 638.59 213.76C638.83 213.76 639.07 213.784 639.31 213.832C639.55 213.864 639.75 213.92 639.91 214L639.55 216.256C639.374 216.192 639.174 216.144 638.95 216.112C638.742 216.064 638.454 216.04 638.086 216.04C637.574 216.04 637.078 216.176 636.598 216.448C636.134 216.704 635.742 217.104 635.422 217.648C635.118 218.176 634.966 218.84 634.966 219.64V226H632.398ZM647.311 226.24C646.111 226.24 645.055 225.992 644.143 225.496C643.247 225 642.543 224.288 642.031 223.36C641.519 222.416 641.263 221.296 641.263 220C641.263 218.704 641.511 217.592 642.007 216.664C642.519 215.72 643.215 215 644.095 214.504C644.991 214.008 646.015 213.76 647.167 213.76C648.335 213.76 649.327 214 650.143 214.48C650.959 214.96 651.583 215.616 652.015 216.448C652.447 217.28 652.663 218.224 652.663 219.28C652.663 219.584 652.655 219.864 652.639 220.12C652.623 220.376 652.599 220.592 652.567 220.768H643.783C643.895 221.888 644.255 222.744 644.863 223.336C645.487 223.912 646.287 224.2 647.263 224.2C648.063 224.2 648.711 224.048 649.207 223.744C649.703 223.44 650.095 223.016 650.383 222.472L652.423 223.432C652.007 224.312 651.343 225 650.431 225.496C649.535 225.992 648.495 226.24 647.311 226.24ZM647.119 215.8C646.239 215.8 645.511 216.056 644.935 216.568C644.375 217.08 644.015 217.824 643.855 218.8H650.167C650.103 217.84 649.799 217.104 649.255 216.592C648.711 216.064 647.999 215.8 647.119 215.8ZM662.842 218.296C662.842 217.496 662.618 216.88 662.17 216.448C661.738 216 661.138 215.776 660.37 215.776C659.65 215.776 659.026 215.944 658.498 216.28C657.986 216.616 657.618 217.16 657.394 217.912L655.234 217C655.538 216.024 656.13 215.24 657.01 214.648C657.906 214.056 659.058 213.76 660.466 213.76C661.41 213.76 662.25 213.92 662.986 214.24C663.738 214.544 664.322 215.016 664.738 215.656C665.17 216.28 665.386 217.072 665.386 218.032V223.384C665.386 223.976 665.682 224.272 666.274 224.272C666.562 224.272 666.842 224.232 667.114 224.152L666.97 225.928C666.602 226.104 666.138 226.192 665.578 226.192C664.938 226.192 664.386 226.048 663.922 225.76C663.458 225.472 663.146 225.04 662.986 224.464C662.602 225.056 662.05 225.504 661.33 225.808C660.61 226.096 659.89 226.24 659.17 226.24C658.034 226.24 657.09 225.968 656.338 225.424C655.586 224.88 655.21 224.064 655.21 222.976C655.21 222.096 655.498 221.368 656.074 220.792C656.666 220.216 657.498 219.816 658.57 219.592L662.842 218.752V218.296ZM657.802 222.784C657.802 223.232 657.97 223.592 658.306 223.864C658.658 224.12 659.122 224.248 659.698 224.248C660.242 224.248 660.754 224.16 661.234 223.984C661.714 223.808 662.098 223.52 662.386 223.12C662.69 222.72 662.842 222.2 662.842 221.56V220.552L659.818 221.176C659.13 221.304 658.618 221.488 658.282 221.728C657.962 221.968 657.802 222.32 657.802 222.784ZM676.757 214V216.016H672.629V222.4C672.629 222.976 672.789 223.408 673.109 223.696C673.429 223.968 673.845 224.104 674.357 224.104C674.805 224.104 675.181 224.04 675.485 223.912C675.805 223.768 676.101 223.576 676.373 223.336L676.949 225.208C676.581 225.528 676.125 225.784 675.581 225.976C675.053 226.152 674.461 226.24 673.805 226.24C672.749 226.24 671.861 225.984 671.141 225.472C670.421 224.944 670.061 224.064 670.061 222.832V216.016H667.757V214H670.061V211.192L672.629 210.472V214H676.757ZM684.577 226.24C683.377 226.24 682.321 225.992 681.409 225.496C680.513 225 679.809 224.288 679.297 223.36C678.785 222.416 678.529 221.296 678.529 220C678.529 218.704 678.777 217.592 679.273 216.664C679.785 215.72 680.481 215 681.361 214.504C682.257 214.008 683.281 213.76 684.433 213.76C685.601 213.76 686.593 214 687.409 214.48C688.225 214.96 688.849 215.616 689.281 216.448C689.713 217.28 689.929 218.224 689.929 219.28C689.929 219.584 689.921 219.864 689.905 220.12C689.889 220.376 689.865 220.592 689.833 220.768H681.049C681.161 221.888 681.521 222.744 682.129 223.336C682.753 223.912 683.553 224.2 684.529 224.2C685.329 224.2 685.977 224.048 686.473 223.744C686.969 223.44 687.361 223.016 687.649 222.472L689.689 223.432C689.273 224.312 688.609 225 687.697 225.496C686.801 225.992 685.761 226.24 684.577 226.24ZM684.385 215.8C683.505 215.8 682.777 216.056 682.201 216.568C681.641 217.08 681.281 217.824 681.121 218.8H687.433C687.369 217.84 687.065 217.104 686.521 216.592C685.977 216.064 685.265 215.8 684.385 215.8ZM707.912 218.296C707.912 217.496 707.688 216.88 707.24 216.448C706.808 216 706.208 215.776 705.44 215.776C704.72 215.776 704.096 215.944 703.568 216.28C703.056 216.616 702.688 217.16 702.464 217.912L700.304 217C700.608 216.024 701.2 215.24 702.08 214.648C702.976 214.056 704.128 213.76 705.536 213.76C706.48 213.76 707.32 213.92 708.056 214.24C708.808 214.544 709.392 215.016 709.808 215.656C710.24 216.28 710.456 217.072 710.456 218.032V223.384C710.456 223.976 710.752 224.272 711.344 224.272C711.632 224.272 711.912 224.232 712.184 224.152L712.04 225.928C711.672 226.104 711.208 226.192 710.648 226.192C710.008 226.192 709.456 226.048 708.992 225.76C708.528 225.472 708.216 225.04 708.056 224.464C707.672 225.056 707.12 225.504 706.4 225.808C705.68 226.096 704.96 226.24 704.24 226.24C703.104 226.24 702.16 225.968 701.408 225.424C700.656 224.88 700.28 224.064 700.28 222.976C700.28 222.096 700.568 221.368 701.144 220.792C701.736 220.216 702.568 219.816 703.64 219.592L707.912 218.752V218.296ZM702.872 222.784C702.872 223.232 703.04 223.592 703.376 223.864C703.728 224.12 704.192 224.248 704.768 224.248C705.312 224.248 705.824 224.16 706.304 223.984C706.784 223.808 707.168 223.52 707.456 223.12C707.76 222.72 707.912 222.2 707.912 221.56V220.552L704.888 221.176C704.2 221.304 703.688 221.488 703.352 221.728C703.032 221.968 702.872 222.32 702.872 222.784ZM714.664 226V214H716.944L717.064 216.064C717.464 215.264 718.016 214.68 718.72 214.312C719.44 213.944 720.24 213.76 721.12 213.76C721.968 213.76 722.728 213.928 723.4 214.264C724.088 214.584 724.632 215.08 725.032 215.752C725.432 216.408 725.632 217.232 725.632 218.224V226H723.064V219.016C723.064 217.832 722.816 217.016 722.32 216.568C721.84 216.104 721.232 215.872 720.496 215.872C719.968 215.872 719.456 215.992 718.96 216.232C718.464 216.472 718.048 216.872 717.712 217.432C717.392 217.976 717.232 218.704 717.232 219.616V226H714.664ZM734.972 226L740.948 210.16H744.02L749.996 226H747.284L745.796 221.848H739.124L737.612 226H734.972ZM741.74 214.624L739.868 219.76H745.028L743.204 214.672L742.484 212.392H742.412L741.74 214.624ZM757.371 213.76C758.795 213.76 759.931 214.072 760.779 214.696C761.627 215.32 762.235 216.128 762.603 217.12L760.179 218.08C759.971 217.344 759.635 216.784 759.171 216.4C758.723 216 758.131 215.8 757.395 215.8C756.323 215.8 755.483 216.168 754.875 216.904C754.283 217.624 753.987 218.664 753.987 220.024C753.987 221.368 754.291 222.4 754.899 223.12C755.507 223.84 756.339 224.2 757.395 224.2C758.227 224.2 758.883 224 759.363 223.6C759.859 223.2 760.187 222.624 760.347 221.872L762.675 222.664C762.339 223.752 761.723 224.624 760.827 225.28C759.931 225.92 758.803 226.24 757.443 226.24C756.259 226.24 755.211 225.992 754.299 225.496C753.403 225 752.699 224.288 752.187 223.36C751.675 222.416 751.419 221.296 751.419 220C751.419 218.704 751.675 217.592 752.187 216.664C752.699 215.72 753.403 215 754.299 214.504C755.195 214.008 756.219 213.76 757.371 213.76ZM770.848 213.76C772.272 213.76 773.408 214.072 774.256 214.696C775.104 215.32 775.712 216.128 776.08 217.12L773.656 218.08C773.448 217.344 773.112 216.784 772.648 216.4C772.2 216 771.608 215.8 770.872 215.8C769.8 215.8 768.96 216.168 768.352 216.904C767.76 217.624 767.464 218.664 767.464 220.024C767.464 221.368 767.768 222.4 768.376 223.12C768.984 223.84 769.816 224.2 770.872 224.2C771.704 224.2 772.36 224 772.84 223.6C773.336 223.2 773.664 222.624 773.824 221.872L776.152 222.664C775.816 223.752 775.2 224.624 774.304 225.28C773.408 225.92 772.28 226.24 770.92 226.24C769.736 226.24 768.688 225.992 767.776 225.496C766.88 225 766.176 224.288 765.664 223.36C765.152 222.416 764.896 221.296 764.896 220C764.896 218.704 765.152 217.592 765.664 216.664C766.176 215.72 766.88 215 767.776 214.504C768.672 214.008 769.696 213.76 770.848 213.76ZM784.348 213.76C785.516 213.76 786.548 214.008 787.444 214.504C788.34 215 789.036 215.72 789.532 216.664C790.044 217.592 790.3 218.704 790.3 220C790.3 221.296 790.044 222.416 789.532 223.36C789.036 224.288 788.34 225 787.444 225.496C786.548 225.992 785.516 226.24 784.348 226.24C783.18 226.24 782.148 225.992 781.252 225.496C780.356 225 779.652 224.288 779.14 223.36C778.628 222.416 778.372 221.296 778.372 220C778.372 218.704 778.628 217.592 779.14 216.664C779.652 215.72 780.356 215 781.252 214.504C782.148 214.008 783.18 213.76 784.348 213.76ZM784.348 215.776C783.292 215.776 782.46 216.144 781.852 216.88C781.244 217.6 780.94 218.64 780.94 220C780.94 221.36 781.244 222.408 781.852 223.144C782.46 223.864 783.292 224.224 784.348 224.224C785.404 224.224 786.228 223.864 786.82 223.144C787.428 222.408 787.732 221.36 787.732 220C787.732 218.64 787.428 217.6 786.82 216.88C786.228 216.144 785.404 215.776 784.348 215.776ZM797.803 226.24C797.019 226.24 796.291 226.096 795.619 225.808C794.963 225.52 794.435 225.056 794.035 224.416C793.635 223.776 793.435 222.944 793.435 221.92V214H796.003V221.272C796.003 222.36 796.227 223.112 796.675 223.528C797.139 223.928 797.795 224.128 798.643 224.128C799.187 224.128 799.699 224.008 800.179 223.768C800.659 223.512 801.043 223.12 801.331 222.592C801.635 222.048 801.787 221.352 801.787 220.504V214H804.355V226H802.099L801.979 224.056C801.563 224.808 801.003 225.36 800.299 225.712C799.595 226.064 798.763 226.24 797.803 226.24ZM808.367 226V214H810.647L810.767 216.064C811.167 215.264 811.719 214.68 812.423 214.312C813.143 213.944 813.943 213.76 814.823 213.76C815.671 213.76 816.431 213.928 817.103 214.264C817.791 214.584 818.335 215.08 818.735 215.752C819.135 216.408 819.335 217.232 819.335 218.224V226H816.767V219.016C816.767 217.832 816.519 217.016 816.023 216.568C815.543 216.104 814.935 215.872 814.199 215.872C813.671 215.872 813.159 215.992 812.663 216.232C812.167 216.472 811.751 216.872 811.415 217.432C811.095 217.976 810.935 218.704 810.935 219.616V226H808.367ZM830.718 214V216.016H826.59V222.4C826.59 222.976 826.75 223.408 827.07 223.696C827.39 223.968 827.806 224.104 828.318 224.104C828.766 224.104 829.142 224.04 829.446 223.912C829.766 223.768 830.062 223.576 830.334 223.336L830.91 225.208C830.542 225.528 830.086 225.784 829.542 225.976C829.014 226.152 828.422 226.24 827.766 226.24C826.71 226.24 825.822 225.984 825.102 225.472C824.382 224.944 824.022 224.064 824.022 222.832V216.016H821.718V214H824.022V211.192L826.59 210.472V214H830.718Z" fill="#EFECEC"/>
<path d="M500.268 284.12V296H498.486L493.518 288.044L492.258 285.812H492.24L492.312 287.612V296H490.944V284.12H492.726L497.676 292.04L498.954 294.326H498.972L498.9 292.508V284.12H500.268ZM509.043 290.186C509.043 289.514 508.863 288.998 508.503 288.638C508.143 288.266 507.633 288.08 506.973 288.08C506.349 288.08 505.821 288.218 505.389 288.494C504.957 288.758 504.639 289.19 504.435 289.79L503.265 289.07C503.505 288.398 503.949 287.858 504.597 287.45C505.245 287.03 506.049 286.82 507.009 286.82C507.657 286.82 508.245 286.934 508.773 287.162C509.301 287.378 509.715 287.714 510.015 288.17C510.327 288.614 510.483 289.19 510.483 289.898V294.254C510.483 294.686 510.711 294.902 511.167 294.902C511.395 294.902 511.617 294.872 511.833 294.812L511.761 295.946C511.521 296.066 511.209 296.126 510.825 296.126C510.381 296.126 509.997 296.018 509.673 295.802C509.361 295.586 509.157 295.256 509.061 294.812C508.749 295.28 508.323 295.628 507.783 295.856C507.243 296.072 506.709 296.18 506.181 296.18C505.653 296.18 505.161 296.09 504.705 295.91C504.249 295.73 503.883 295.46 503.607 295.1C503.343 294.728 503.211 294.272 503.211 293.732C503.211 293.06 503.433 292.508 503.877 292.076C504.333 291.632 504.963 291.332 505.767 291.176L509.043 290.528V290.186ZM504.687 293.66C504.687 294.032 504.831 294.338 505.119 294.578C505.419 294.806 505.839 294.92 506.379 294.92C506.847 294.92 507.279 294.842 507.675 294.686C508.083 294.518 508.413 294.272 508.665 293.948C508.917 293.612 509.043 293.186 509.043 292.67V291.716L506.433 292.256C505.845 292.376 505.407 292.544 505.119 292.76C504.831 292.976 504.687 293.276 504.687 293.66ZM513.983 296V287H515.243L515.333 288.404C515.657 287.852 516.077 287.45 516.593 287.198C517.121 286.946 517.661 286.82 518.213 286.82C518.849 286.82 519.449 286.964 520.013 287.252C520.577 287.54 521.009 287.984 521.309 288.584C521.501 288.176 521.771 287.846 522.119 287.594C522.467 287.33 522.845 287.138 523.253 287.018C523.673 286.886 524.069 286.82 524.441 286.82C525.017 286.82 525.563 286.94 526.079 287.18C526.607 287.42 527.039 287.792 527.375 288.296C527.711 288.8 527.879 289.448 527.879 290.24V296H526.439V290.384C526.439 289.568 526.235 288.98 525.827 288.62C525.419 288.26 524.915 288.08 524.315 288.08C523.847 288.08 523.409 288.194 523.001 288.422C522.593 288.65 522.263 288.986 522.011 289.43C521.771 289.874 521.651 290.42 521.651 291.068V296H520.211V290.384C520.211 289.568 520.007 288.98 519.599 288.62C519.191 288.26 518.687 288.08 518.087 288.08C517.691 288.08 517.283 288.188 516.863 288.404C516.455 288.608 516.113 288.938 515.837 289.394C515.561 289.85 515.423 290.45 515.423 291.194V296H513.983ZM534.901 296.18C534.049 296.18 533.287 295.994 532.615 295.622C531.955 295.25 531.439 294.716 531.067 294.02C530.695 293.312 530.509 292.472 530.509 291.5C530.509 290.528 530.695 289.694 531.067 288.998C531.439 288.29 531.949 287.75 532.597 287.378C533.245 287.006 533.983 286.82 534.811 286.82C535.651 286.82 536.365 287 536.953 287.36C537.553 287.72 538.009 288.212 538.321 288.836C538.633 289.448 538.789 290.138 538.789 290.906C538.789 291.11 538.783 291.296 538.771 291.464C538.759 291.632 538.741 291.782 538.717 291.914H531.931C532.003 292.862 532.297 293.6 532.813 294.128C533.329 294.656 534.013 294.92 534.865 294.92C535.525 294.92 536.059 294.794 536.467 294.542C536.887 294.29 537.223 293.948 537.475 293.516L538.609 294.182C538.273 294.794 537.787 295.28 537.151 295.64C536.527 296 535.777 296.18 534.901 296.18ZM534.775 288.08C534.019 288.08 533.395 288.308 532.903 288.764C532.423 289.208 532.117 289.832 531.985 290.636H537.349C537.313 289.82 537.061 289.19 536.593 288.746C536.125 288.302 535.519 288.08 534.775 288.08Z" fill="#EFECEC"/>
<path d="M492.384 411.65H499.188V413H490.944V401.12H492.384V411.65ZM504.894 403.82C505.746 403.82 506.496 404.006 507.144 404.378C507.804 404.75 508.32 405.29 508.692 405.998C509.064 406.694 509.25 407.528 509.25 408.5C509.25 409.472 509.064 410.312 508.692 411.02C508.32 411.716 507.804 412.25 507.144 412.622C506.496 412.994 505.746 413.18 504.894 413.18C504.054 413.18 503.304 412.994 502.644 412.622C501.984 412.25 501.468 411.716 501.096 411.02C500.724 410.312 500.538 409.472 500.538 408.5C500.538 407.528 500.724 406.694 501.096 405.998C501.468 405.29 501.984 404.75 502.644 404.378C503.304 404.006 504.054 403.82 504.894 403.82ZM504.894 405.062C503.982 405.062 503.268 405.368 502.752 405.98C502.236 406.592 501.978 407.432 501.978 408.5C501.978 409.568 502.236 410.408 502.752 411.02C503.268 411.632 503.982 411.938 504.894 411.938C505.806 411.938 506.52 411.632 507.036 411.02C507.552 410.408 507.81 409.568 507.81 408.5C507.81 407.432 507.552 406.592 507.036 405.98C506.52 405.368 505.806 405.062 504.894 405.062ZM516.803 411.848C517.655 411.848 518.321 412.046 518.801 412.442C519.281 412.826 519.521 413.342 519.521 413.99C519.521 414.578 519.323 415.088 518.927 415.52C518.543 415.952 518.021 416.282 517.361 416.51C516.713 416.75 515.981 416.87 515.165 416.87C513.749 416.87 512.687 416.63 511.979 416.15C511.283 415.67 510.935 415.094 510.935 414.422C510.935 414.014 511.049 413.642 511.277 413.306C511.505 412.97 511.883 412.73 512.411 412.586C512.123 412.454 511.889 412.274 511.709 412.046C511.529 411.806 511.439 411.488 511.439 411.092C511.439 410.72 511.547 410.384 511.763 410.084C511.979 409.772 512.303 409.532 512.735 409.364C512.279 409.1 511.931 408.752 511.691 408.32C511.451 407.888 511.331 407.402 511.331 406.862C511.331 406.262 511.487 405.734 511.799 405.278C512.123 404.822 512.561 404.468 513.113 404.216C513.665 403.952 514.301 403.82 515.021 403.82C515.777 403.82 516.455 403.97 517.055 404.27C517.139 403.67 517.403 403.202 517.847 402.866C518.303 402.518 518.837 402.344 519.449 402.344H519.539L519.863 403.622H519.737C519.185 403.622 518.753 403.724 518.441 403.928C518.129 404.132 517.955 404.45 517.919 404.882C518.447 405.434 518.711 406.094 518.711 406.862C518.711 407.45 518.555 407.978 518.243 408.446C517.931 408.902 517.493 409.262 516.929 409.526C516.377 409.778 515.741 409.904 515.021 409.904C514.577 409.904 514.163 409.862 513.779 409.778C513.419 409.886 513.161 410.036 513.005 410.228C512.849 410.42 512.771 410.63 512.771 410.858C512.771 411.518 513.239 411.848 514.175 411.848H516.803ZM515.021 404.99C514.397 404.99 513.875 405.164 513.455 405.512C513.035 405.848 512.825 406.298 512.825 406.862C512.825 407.414 513.035 407.864 513.455 408.212C513.875 408.56 514.397 408.734 515.021 408.734C515.645 408.734 516.167 408.56 516.587 408.212C517.007 407.864 517.217 407.414 517.217 406.862C517.217 406.298 517.007 405.848 516.587 405.512C516.167 405.164 515.645 404.99 515.021 404.99ZM515.147 415.664C516.191 415.664 516.959 415.508 517.451 415.196C517.943 414.896 518.189 414.548 518.189 414.152C518.189 413.828 518.057 413.57 517.793 413.378C517.541 413.186 517.079 413.09 516.407 413.09H513.635C513.251 413.09 512.927 413.186 512.663 413.378C512.399 413.582 512.267 413.858 512.267 414.206C512.267 414.65 512.519 415.004 513.023 415.268C513.539 415.532 514.247 415.664 515.147 415.664ZM522.261 402.272C521.937 402.272 521.673 402.176 521.469 401.984C521.277 401.78 521.181 401.516 521.181 401.192C521.181 400.868 521.277 400.61 521.469 400.418C521.673 400.214 521.937 400.112 522.261 400.112C522.585 400.112 522.843 400.214 523.035 400.418C523.239 400.61 523.341 400.868 523.341 401.192C523.341 401.516 523.239 401.78 523.035 401.984C522.843 402.176 522.585 402.272 522.261 402.272ZM522.981 404V413H521.541V404H522.981ZM526.322 413V404H527.582L527.672 405.404C527.984 404.84 528.41 404.438 528.95 404.198C529.49 403.946 530.072 403.82 530.696 403.82C531.344 403.82 531.932 403.946 532.46 404.198C532.988 404.438 533.408 404.81 533.72 405.314C534.044 405.818 534.206 406.46 534.206 407.24V413H532.766V407.744C532.766 406.748 532.55 406.058 532.118 405.674C531.698 405.278 531.176 405.08 530.552 405.08C530.12 405.08 529.688 405.182 529.256 405.386C528.824 405.59 528.464 405.92 528.176 406.376C527.9 406.832 527.762 407.444 527.762 408.212V413H526.322Z" fill="#EFECEC"/>
<path d="M496.138 517.12C496.942 517.12 497.638 517.27 498.226 517.57C498.826 517.858 499.294 518.272 499.63 518.812C499.966 519.352 500.134 519.994 500.134 520.738C500.134 521.482 499.966 522.124 499.63 522.664C499.294 523.204 498.826 523.624 498.226 523.924C497.638 524.212 496.942 524.356 496.138 524.356H493.384V529H491.944V517.12H496.138ZM495.922 523.006C496.858 523.006 497.542 522.814 497.974 522.43C498.406 522.034 498.622 521.47 498.622 520.738C498.622 519.994 498.406 519.43 497.974 519.046C497.542 518.662 496.858 518.47 495.922 518.47H493.384V523.006H495.922ZM507.916 523.186C507.916 522.514 507.736 521.998 507.376 521.638C507.016 521.266 506.506 521.08 505.846 521.08C505.222 521.08 504.694 521.218 504.262 521.494C503.83 521.758 503.512 522.19 503.308 522.79L502.138 522.07C502.378 521.398 502.822 520.858 503.47 520.45C504.118 520.03 504.922 519.82 505.882 519.82C506.53 519.82 507.118 519.934 507.646 520.162C508.174 520.378 508.588 520.714 508.888 521.17C509.2 521.614 509.356 522.19 509.356 522.898V527.254C509.356 527.686 509.584 527.902 510.04 527.902C510.268 527.902 510.49 527.872 510.706 527.812L510.634 528.946C510.394 529.066 510.082 529.126 509.698 529.126C509.254 529.126 508.87 529.018 508.546 528.802C508.234 528.586 508.03 528.256 507.934 527.812C507.622 528.28 507.196 528.628 506.656 528.856C506.116 529.072 505.582 529.18 505.054 529.18C504.526 529.18 504.034 529.09 503.578 528.91C503.122 528.73 502.756 528.46 502.48 528.1C502.216 527.728 502.084 527.272 502.084 526.732C502.084 526.06 502.306 525.508 502.75 525.076C503.206 524.632 503.836 524.332 504.64 524.176L507.916 523.528V523.186ZM503.56 526.66C503.56 527.032 503.704 527.338 503.992 527.578C504.292 527.806 504.712 527.92 505.252 527.92C505.72 527.92 506.152 527.842 506.548 527.686C506.956 527.518 507.286 527.272 507.538 526.948C507.79 526.612 507.916 526.186 507.916 525.67V524.716L505.306 525.256C504.718 525.376 504.28 525.544 503.992 525.76C503.704 525.976 503.56 526.276 503.56 526.66ZM516.096 529.18C515.22 529.18 514.41 528.994 513.666 528.622C512.934 528.25 512.37 527.722 511.974 527.038L513.198 526.156C513.462 526.708 513.846 527.14 514.35 527.452C514.866 527.764 515.484 527.92 516.204 527.92C516.84 527.92 517.338 527.8 517.698 527.56C518.058 527.308 518.238 526.984 518.238 526.588C518.238 526.336 518.154 526.108 517.986 525.904C517.83 525.688 517.524 525.532 517.068 525.436L514.908 524.986C514.032 524.806 513.402 524.506 513.018 524.086C512.646 523.666 512.46 523.144 512.46 522.52C512.46 522.028 512.598 521.578 512.874 521.17C513.162 520.762 513.564 520.438 514.08 520.198C514.608 519.946 515.226 519.82 515.934 519.82C516.822 519.82 517.572 519.994 518.184 520.342C518.796 520.69 519.252 521.182 519.552 521.818L518.346 522.61C518.142 522.082 517.812 521.698 517.356 521.458C516.9 521.206 516.426 521.08 515.934 521.08C515.286 521.08 514.782 521.212 514.422 521.476C514.062 521.74 513.882 522.07 513.882 522.466C513.882 522.73 513.972 522.976 514.152 523.204C514.332 523.42 514.668 523.576 515.16 523.672L517.41 524.14C518.25 524.308 518.838 524.584 519.174 524.968C519.51 525.352 519.678 525.82 519.678 526.372C519.678 527.224 519.348 527.908 518.688 528.424C518.028 528.928 517.164 529.18 516.096 529.18ZM525.588 529.18C524.712 529.18 523.902 528.994 523.158 528.622C522.426 528.25 521.862 527.722 521.466 527.038L522.69 526.156C522.954 526.708 523.338 527.14 523.842 527.452C524.358 527.764 524.976 527.92 525.696 527.92C526.332 527.92 526.83 527.8 527.19 527.56C527.55 527.308 527.73 526.984 527.73 526.588C527.73 526.336 527.646 526.108 527.478 525.904C527.322 525.688 527.016 525.532 526.56 525.436L524.4 524.986C523.524 524.806 522.894 524.506 522.51 524.086C522.138 523.666 521.952 523.144 521.952 522.52C521.952 522.028 522.09 521.578 522.366 521.17C522.654 520.762 523.056 520.438 523.572 520.198C524.1 519.946 524.718 519.82 525.426 519.82C526.314 519.82 527.064 519.994 527.676 520.342C528.288 520.69 528.744 521.182 529.044 521.818L527.838 522.61C527.634 522.082 527.304 521.698 526.848 521.458C526.392 521.206 525.918 521.08 525.426 521.08C524.778 521.08 524.274 521.212 523.914 521.476C523.554 521.74 523.374 522.07 523.374 522.466C523.374 522.73 523.464 522.976 523.644 523.204C523.824 523.42 524.16 523.576 524.652 523.672L526.902 524.14C527.742 524.308 528.33 524.584 528.666 524.968C529.002 525.352 529.17 525.82 529.17 526.372C529.17 527.224 528.84 527.908 528.18 528.424C527.52 528.928 526.656 529.18 525.588 529.18ZM542.581 520H544.183L541.051 529H539.611L537.073 521.836L534.679 529H533.239L530.107 520H531.709L533.977 527.326L536.425 520H537.865L540.313 527.326L542.581 520ZM549.787 519.82C550.639 519.82 551.389 520.006 552.037 520.378C552.697 520.75 553.213 521.29 553.585 521.998C553.957 522.694 554.143 523.528 554.143 524.5C554.143 525.472 553.957 526.312 553.585 527.02C553.213 527.716 552.697 528.25 552.037 528.622C551.389 528.994 550.639 529.18 549.787 529.18C548.947 529.18 548.197 528.994 547.537 528.622C546.877 528.25 546.361 527.716 545.989 527.02C545.617 526.312 545.431 525.472 545.431 524.5C545.431 523.528 545.617 522.694 545.989 521.998C546.361 521.29 546.877 520.75 547.537 520.378C548.197 520.006 548.947 519.82 549.787 519.82ZM549.787 521.062C548.875 521.062 548.161 521.368 547.645 521.98C547.129 522.592 546.871 523.432 546.871 524.5C546.871 525.568 547.129 526.408 547.645 527.02C548.161 527.632 548.875 527.938 549.787 527.938C550.699 527.938 551.413 527.632 551.929 527.02C552.445 526.408 552.703 525.568 552.703 524.5C552.703 523.432 552.445 522.592 551.929 521.98C551.413 521.368 550.699 521.062 549.787 521.062ZM556.854 529V520H558.024L558.222 521.476C558.726 520.372 559.686 519.82 561.102 519.82C561.258 519.82 561.426 519.832 561.606 519.856C561.798 519.88 561.96 519.928 562.092 520L561.84 521.314C561.708 521.266 561.564 521.23 561.408 521.206C561.252 521.182 561.03 521.17 560.742 521.17C560.37 521.17 559.992 521.278 559.608 521.494C559.236 521.71 558.924 522.04 558.672 522.484C558.42 522.916 558.294 523.468 558.294 524.14V529H556.854ZM567.43 529.18C566.686 529.18 566.002 528.994 565.378 528.622C564.754 528.25 564.256 527.716 563.884 527.02C563.512 526.312 563.326 525.472 563.326 524.5C563.326 523.504 563.524 522.658 563.92 521.962C564.316 521.266 564.838 520.738 565.486 520.378C566.134 520.006 566.83 519.82 567.574 519.82C568.222 519.82 568.798 519.97 569.302 520.27C569.806 520.558 570.178 520.954 570.418 521.458V515.86H571.858V529H570.598L570.508 527.308C570.256 527.92 569.848 528.388 569.284 528.712C568.72 529.024 568.102 529.18 567.43 529.18ZM567.574 527.92C568.426 527.92 569.11 527.602 569.626 526.966C570.154 526.33 570.418 525.466 570.418 524.374C570.418 523.342 570.16 522.538 569.644 521.962C569.128 521.374 568.462 521.08 567.646 521.08C566.734 521.08 566.026 521.392 565.522 522.016C565.018 522.64 564.766 523.468 564.766 524.5C564.766 525.532 565.012 526.36 565.504 526.984C565.996 527.608 566.686 527.92 567.574 527.92Z" fill="#EFECEC"/>
<rect x="599" y="646" width="244" height="71" rx="14" fill="#62929A"/>
<path d="M633.094 684.223C633.039 685.41 632.719 686.461 632.133 687.375C631.547 688.281 630.723 688.984 629.66 689.484C628.605 689.984 627.398 690.234 626.039 690.234C623.797 690.234 622.031 689.504 620.742 688.043C619.453 686.582 618.809 684.52 618.809 681.855V681.012C618.809 679.34 619.098 677.879 619.676 676.629C620.262 675.371 621.102 674.402 622.195 673.723C623.289 673.035 624.555 672.691 625.992 672.691C628.062 672.691 629.727 673.238 630.984 674.332C632.242 675.418 632.957 676.918 633.129 678.832H629.027C628.996 677.793 628.734 677.047 628.242 676.594C627.75 676.141 627 675.914 625.992 675.914C624.969 675.914 624.219 676.297 623.742 677.062C623.266 677.828 623.016 679.051 622.992 680.73V681.938C622.992 683.758 623.219 685.059 623.672 685.84C624.133 686.621 624.922 687.012 626.039 687.012C626.984 687.012 627.707 686.789 628.207 686.344C628.707 685.898 628.973 685.191 629.004 684.223H633.094ZM641.379 683.977H639.152V690H635.039V672.938H641.754C643.777 672.938 645.359 673.387 646.5 674.285C647.641 675.184 648.211 676.453 648.211 678.094C648.211 679.281 647.969 680.266 647.484 681.047C647.008 681.828 646.258 682.461 645.234 682.945L648.797 689.824V690H644.391L641.379 683.977ZM639.152 680.801H641.754C642.535 680.801 643.121 680.598 643.512 680.191C643.91 679.777 644.109 679.203 644.109 678.469C644.109 677.734 643.91 677.16 643.512 676.746C643.113 676.324 642.527 676.113 641.754 676.113H639.152V680.801ZM661.277 682.77H654.809V686.836H662.449V690H650.695V672.938H662.473V676.113H654.809V679.711H661.277V682.77ZM673.816 686.812H668.18L667.195 690H662.801L669.059 672.938H672.926L679.23 690H674.812L673.816 686.812ZM669.164 683.637H672.832L670.992 677.719L669.164 683.637ZM692.473 676.113H687.352V690H683.238V676.113H678.211V672.938H692.473V676.113ZM704.801 682.77H698.332V686.836H705.973V690H694.219V672.938H705.996V676.113H698.332V679.711H704.801V682.77ZM723.316 686.812H717.68L716.695 690H712.301L718.559 672.938H722.426L728.73 690H724.312L723.316 686.812ZM718.664 683.637H722.332L720.492 677.719L718.664 683.637ZM743.531 684.223C743.477 685.41 743.156 686.461 742.57 687.375C741.984 688.281 741.16 688.984 740.098 689.484C739.043 689.984 737.836 690.234 736.477 690.234C734.234 690.234 732.469 689.504 731.18 688.043C729.891 686.582 729.246 684.52 729.246 681.855V681.012C729.246 679.34 729.535 677.879 730.113 676.629C730.699 675.371 731.539 674.402 732.633 673.723C733.727 673.035 734.992 672.691 736.43 672.691C738.5 672.691 740.164 673.238 741.422 674.332C742.68 675.418 743.395 676.918 743.566 678.832H739.465C739.434 677.793 739.172 677.047 738.68 676.594C738.188 676.141 737.438 675.914 736.43 675.914C735.406 675.914 734.656 676.297 734.18 677.062C733.703 677.828 733.453 679.051 733.43 680.73V681.938C733.43 683.758 733.656 685.059 734.109 685.84C734.57 686.621 735.359 687.012 736.477 687.012C737.422 687.012 738.145 686.789 738.645 686.344C739.145 685.898 739.41 685.191 739.441 684.223H743.531ZM759.281 684.223C759.227 685.41 758.906 686.461 758.32 687.375C757.734 688.281 756.91 688.984 755.848 689.484C754.793 689.984 753.586 690.234 752.227 690.234C749.984 690.234 748.219 689.504 746.93 688.043C745.641 686.582 744.996 684.52 744.996 681.855V681.012C744.996 679.34 745.285 677.879 745.863 676.629C746.449 675.371 747.289 674.402 748.383 673.723C749.477 673.035 750.742 672.691 752.18 672.691C754.25 672.691 755.914 673.238 757.172 674.332C758.43 675.418 759.145 676.918 759.316 678.832H755.215C755.184 677.793 754.922 677.047 754.43 676.594C753.938 676.141 753.188 675.914 752.18 675.914C751.156 675.914 750.406 676.297 749.93 677.062C749.453 677.828 749.203 679.051 749.18 680.73V681.938C749.18 683.758 749.406 685.059 749.859 685.84C750.32 686.621 751.109 687.012 752.227 687.012C753.172 687.012 753.895 686.789 754.395 686.344C754.895 685.898 755.16 685.191 755.191 684.223H759.281ZM775.676 681.82C775.676 683.484 775.367 684.957 774.75 686.238C774.133 687.52 773.254 688.508 772.113 689.203C770.98 689.891 769.688 690.234 768.234 690.234C766.781 690.234 765.492 689.902 764.367 689.238C763.242 688.566 762.363 687.609 761.73 686.367C761.105 685.125 760.777 683.699 760.746 682.09V681.129C760.746 679.457 761.051 677.984 761.66 676.711C762.277 675.43 763.156 674.441 764.297 673.746C765.445 673.051 766.75 672.703 768.211 672.703C769.656 672.703 770.945 673.047 772.078 673.734C773.211 674.422 774.09 675.402 774.715 676.676C775.348 677.941 775.668 679.395 775.676 681.035V681.82ZM771.492 681.105C771.492 679.41 771.207 678.125 770.637 677.25C770.074 676.367 769.266 675.926 768.211 675.926C766.148 675.926 765.059 677.473 764.941 680.566L764.93 681.82C764.93 683.492 765.207 684.777 765.762 685.676C766.316 686.574 767.141 687.023 768.234 687.023C769.273 687.023 770.074 686.582 770.637 685.699C771.199 684.816 771.484 683.547 771.492 681.891V681.105ZM791.18 672.938V684.105C791.18 685.371 790.91 686.469 790.371 687.398C789.832 688.32 789.059 689.023 788.051 689.508C787.043 689.992 785.852 690.234 784.477 690.234C782.398 690.234 780.762 689.695 779.566 688.617C778.371 687.539 777.762 686.062 777.738 684.188V672.938H781.875V684.27C781.922 686.137 782.789 687.07 784.477 687.07C785.328 687.07 785.973 686.836 786.41 686.367C786.848 685.898 787.066 685.137 787.066 684.082V672.938H791.18ZM808.008 690H803.918L797.871 679.383V690H793.758V672.938H797.871L803.906 683.555V672.938H808.008V690ZM823.652 676.113H818.531V690H814.418V676.113H809.391V672.938H823.652V676.113Z" fill="#EFECEC"/>
<rect x="120" y="27" width="414" height="47.5997" rx="4" fill="#9F8282"/>
<path d="M178.391 50.4648H171.23V58H168.98V40.9375H179.551V42.7891H171.23V48.625H178.391V50.4648ZM184.262 58H182.094V45.3203H184.262V58ZM181.918 41.957C181.918 41.6055 182.023 41.3086 182.234 41.0664C182.453 40.8242 182.773 40.7031 183.195 40.7031C183.617 40.7031 183.938 40.8242 184.156 41.0664C184.375 41.3086 184.484 41.6055 184.484 41.957C184.484 42.3086 184.375 42.6016 184.156 42.8359C183.938 43.0703 183.617 43.1875 183.195 43.1875C182.773 43.1875 182.453 43.0703 182.234 42.8359C182.023 42.6016 181.918 42.3086 181.918 41.957ZM189.793 45.3203L189.863 46.9141C190.832 45.6953 192.098 45.0859 193.66 45.0859C196.34 45.0859 197.691 46.5977 197.715 49.6211V58H195.547V49.6094C195.539 48.6953 195.328 48.0195 194.914 47.582C194.508 47.1445 193.871 46.9258 193.004 46.9258C192.301 46.9258 191.684 47.1133 191.152 47.4883C190.621 47.8633 190.207 48.3555 189.91 48.9648V58H187.742V45.3203H189.793ZM200.457 51.5547C200.457 49.6094 200.918 48.0469 201.84 46.8672C202.762 45.6797 203.969 45.0859 205.461 45.0859C206.945 45.0859 208.121 45.5938 208.988 46.6094V40H211.156V58H209.164L209.059 56.6406C208.191 57.7031 206.984 58.2344 205.438 58.2344C203.969 58.2344 202.77 57.6328 201.84 56.4297C200.918 55.2266 200.457 53.6562 200.457 51.7188V51.5547ZM202.625 51.8008C202.625 53.2383 202.922 54.3633 203.516 55.1758C204.109 55.9883 204.93 56.3945 205.977 56.3945C207.352 56.3945 208.355 55.7773 208.988 54.543V48.7188C208.34 47.5234 207.344 46.9258 206 46.9258C204.938 46.9258 204.109 47.3359 203.516 48.1562C202.922 48.9766 202.625 50.1914 202.625 51.8008ZM228.312 58C228.188 57.75 228.086 57.3047 228.008 56.6641C227 57.7109 225.797 58.2344 224.398 58.2344C223.148 58.2344 222.121 57.8828 221.316 57.1797C220.52 56.4688 220.121 55.5703 220.121 54.4844C220.121 53.1641 220.621 52.1406 221.621 51.4141C222.629 50.6797 224.043 50.3125 225.863 50.3125H227.973V49.3164C227.973 48.5586 227.746 47.957 227.293 47.5117C226.84 47.0586 226.172 46.832 225.289 46.832C224.516 46.832 223.867 47.0273 223.344 47.418C222.82 47.8086 222.559 48.2812 222.559 48.8359H220.379C220.379 48.2031 220.602 47.5938 221.047 47.0078C221.5 46.4141 222.109 45.9453 222.875 45.6016C223.648 45.2578 224.496 45.0859 225.418 45.0859C226.879 45.0859 228.023 45.4531 228.852 46.1875C229.68 46.9141 230.109 47.918 230.141 49.1992V55.0352C230.141 56.1992 230.289 57.125 230.586 57.8125V58H228.312ZM224.715 56.3477C225.395 56.3477 226.039 56.1719 226.648 55.8203C227.258 55.4688 227.699 55.0117 227.973 54.4492V51.8477H226.273C223.617 51.8477 222.289 52.625 222.289 54.1797C222.289 54.8594 222.516 55.3906 222.969 55.7734C223.422 56.1562 224.004 56.3477 224.715 56.3477ZM245.621 47.2656C245.293 47.2109 244.938 47.1836 244.555 47.1836C243.133 47.1836 242.168 47.7891 241.66 49V58H239.492V45.3203H241.602L241.637 46.7852C242.348 45.6523 243.355 45.0859 244.66 45.0859C245.082 45.0859 245.402 45.1406 245.621 45.25V47.2656ZM252.652 58.2344C250.934 58.2344 249.535 57.6719 248.457 56.5469C247.379 55.4141 246.84 53.9023 246.84 52.0117V51.6133C246.84 50.3555 247.078 49.2344 247.555 48.25C248.039 47.2578 248.711 46.4844 249.57 45.9297C250.438 45.3672 251.375 45.0859 252.383 45.0859C254.031 45.0859 255.312 45.6289 256.227 46.7148C257.141 47.8008 257.598 49.3555 257.598 51.3789V52.2812H249.008C249.039 53.5312 249.402 54.543 250.098 55.3164C250.801 56.082 251.691 56.4648 252.77 56.4648C253.535 56.4648 254.184 56.3086 254.715 55.9961C255.246 55.6836 255.711 55.2695 256.109 54.7539L257.434 55.7852C256.371 57.418 254.777 58.2344 252.652 58.2344ZM252.383 46.8672C251.508 46.8672 250.773 47.1875 250.18 47.8281C249.586 48.4609 249.219 49.3516 249.078 50.5H255.43V50.3359C255.367 49.2344 255.07 48.3828 254.539 47.7812C254.008 47.1719 253.289 46.8672 252.383 46.8672ZM270.828 51.8008C270.828 53.7305 270.387 55.2852 269.504 56.4648C268.621 57.6445 267.426 58.2344 265.918 58.2344C264.379 58.2344 263.168 57.7461 262.285 56.7695V62.875H260.117V45.3203H262.098L262.203 46.7266C263.086 45.6328 264.312 45.0859 265.883 45.0859C267.406 45.0859 268.609 45.6602 269.492 46.8086C270.383 47.957 270.828 49.5547 270.828 51.6016V51.8008ZM268.66 51.5547C268.66 50.125 268.355 48.9961 267.746 48.168C267.137 47.3398 266.301 46.9258 265.238 46.9258C263.926 46.9258 262.941 47.5078 262.285 48.6719V54.7305C262.934 55.8867 263.926 56.4648 265.262 56.4648C266.301 56.4648 267.125 56.0547 267.734 55.2344C268.352 54.4062 268.66 53.1797 268.66 51.5547ZM273.02 51.543C273.02 50.3008 273.262 49.1836 273.746 48.1914C274.238 47.1992 274.918 46.4336 275.785 45.8945C276.66 45.3555 277.656 45.0859 278.773 45.0859C280.5 45.0859 281.895 45.6836 282.957 46.8789C284.027 48.0742 284.562 49.6641 284.562 51.6484V51.8008C284.562 53.0352 284.324 54.1445 283.848 55.1289C283.379 56.1055 282.703 56.8672 281.82 57.4141C280.945 57.9609 279.938 58.2344 278.797 58.2344C277.078 58.2344 275.684 57.6367 274.613 56.4414C273.551 55.2461 273.02 53.6641 273.02 51.6953V51.543ZM275.199 51.8008C275.199 53.207 275.523 54.3359 276.172 55.1875C276.828 56.0391 277.703 56.4648 278.797 56.4648C279.898 56.4648 280.773 56.0352 281.422 55.1758C282.07 54.3086 282.395 53.0977 282.395 51.543C282.395 50.1523 282.062 49.0273 281.398 48.168C280.742 47.3008 279.867 46.8672 278.773 46.8672C277.703 46.8672 276.84 47.293 276.184 48.1445C275.527 48.9961 275.199 50.2148 275.199 51.8008ZM294.664 54.6367C294.664 54.0508 294.441 53.5977 293.996 53.2773C293.559 52.9492 292.789 52.668 291.688 52.4336C290.594 52.1992 289.723 51.918 289.074 51.5898C288.434 51.2617 287.957 50.8711 287.645 50.418C287.34 49.9648 287.188 49.4258 287.188 48.8008C287.188 47.7617 287.625 46.8828 288.5 46.1641C289.383 45.4453 290.508 45.0859 291.875 45.0859C293.312 45.0859 294.477 45.457 295.367 46.1992C296.266 46.9414 296.715 47.8906 296.715 49.0469H294.535C294.535 48.4531 294.281 47.9414 293.773 47.5117C293.273 47.082 292.641 46.8672 291.875 46.8672C291.086 46.8672 290.469 47.0391 290.023 47.3828C289.578 47.7266 289.355 48.1758 289.355 48.7305C289.355 49.2539 289.562 49.6484 289.977 49.9141C290.391 50.1797 291.137 50.4336 292.215 50.6758C293.301 50.918 294.18 51.207 294.852 51.543C295.523 51.8789 296.02 52.2852 296.34 52.7617C296.668 53.2305 296.832 53.8047 296.832 54.4844C296.832 55.6172 296.379 56.5273 295.473 57.2148C294.566 57.8945 293.391 58.2344 291.945 58.2344C290.93 58.2344 290.031 58.0547 289.25 57.6953C288.469 57.3359 287.855 56.8359 287.41 56.1953C286.973 55.5469 286.754 54.8477 286.754 54.0977H288.922C288.961 54.8242 289.25 55.4023 289.789 55.832C290.336 56.2539 291.055 56.4648 291.945 56.4648C292.766 56.4648 293.422 56.3008 293.914 55.9727C294.414 55.6367 294.664 55.1914 294.664 54.6367ZM302.012 58H299.844V45.3203H302.012V58ZM299.668 41.957C299.668 41.6055 299.773 41.3086 299.984 41.0664C300.203 40.8242 300.523 40.7031 300.945 40.7031C301.367 40.7031 301.688 40.8242 301.906 41.0664C302.125 41.3086 302.234 41.6055 302.234 41.957C302.234 42.3086 302.125 42.6016 301.906 42.8359C301.688 43.0703 301.367 43.1875 300.945 43.1875C300.523 43.1875 300.203 43.0703 299.984 42.8359C299.773 42.6016 299.668 42.3086 299.668 41.957ZM308.434 42.25V45.3203H310.801V46.9961H308.434V54.8594C308.434 55.3672 308.539 55.75 308.75 56.0078C308.961 56.2578 309.32 56.3828 309.828 56.3828C310.078 56.3828 310.422 56.3359 310.859 56.2422V58C310.289 58.1562 309.734 58.2344 309.195 58.2344C308.227 58.2344 307.496 57.9414 307.004 57.3555C306.512 56.7695 306.266 55.9375 306.266 54.8594V46.9961H303.957V45.3203H306.266V42.25H308.434ZM312.535 51.543C312.535 50.3008 312.777 49.1836 313.262 48.1914C313.754 47.1992 314.434 46.4336 315.301 45.8945C316.176 45.3555 317.172 45.0859 318.289 45.0859C320.016 45.0859 321.41 45.6836 322.473 46.8789C323.543 48.0742 324.078 49.6641 324.078 51.6484V51.8008C324.078 53.0352 323.84 54.1445 323.363 55.1289C322.895 56.1055 322.219 56.8672 321.336 57.4141C320.461 57.9609 319.453 58.2344 318.312 58.2344C316.594 58.2344 315.199 57.6367 314.129 56.4414C313.066 55.2461 312.535 53.6641 312.535 51.6953V51.543ZM314.715 51.8008C314.715 53.207 315.039 54.3359 315.688 55.1875C316.344 56.0391 317.219 56.4648 318.312 56.4648C319.414 56.4648 320.289 56.0352 320.938 55.1758C321.586 54.3086 321.91 53.0977 321.91 51.543C321.91 50.1523 321.578 49.0273 320.914 48.168C320.258 47.3008 319.383 46.8672 318.289 46.8672C317.219 46.8672 316.355 47.293 315.699 48.1445C315.043 48.9961 314.715 50.2148 314.715 51.8008ZM332.926 47.2656C332.598 47.2109 332.242 47.1836 331.859 47.1836C330.438 47.1836 329.473 47.7891 328.965 49V58H326.797V45.3203H328.906L328.941 46.7852C329.652 45.6523 330.66 45.0859 331.965 45.0859C332.387 45.0859 332.707 45.1406 332.926 45.25V47.2656ZM339.289 54.8242L342.242 45.3203H344.562L339.465 59.957C338.676 62.0664 337.422 63.1211 335.703 63.1211L335.293 63.0859L334.484 62.9336V61.1758L335.07 61.2227C335.805 61.2227 336.375 61.0742 336.781 60.7773C337.195 60.4805 337.535 59.9375 337.801 59.1484L338.281 57.8594L333.758 45.3203H336.125L339.289 54.8242ZM345.289 56.8633C345.289 56.4883 345.398 56.1758 345.617 55.9258C345.844 55.6758 346.18 55.5508 346.625 55.5508C347.07 55.5508 347.406 55.6758 347.633 55.9258C347.867 56.1758 347.984 56.4883 347.984 56.8633C347.984 57.2227 347.867 57.5234 347.633 57.7656C347.406 58.0078 347.07 58.1289 346.625 58.1289C346.18 58.1289 345.844 58.0078 345.617 57.7656C345.398 57.5234 345.289 57.2227 345.289 56.8633ZM351.617 56.8633C351.617 56.4883 351.727 56.1758 351.945 55.9258C352.172 55.6758 352.508 55.5508 352.953 55.5508C353.398 55.5508 353.734 55.6758 353.961 55.9258C354.195 56.1758 354.312 56.4883 354.312 56.8633C354.312 57.2227 354.195 57.5234 353.961 57.7656C353.734 58.0078 353.398 58.1289 352.953 58.1289C352.508 58.1289 352.172 58.0078 351.945 57.7656C351.727 57.5234 351.617 57.2227 351.617 56.8633ZM357.945 56.8633C357.945 56.4883 358.055 56.1758 358.273 55.9258C358.5 55.6758 358.836 55.5508 359.281 55.5508C359.727 55.5508 360.062 55.6758 360.289 55.9258C360.523 56.1758 360.641 56.4883 360.641 56.8633C360.641 57.2227 360.523 57.5234 360.289 57.7656C360.062 58.0078 359.727 58.1289 359.281 58.1289C358.836 58.1289 358.5 58.0078 358.273 57.7656C358.055 57.5234 357.945 57.2227 357.945 56.8633Z" fill="#EFECEC"/>
<path d="M161.396 63.6856L154.429 54.4475C155.51 52.5942 156.095 50.3283 156.095 47.945C156.095 45.0921 155.255 42.4171 153.737 40.4002C152.219 38.3832 150.196 37.2734 148.047 37.2734C145.899 37.2734 143.876 38.3868 142.358 40.4002C140.837 42.4135 140 45.0921 140 47.945C140 50.7943 140.84 53.4764 142.358 55.4898C143.876 57.5067 145.896 58.6166 148.047 58.6166C149.845 58.6166 151.551 57.8411 152.948 56.4111L159.915 65.6456C159.935 65.6727 159.96 65.6942 159.986 65.7088C160.013 65.7235 160.042 65.7311 160.07 65.7311C160.099 65.7311 160.128 65.7235 160.155 65.7088C160.181 65.6942 160.206 65.6727 160.226 65.6456L161.396 64.0982C161.416 64.0711 161.432 64.0389 161.443 64.0035C161.454 63.9681 161.46 63.9302 161.46 63.8919C161.46 63.8535 161.454 63.8156 161.443 63.7802C161.432 63.7448 161.416 63.7126 161.396 63.6856ZM152.297 53.5796C151.159 55.0843 149.652 55.9131 148.047 55.9131C146.443 55.9131 144.936 55.0843 143.798 53.5796C142.664 52.0713 142.039 50.0722 142.039 47.945C142.039 45.8178 142.664 43.8151 143.798 42.3104C144.936 40.8057 146.443 39.9768 148.047 39.9768C149.652 39.9768 151.162 40.8021 152.297 42.3104C153.431 43.8186 154.056 45.8178 154.056 47.945C154.056 50.0722 153.431 52.0749 152.297 53.5796Z" fill="black" fill-opacity="0.77"/>
<rect width="1440" height="99" fill="#62929A"/>
<g clip-path="url(#clip0)">
<path d="M172.845 10C150.842 10 133 27.8391 133 49.8453C133 67.4503 144.417 82.3859 160.249 87.6547C162.24 88.0234 162.971 86.7903 162.971 85.7378C162.971 84.7878 162.934 81.6487 162.917 78.3194C151.832 80.7297 149.493 73.6181 149.493 73.6181C147.68 69.0125 145.069 67.7881 145.069 67.7881C141.454 65.315 145.341 65.3656 145.341 65.3656C149.343 65.6469 151.449 69.4719 151.449 69.4719C155.003 75.5634 160.771 73.8022 163.044 72.7844C163.402 70.2088 164.435 68.4513 165.574 67.4563C156.724 66.4484 147.42 63.0319 147.42 47.7644C147.42 43.4144 148.977 39.8597 151.526 37.0694C151.112 36.0656 149.748 32.0131 151.912 26.5247C151.912 26.5247 155.258 25.4537 162.872 30.6091C166.05 29.7259 169.459 29.2834 172.845 29.2684C176.232 29.2834 179.643 29.7259 182.827 30.6091C190.433 25.4537 193.774 26.5247 193.774 26.5247C195.943 32.0131 194.578 36.0656 194.164 37.0694C196.719 39.8597 198.265 43.4141 198.265 47.7644C198.265 63.0681 188.944 66.4381 180.071 67.4244C181.5 68.6609 182.774 71.0859 182.774 74.8031C182.774 80.1344 182.728 84.4253 182.728 85.7378C182.728 86.7981 183.445 88.0406 185.465 87.6494C201.288 82.3747 212.69 67.4444 212.69 49.8453C212.69 27.8391 194.851 10 172.845 10Z" fill="#363434"/>
<path d="M147.924 66.7606C147.836 66.9584 147.524 67.0178 147.241 66.8822C146.952 66.7522 146.789 66.4822 146.883 66.2834C146.969 66.0797 147.281 66.0228 147.569 66.1597C147.859 66.2894 148.024 66.5619 147.924 66.7606V66.7606ZM149.884 68.5094C149.694 68.6856 149.322 68.6038 149.07 68.3253C148.809 68.0475 148.761 67.6763 148.953 67.4972C149.149 67.3213 149.51 67.4034 149.771 67.6816C150.031 67.9625 150.082 68.3316 149.883 68.5097L149.884 68.5094ZM151.228 70.7469C150.984 70.9166 150.585 70.7575 150.338 70.4031C150.094 70.0491 150.094 69.6241 150.343 69.4538C150.591 69.2834 150.984 69.4366 151.234 69.7881C151.478 70.1484 151.478 70.5734 151.228 70.7472L151.228 70.7469ZM153.502 73.3384C153.284 73.5791 152.819 73.5147 152.478 73.186C152.13 72.8647 152.033 72.4088 152.252 72.1678C152.473 71.9266 152.94 71.9944 153.284 72.3203C153.63 72.6409 153.735 73.1003 153.502 73.3384H153.502ZM156.441 74.2134C156.345 74.5253 155.897 74.6672 155.445 74.5347C154.995 74.3981 154.7 74.0325 154.791 73.7172C154.885 73.4031 155.335 73.2553 155.789 73.3972C156.239 73.5331 156.535 73.8959 156.441 74.2134H156.441ZM159.786 74.5844C159.797 74.9131 159.414 75.1856 158.94 75.1916C158.464 75.2019 158.079 74.9359 158.074 74.6128C158.074 74.2809 158.448 74.0109 158.924 74.0031C159.398 73.9938 159.786 74.2578 159.786 74.5844V74.5844ZM163.071 74.4584C163.128 74.7791 162.799 75.1084 162.329 75.1959C161.866 75.2803 161.438 75.0825 161.379 74.7647C161.321 74.4359 161.657 74.1069 162.119 74.0216C162.59 73.9397 163.011 74.1325 163.071 74.4584" fill="#363434"/>
</g>
<rect x="250" y="27" width="414" height="47.5997" rx="4" fill="#EFECEC"/>
<path d="M310.296 43.264H300.696V49.384H308.304V50.512H300.696V58H299.496V42.16H310.296V43.264ZM313.752 43.672C313.448 43.672 313.2 43.584 313.008 43.408C312.832 43.216 312.744 42.968 312.744 42.664C312.744 42.36 312.832 42.12 313.008 41.944C313.2 41.752 313.448 41.656 313.752 41.656C314.056 41.656 314.296 41.752 314.472 41.944C314.664 42.12 314.76 42.36 314.76 42.664C314.76 42.968 314.664 43.216 314.472 43.408C314.296 43.584 314.056 43.672 313.752 43.672ZM314.352 46V58H313.152V46H314.352ZM318.636 58V46H319.716L319.788 48.4C320.156 47.552 320.74 46.904 321.54 46.456C322.34 45.992 323.244 45.76 324.252 45.76C325.58 45.76 326.676 46.136 327.54 46.888C328.404 47.64 328.836 48.752 328.836 50.224V58H327.636V50.608C327.636 49.296 327.308 48.336 326.652 47.728C325.996 47.12 325.156 46.816 324.132 46.816C323.38 46.816 322.676 46.992 322.02 47.344C321.364 47.68 320.836 48.176 320.436 48.832C320.036 49.488 319.836 50.288 319.836 51.232V58H318.636ZM337.66 58.24C336.62 58.24 335.684 57.992 334.852 57.496C334.036 57 333.388 56.288 332.908 55.36C332.428 54.416 332.188 53.296 332.188 52C332.188 50.688 332.436 49.568 332.932 48.64C333.428 47.696 334.092 46.984 334.924 46.504C335.772 46.008 336.724 45.76 337.78 45.76C338.788 45.76 339.676 46.016 340.444 46.528C341.212 47.04 341.756 47.752 342.076 48.664V40.48H343.276V58H342.196L342.124 55.168C341.82 56.144 341.26 56.904 340.444 57.448C339.628 57.976 338.7 58.24 337.66 58.24ZM337.804 57.184C338.636 57.184 339.372 56.976 340.012 56.56C340.668 56.128 341.172 55.52 341.524 54.736C341.892 53.936 342.076 52.992 342.076 51.904C342.076 50.336 341.676 49.096 340.876 48.184C340.092 47.272 339.084 46.816 337.852 46.816C336.476 46.816 335.388 47.28 334.588 48.208C333.788 49.136 333.388 50.4 333.388 52C333.388 53.6 333.78 54.864 334.564 55.792C335.364 56.72 336.444 57.184 337.804 57.184ZM362.425 50.104C362.425 49.08 362.145 48.28 361.585 47.704C361.025 47.112 360.225 46.816 359.185 46.816C358.273 46.816 357.481 47.016 356.809 47.416C356.153 47.816 355.673 48.464 355.369 49.36L354.385 48.736C354.737 47.792 355.321 47.064 356.137 46.552C356.969 46.024 357.993 45.76 359.209 45.76C360.521 45.76 361.585 46.112 362.401 46.816C363.217 47.504 363.625 48.528 363.625 49.888V55.888C363.625 56.736 364.009 57.16 364.777 57.16C365.113 57.16 365.401 57.104 365.641 56.992L365.569 57.952C365.297 58.096 364.945 58.168 364.513 58.168C363.985 58.168 363.513 58.016 363.097 57.712C362.681 57.408 362.449 56.856 362.401 56.056C362.001 56.808 361.401 57.36 360.601 57.712C359.801 58.064 358.993 58.24 358.177 58.24C357.041 58.24 356.105 57.976 355.369 57.448C354.633 56.92 354.265 56.152 354.265 55.144C354.265 54.232 354.569 53.504 355.177 52.96C355.785 52.416 356.625 52.04 357.697 51.832L362.425 50.896V50.104ZM355.489 55.048C355.489 55.72 355.737 56.248 356.233 56.632C356.729 57 357.433 57.184 358.345 57.184C358.969 57.184 359.593 57.072 360.217 56.848C360.857 56.608 361.385 56.24 361.801 55.744C362.217 55.232 362.425 54.576 362.425 53.776V51.904L358.297 52.72C357.353 52.912 356.649 53.192 356.185 53.56C355.721 53.928 355.489 54.424 355.489 55.048ZM375.027 58V46H376.035L376.179 48.496C376.483 47.68 376.963 47.024 377.619 46.528C378.291 46.016 379.107 45.76 380.067 45.76C380.707 45.76 381.211 45.896 381.579 46.168L381.291 47.224C381.115 47.112 380.923 47.024 380.715 46.96C380.507 46.896 380.195 46.864 379.779 46.864C379.171 46.864 378.595 47.056 378.051 47.44C377.507 47.808 377.067 48.328 376.731 49C376.395 49.656 376.227 50.416 376.227 51.28V58H375.027ZM388.43 58.24C387.326 58.24 386.342 57.992 385.478 57.496C384.614 57 383.934 56.288 383.438 55.36C382.958 54.416 382.718 53.296 382.718 52C382.718 50.704 382.958 49.592 383.438 48.664C383.918 47.72 384.574 47 385.406 46.504C386.254 46.008 387.214 45.76 388.286 45.76C389.374 45.76 390.302 46 391.07 46.48C391.854 46.96 392.446 47.632 392.846 48.496C393.262 49.344 393.47 50.328 393.47 51.448C393.47 51.608 393.462 51.76 393.446 51.904C393.446 52.032 393.438 52.144 393.422 52.24H383.894C383.942 53.792 384.374 55.008 385.19 55.888C386.022 56.752 387.094 57.184 388.406 57.184C389.334 57.184 390.126 56.984 390.782 56.584C391.454 56.184 391.974 55.632 392.342 54.928L393.302 55.48C392.854 56.328 392.206 57 391.358 57.496C390.526 57.992 389.55 58.24 388.43 58.24ZM388.262 46.816C387.094 46.816 386.11 47.2 385.31 47.968C384.526 48.72 384.062 49.784 383.918 51.16H392.294C392.246 49.832 391.862 48.776 391.142 47.992C390.438 47.208 389.478 46.816 388.262 46.816ZM396.894 63.04V46H397.974L398.046 48.736C398.398 47.824 398.974 47.104 399.774 46.576C400.574 46.032 401.51 45.76 402.582 45.76C403.606 45.76 404.526 46.008 405.342 46.504C406.158 47 406.806 47.712 407.286 48.64C407.766 49.568 408.006 50.688 408.006 52C408.006 53.296 407.766 54.416 407.286 55.36C406.806 56.288 406.15 57 405.318 57.496C404.502 57.992 403.574 58.24 402.534 58.24C401.51 58.24 400.606 57.984 399.822 57.472C399.038 56.96 398.462 56.264 398.094 55.384V63.04H396.894ZM402.39 57.184C403.75 57.184 404.822 56.72 405.606 55.792C406.406 54.864 406.806 53.6 406.806 52C406.806 50.4 406.414 49.136 405.63 48.208C404.846 47.28 403.782 46.816 402.438 46.816C401.59 46.816 400.838 47.032 400.182 47.464C399.542 47.88 399.03 48.48 398.646 49.264C398.278 50.032 398.094 50.944 398.094 52C398.094 53.056 398.278 53.976 398.646 54.76C399.014 55.528 399.518 56.128 400.158 56.56C400.814 56.976 401.558 57.184 402.39 57.184ZM416.368 45.76C417.488 45.76 418.472 46.008 419.32 46.504C420.184 47 420.856 47.72 421.336 48.664C421.832 49.592 422.08 50.704 422.08 52C422.08 53.296 421.832 54.416 421.336 55.36C420.856 56.288 420.184 57 419.32 57.496C418.472 57.992 417.488 58.24 416.368 58.24C415.248 58.24 414.256 57.992 413.392 57.496C412.544 57 411.872 56.288 411.376 55.36C410.896 54.416 410.656 53.296 410.656 52C410.656 50.704 410.896 49.592 411.376 48.664C411.872 47.72 412.544 47 413.392 46.504C414.256 46.008 415.248 45.76 416.368 45.76ZM416.368 46.792C415.008 46.792 413.912 47.256 413.08 48.184C412.264 49.112 411.856 50.384 411.856 52C411.856 53.616 412.264 54.888 413.08 55.816C413.912 56.744 415.008 57.208 416.368 57.208C417.728 57.208 418.816 56.744 419.632 55.816C420.464 54.888 420.88 53.616 420.88 52C420.88 50.384 420.464 49.112 419.632 48.184C418.816 47.256 417.728 46.792 416.368 46.792ZM429.567 58.24C428.351 58.24 427.271 57.992 426.327 57.496C425.399 57 424.743 56.288 424.359 55.36L425.391 54.664C425.663 55.48 426.175 56.104 426.927 56.536C427.679 56.968 428.591 57.184 429.663 57.184C430.703 57.184 431.527 56.976 432.135 56.56C432.743 56.144 433.047 55.592 433.047 54.904C433.047 54.44 432.895 54.04 432.591 53.704C432.303 53.352 431.751 53.088 430.935 52.912L428.127 52.312C426.991 52.072 426.175 51.688 425.679 51.16C425.183 50.616 424.935 49.96 424.935 49.192C424.935 48.568 425.127 48 425.511 47.488C425.895 46.96 426.423 46.544 427.095 46.24C427.783 45.92 428.583 45.76 429.495 45.76C430.695 45.76 431.687 46 432.471 46.48C433.255 46.944 433.807 47.648 434.127 48.592L433.119 49.24C432.879 48.392 432.431 47.776 431.775 47.392C431.119 47.008 430.359 46.816 429.495 46.816C428.471 46.816 427.655 47.04 427.047 47.488C426.439 47.92 426.135 48.464 426.135 49.12C426.135 49.584 426.287 50.008 426.591 50.392C426.911 50.76 427.487 51.032 428.319 51.208L431.199 51.832C432.319 52.072 433.103 52.44 433.551 52.936C434.015 53.416 434.247 54.016 434.247 54.736C434.247 55.808 433.815 56.664 432.951 57.304C432.103 57.928 430.975 58.24 429.567 58.24ZM438.228 43.672C437.924 43.672 437.676 43.584 437.484 43.408C437.308 43.216 437.22 42.968 437.22 42.664C437.22 42.36 437.308 42.12 437.484 41.944C437.676 41.752 437.924 41.656 438.228 41.656C438.532 41.656 438.772 41.752 438.948 41.944C439.14 42.12 439.236 42.36 439.236 42.664C439.236 42.968 439.14 43.216 438.948 43.408C438.772 43.584 438.532 43.672 438.228 43.672ZM438.828 46V58H437.628V46H438.828ZM449.593 46V47.032H445.105V54.832C445.105 56.368 445.809 57.136 447.217 57.136C447.665 57.136 448.057 57.064 448.393 56.92C448.745 56.76 449.057 56.536 449.329 56.248L449.785 57.232C449.465 57.536 449.073 57.784 448.609 57.976C448.161 58.152 447.649 58.24 447.073 58.24C446.129 58.24 445.361 57.984 444.769 57.472C444.193 56.944 443.905 56.12 443.905 55V47.032H441.505V46H443.905V43L445.105 42.664V46H449.593ZM457.055 45.76C458.175 45.76 459.159 46.008 460.007 46.504C460.871 47 461.543 47.72 462.023 48.664C462.519 49.592 462.767 50.704 462.767 52C462.767 53.296 462.519 54.416 462.023 55.36C461.543 56.288 460.871 57 460.007 57.496C459.159 57.992 458.175 58.24 457.055 58.24C455.935 58.24 454.943 57.992 454.079 57.496C453.231 57 452.559 56.288 452.063 55.36C451.583 54.416 451.343 53.296 451.343 52C451.343 50.704 451.583 49.592 452.063 48.664C452.559 47.72 453.231 47 454.079 46.504C454.943 46.008 455.935 45.76 457.055 45.76ZM457.055 46.792C455.695 46.792 454.599 47.256 453.767 48.184C452.951 49.112 452.543 50.384 452.543 52C452.543 53.616 452.951 54.888 453.767 55.816C454.599 56.744 455.695 57.208 457.055 57.208C458.415 57.208 459.503 56.744 460.319 55.816C461.151 54.888 461.567 53.616 461.567 52C461.567 50.384 461.151 49.112 460.319 48.184C459.503 47.256 458.415 46.792 457.055 46.792ZM466.199 58V46H467.207L467.351 48.496C467.655 47.68 468.135 47.024 468.791 46.528C469.463 46.016 470.279 45.76 471.239 45.76C471.879 45.76 472.383 45.896 472.751 46.168L472.463 47.224C472.287 47.112 472.095 47.024 471.887 46.96C471.679 46.896 471.367 46.864 470.951 46.864C470.343 46.864 469.767 47.056 469.223 47.44C468.679 47.808 468.239 48.328 467.903 49C467.567 49.656 467.399 50.416 467.399 51.28V58H466.199ZM484.725 46L478.917 60.208C478.469 61.328 477.973 62.096 477.429 62.512C476.885 62.944 476.213 63.16 475.413 63.16C474.421 63.16 473.653 62.888 473.109 62.344L473.493 61.312C473.733 61.6 474.021 61.8 474.357 61.912C474.693 62.04 475.037 62.104 475.389 62.104C475.901 62.104 476.357 61.952 476.757 61.648C477.173 61.36 477.549 60.784 477.885 59.92L478.677 58L477.405 55.024L473.613 46H474.981L478.653 55.096L479.253 56.704L479.901 54.976L483.429 46H484.725ZM486.015 56.032C486.335 56.032 486.591 56.136 486.783 56.344C486.991 56.536 487.095 56.792 487.095 57.112C487.095 57.432 486.991 57.696 486.783 57.904C486.591 58.096 486.335 58.192 486.015 58.192C485.695 58.192 485.431 58.096 485.223 57.904C485.031 57.696 484.935 57.432 484.935 57.112C484.935 56.792 485.031 56.536 485.223 56.344C485.431 56.136 485.695 56.032 486.015 56.032ZM491.288 56.032C491.608 56.032 491.864 56.136 492.056 56.344C492.264 56.536 492.368 56.792 492.368 57.112C492.368 57.432 492.264 57.696 492.056 57.904C491.864 58.096 491.608 58.192 491.288 58.192C490.968 58.192 490.704 58.096 490.496 57.904C490.304 57.696 490.208 57.432 490.208 57.112C490.208 56.792 490.304 56.536 490.496 56.344C490.704 56.136 490.968 56.032 491.288 56.032ZM496.562 56.032C496.882 56.032 497.138 56.136 497.33 56.344C497.538 56.536 497.642 56.792 497.642 57.112C497.642 57.432 497.538 57.696 497.33 57.904C497.138 58.096 496.882 58.192 496.562 58.192C496.242 58.192 495.978 58.096 495.77 57.904C495.578 57.696 495.482 57.432 495.482 57.112C495.482 56.792 495.578 56.536 495.77 56.344C495.978 56.136 496.242 56.032 496.562 56.032Z" fill="#363434"/>
<path d="M291.396 63.6856L284.429 54.4475C285.51 52.5942 286.095 50.3283 286.095 47.945C286.095 45.0921 285.255 42.4171 283.737 40.4002C282.219 38.3832 280.196 37.2734 278.047 37.2734C275.899 37.2734 273.876 38.3868 272.358 40.4002C270.837 42.4135 270 45.0921 270 47.945C270 50.7943 270.84 53.4764 272.358 55.4898C273.876 57.5067 275.896 58.6165 278.047 58.6165C279.845 58.6165 281.551 57.8411 282.948 56.4111L289.915 65.6456C289.935 65.6727 289.96 65.6942 289.986 65.7088C290.013 65.7235 290.042 65.7311 290.07 65.7311C290.099 65.7311 290.128 65.7235 290.155 65.7088C290.181 65.6942 290.206 65.6727 290.226 65.6456L291.396 64.0982C291.416 64.0711 291.432 64.0389 291.443 64.0035C291.454 63.9681 291.46 63.9302 291.46 63.8919C291.46 63.8536 291.454 63.8156 291.443 63.7802C291.432 63.7448 291.416 63.7126 291.396 63.6856V63.6856ZM282.297 53.5796C281.159 55.0843 279.652 55.9131 278.047 55.9131C276.443 55.9131 274.936 55.0843 273.798 53.5796C272.664 52.0713 272.039 50.0722 272.039 47.945C272.039 45.8178 272.664 43.8151 273.798 42.3104C274.936 40.8057 276.443 39.9768 278.047 39.9768C279.652 39.9768 281.162 40.8021 282.297 42.3104C283.431 43.8186 284.056 45.8178 284.056 47.945C284.056 50.0722 283.431 52.0749 282.297 53.5796Z" fill="black" fill-opacity="0.77"/>
<rect x="490" y="540" width="464" height="55" rx="10" fill="#EFECEC"/>
<rect x="489" y="424" width="464" height="55" rx="10" fill="#EFECEC"/>
<rect x="488" y="308" width="464" height="55" rx="10" fill="#EFECEC"/>
<rect x="1153" y="24" width="185" height="53.832" rx="14" fill="#5C5757"/>
<path d="M1213.35 53.01H1223.28V57H1208.19V37.2H1213.35V53.01ZM1232.84 41.7C1234.42 41.7 1235.8 42.01 1236.98 42.63C1238.18 43.25 1239.11 44.14 1239.77 45.3C1240.45 46.46 1240.79 47.86 1240.79 49.5C1240.79 51.14 1240.45 52.54 1239.77 53.7C1239.11 54.86 1238.18 55.75 1236.98 56.37C1235.8 56.99 1234.42 57.3 1232.84 57.3C1231.28 57.3 1229.9 56.99 1228.7 56.37C1227.52 55.75 1226.59 54.86 1225.91 53.7C1225.25 52.54 1224.92 51.14 1224.92 49.5C1224.92 47.86 1225.25 46.46 1225.91 45.3C1226.59 44.14 1227.52 43.25 1228.7 42.63C1229.9 42.01 1231.28 41.7 1232.84 41.7ZM1232.84 45.33C1231.96 45.33 1231.27 45.66 1230.77 46.32C1230.29 46.96 1230.05 48.02 1230.05 49.5C1230.05 50.96 1230.29 52.02 1230.77 52.68C1231.27 53.34 1231.96 53.67 1232.84 53.67C1233.74 53.67 1234.43 53.34 1234.91 52.68C1235.41 52.02 1235.66 50.96 1235.66 49.5C1235.66 48.02 1235.41 46.96 1234.91 46.32C1234.43 45.66 1233.74 45.33 1232.84 45.33ZM1252.82 53.67C1254.56 53.67 1255.89 54.04 1256.81 54.78C1257.75 55.5 1258.22 56.54 1258.22 57.9C1258.22 59.78 1257.47 61.17 1255.97 62.07C1254.49 62.99 1252.49 63.45 1249.97 63.45C1247.25 63.45 1245.29 63.11 1244.09 62.43C1242.89 61.75 1242.29 60.83 1242.29 59.67C1242.29 58.99 1242.51 58.41 1242.95 57.93C1243.41 57.45 1244.14 57.12 1245.14 56.94C1243.68 56.4 1242.95 55.39 1242.95 53.91C1242.95 53.21 1243.16 52.6 1243.58 52.08C1244 51.54 1244.58 51.15 1245.32 50.91C1243.72 50.03 1242.92 48.66 1242.92 46.8C1242.92 45.18 1243.55 43.93 1244.81 43.05C1246.09 42.15 1247.88 41.7 1250.18 41.7C1251.34 41.7 1252.39 41.82 1253.33 42.06C1253.41 41.34 1253.61 40.67 1253.93 40.05C1254.27 39.43 1254.73 38.93 1255.31 38.55C1255.91 38.15 1256.64 37.95 1257.5 37.95C1257.56 37.95 1257.63 37.96 1257.71 37.98C1257.79 37.98 1257.88 37.98 1257.98 37.98L1258.4 41.4C1258.18 41.34 1257.94 41.31 1257.68 41.31C1256.98 41.31 1256.42 41.45 1256 41.73C1255.58 42.01 1255.3 42.37 1255.16 42.81C1256.66 43.69 1257.41 45.02 1257.41 46.8C1257.41 48.42 1256.77 49.67 1255.49 50.55C1254.23 51.43 1252.46 51.87 1250.18 51.87C1249.14 51.87 1248.2 51.78 1247.36 51.6C1246.7 51.8 1246.37 52.15 1246.37 52.65C1246.37 53.33 1246.93 53.67 1248.05 53.67H1252.82ZM1250.18 44.61C1249.52 44.61 1248.98 44.8 1248.56 45.18C1248.16 45.56 1247.96 46.1 1247.96 46.8C1247.96 47.48 1248.16 48.01 1248.56 48.39C1248.98 48.77 1249.52 48.96 1250.18 48.96C1250.82 48.96 1251.35 48.77 1251.77 48.39C1252.19 48.01 1252.4 47.48 1252.4 46.8C1252.4 46.1 1252.19 45.56 1251.77 45.18C1251.35 44.8 1250.82 44.61 1250.18 44.61ZM1250 60.15C1251.44 60.15 1252.51 60 1253.21 59.7C1253.93 59.42 1254.29 59.06 1254.29 58.62C1254.29 58.32 1254.17 58.08 1253.93 57.9C1253.71 57.74 1253.32 57.66 1252.76 57.66H1247.39C1247.01 57.66 1246.7 57.76 1246.46 57.96C1246.24 58.16 1246.13 58.41 1246.13 58.71C1246.13 59.17 1246.47 59.52 1247.15 59.76C1247.83 60.02 1248.78 60.15 1250 60.15ZM1262.79 40.26C1261.75 40.26 1260.99 40.07 1260.51 39.69C1260.05 39.29 1259.82 38.67 1259.82 37.83C1259.82 36.97 1260.05 36.35 1260.51 35.97C1260.99 35.57 1261.75 35.37 1262.79 35.37C1263.81 35.37 1264.56 35.57 1265.04 35.97C1265.52 36.35 1265.76 36.97 1265.76 37.83C1265.76 38.67 1265.52 39.29 1265.04 39.69C1264.56 40.07 1263.81 40.26 1262.79 40.26ZM1265.34 42V57H1260.24V42H1265.34ZM1268.97 57V42H1273.53L1273.68 45.03C1274.14 43.93 1274.81 43.1 1275.69 42.54C1276.57 41.98 1277.61 41.7 1278.81 41.7C1280.35 41.7 1281.6 42.15 1282.56 43.05C1283.52 43.95 1284 45.27 1284 47.01V57H1278.9V48.36C1278.9 47.32 1278.7 46.6 1278.3 46.2C1277.9 45.8 1277.39 45.6 1276.77 45.6C1276.03 45.6 1275.39 45.86 1274.85 46.38C1274.33 46.9 1274.07 47.79 1274.07 49.05V57H1268.97Z" fill="#EFECEC"/>
<defs>
<clipPath id="clip0">
<rect width="80" height="77.824" fill="white" transform="translate(133 10)"/>
</clipPath>
</defs>
</svg>
