<svg width="1440" height="1024" viewBox="0 0 1440 1024" fill="none" xmlns="http://www.w3.org/2000/svg">
<rect width="1440" height="1024" fill="white"/>
<rect y="100" width="1440" height="924" fill="#EFECEC"/>
<rect width="1440" height="99" fill="#C4C4C4"/>
<rect width="1440" height="99" fill="#62929A"/>
<rect x="952" y="319" width="365" height="412" rx="10" fill="#5C5757"/>
<path d="M1006.76 689.76V699H1005.38L1001.51 692.812L1000.53 691.076H1000.52L1000.58 692.476V699H999.512V689.76H1000.9L1004.75 695.92L1005.74 697.698H1005.76L1005.7 696.284V689.76H1006.76ZM1013.59 694.478C1013.59 693.955 1013.45 693.554 1013.17 693.274C1012.89 692.985 1012.49 692.84 1011.98 692.84C1011.49 692.84 1011.08 692.947 1010.75 693.162C1010.41 693.367 1010.16 693.703 1010.01 694.17L1009.1 693.61C1009.28 693.087 1009.63 692.667 1010.13 692.35C1010.64 692.023 1011.26 691.86 1012.01 691.86C1012.51 691.86 1012.97 691.949 1013.38 692.126C1013.79 692.294 1014.11 692.555 1014.35 692.91C1014.59 693.255 1014.71 693.703 1014.71 694.254V697.642C1014.71 697.978 1014.89 698.146 1015.24 698.146C1015.42 698.146 1015.59 698.123 1015.76 698.076L1015.7 698.958C1015.52 699.051 1015.27 699.098 1014.98 699.098C1014.63 699.098 1014.33 699.014 1014.08 698.846C1013.84 698.678 1013.68 698.421 1013.6 698.076C1013.36 698.44 1013.03 698.711 1012.61 698.888C1012.19 699.056 1011.77 699.14 1011.36 699.14C1010.95 699.14 1010.57 699.07 1010.22 698.93C1009.86 698.79 1009.58 698.58 1009.36 698.3C1009.16 698.011 1009.05 697.656 1009.05 697.236C1009.05 696.713 1009.23 696.284 1009.57 695.948C1009.93 695.603 1010.42 695.369 1011.04 695.248L1013.59 694.744V694.478ZM1010.2 697.18C1010.2 697.469 1010.31 697.707 1010.54 697.894C1010.77 698.071 1011.1 698.16 1011.52 698.16C1011.88 698.16 1012.22 698.099 1012.53 697.978C1012.84 697.847 1013.1 697.656 1013.3 697.404C1013.49 697.143 1013.59 696.811 1013.59 696.41V695.668L1011.56 696.088C1011.1 696.181 1010.76 696.312 1010.54 696.48C1010.31 696.648 1010.2 696.881 1010.2 697.18ZM1014.58 688.962C1014.48 690.213 1013.96 690.838 1013.02 690.838C1012.75 690.838 1012.53 690.791 1012.34 690.698C1012.17 690.595 1012.01 690.483 1011.88 690.362C1011.75 690.241 1011.62 690.133 1011.49 690.04C1011.37 689.937 1011.23 689.886 1011.08 689.886C1010.88 689.886 1010.72 689.975 1010.62 690.152C1010.52 690.32 1010.44 690.553 1010.4 690.852H1009.52C1009.56 690.236 1009.71 689.769 1009.96 689.452C1010.22 689.135 1010.6 688.976 1011.1 688.976C1011.35 688.976 1011.56 689.027 1011.74 689.13C1011.93 689.223 1012.09 689.331 1012.22 689.452C1012.36 689.573 1012.49 689.685 1012.61 689.788C1012.73 689.881 1012.86 689.928 1013 689.928C1013.22 689.928 1013.37 689.844 1013.48 689.676C1013.58 689.499 1013.65 689.261 1013.7 688.962H1014.58ZM1020.33 691.86C1020.99 691.86 1021.57 692.005 1022.08 692.294C1022.59 692.583 1022.99 693.003 1023.28 693.554C1023.57 694.095 1023.72 694.744 1023.72 695.5C1023.72 696.256 1023.57 696.909 1023.28 697.46C1022.99 698.001 1022.59 698.417 1022.08 698.706C1021.57 698.995 1020.99 699.14 1020.33 699.14C1019.68 699.14 1019.09 698.995 1018.58 698.706C1018.07 698.417 1017.66 698.001 1017.37 697.46C1017.09 696.909 1016.94 696.256 1016.94 695.5C1016.94 694.744 1017.09 694.095 1017.37 693.554C1017.66 693.003 1018.07 692.583 1018.58 692.294C1019.09 692.005 1019.68 691.86 1020.33 691.86ZM1020.33 692.826C1019.62 692.826 1019.06 693.064 1018.66 693.54C1018.26 694.016 1018.06 694.669 1018.06 695.5C1018.06 696.331 1018.26 696.984 1018.66 697.46C1019.06 697.936 1019.62 698.174 1020.33 698.174C1021.04 698.174 1021.59 697.936 1021.99 697.46C1022.4 696.984 1022.6 696.331 1022.6 695.5C1022.6 694.669 1022.4 694.016 1021.99 693.54C1021.59 693.064 1021.04 692.826 1020.33 692.826ZM1034.52 692V692.966H1031.98V697.068C1031.98 697.413 1032.07 697.67 1032.27 697.838C1032.47 698.006 1032.72 698.09 1033.03 698.09C1033.3 698.09 1033.53 698.043 1033.73 697.95C1033.92 697.857 1034.1 697.731 1034.26 697.572L1034.65 698.51C1034.43 698.706 1034.18 698.86 1033.88 698.972C1033.59 699.084 1033.25 699.14 1032.87 699.14C1032.52 699.14 1032.19 699.079 1031.88 698.958C1031.57 698.827 1031.32 698.627 1031.14 698.356C1030.96 698.076 1030.86 697.712 1030.86 697.264V692.966H1029.46V692H1030.86V690.32L1031.98 690.012V692H1034.52ZM1039.11 699.14C1038.45 699.14 1037.86 698.995 1037.34 698.706C1036.82 698.417 1036.42 698.001 1036.13 697.46C1035.84 696.909 1035.7 696.256 1035.7 695.5C1035.7 694.744 1035.84 694.095 1036.13 693.554C1036.42 693.003 1036.82 692.583 1037.32 692.294C1037.83 692.005 1038.4 691.86 1039.04 691.86C1039.7 691.86 1040.25 692 1040.71 692.28C1041.18 692.56 1041.53 692.943 1041.77 693.428C1042.02 693.904 1042.14 694.441 1042.14 695.038C1042.14 695.197 1042.13 695.341 1042.12 695.472C1042.12 695.603 1042.1 695.719 1042.08 695.822H1036.8C1036.86 696.559 1037.09 697.133 1037.49 697.544C1037.89 697.955 1038.42 698.16 1039.09 698.16C1039.6 698.16 1040.02 698.062 1040.33 697.866C1040.66 697.67 1040.92 697.404 1041.12 697.068L1042 697.586C1041.74 698.062 1041.36 698.44 1040.86 698.72C1040.38 699 1039.8 699.14 1039.11 699.14ZM1039.02 692.84C1038.43 692.84 1037.94 693.017 1037.56 693.372C1037.19 693.717 1036.95 694.203 1036.85 694.828H1041.02C1040.99 694.193 1040.79 693.703 1040.43 693.358C1040.07 693.013 1039.6 692.84 1039.02 692.84ZM1044.27 699V692H1045.25L1045.32 693.092C1045.57 692.663 1045.9 692.35 1046.3 692.154C1046.71 691.958 1047.13 691.86 1047.56 691.86C1048.05 691.86 1048.52 691.972 1048.96 692.196C1049.4 692.42 1049.73 692.765 1049.97 693.232C1050.12 692.915 1050.33 692.658 1050.6 692.462C1050.87 692.257 1051.16 692.107 1051.48 692.014C1051.81 691.911 1052.11 691.86 1052.4 691.86C1052.85 691.86 1053.28 691.953 1053.68 692.14C1054.09 692.327 1054.42 692.616 1054.68 693.008C1054.95 693.4 1055.08 693.904 1055.08 694.52V699H1053.96V694.632C1053.96 693.997 1053.8 693.54 1053.48 693.26C1053.16 692.98 1052.77 692.84 1052.3 692.84C1051.94 692.84 1051.6 692.929 1051.28 693.106C1050.97 693.283 1050.71 693.545 1050.51 693.89C1050.33 694.235 1050.23 694.66 1050.23 695.164V699H1049.11V694.632C1049.11 693.997 1048.95 693.54 1048.64 693.26C1048.32 692.98 1047.93 692.84 1047.46 692.84C1047.15 692.84 1046.84 692.924 1046.51 693.092C1046.19 693.251 1045.93 693.507 1045.71 693.862C1045.5 694.217 1045.39 694.683 1045.39 695.262V699H1044.27ZM1065.28 691.86C1066 691.86 1066.6 692.028 1067.07 692.364C1067.55 692.691 1067.92 693.143 1068.18 693.722L1067.12 694.226C1066.97 693.778 1066.74 693.437 1066.43 693.204C1066.13 692.961 1065.74 692.84 1065.25 692.84C1064.55 692.84 1064 693.078 1063.6 693.554C1063.21 694.021 1063.01 694.669 1063.01 695.5C1063.01 696.331 1063.21 696.984 1063.6 697.46C1064 697.927 1064.55 698.16 1065.25 698.16C1065.8 698.16 1066.24 698.034 1066.57 697.782C1066.9 697.53 1067.11 697.175 1067.21 696.718L1068.25 697.082C1068.02 697.726 1067.65 698.23 1067.14 698.594C1066.65 698.958 1066.03 699.14 1065.28 699.14C1064.63 699.14 1064.05 698.995 1063.53 698.706C1063.02 698.417 1062.62 698.001 1062.33 697.46C1062.04 696.909 1061.89 696.256 1061.89 695.5C1061.89 694.744 1062.04 694.095 1062.33 693.554C1062.62 693.003 1063.02 692.583 1063.53 692.294C1064.05 692.005 1064.63 691.86 1065.28 691.86ZM1073.12 691.86C1073.78 691.86 1074.36 692.005 1074.87 692.294C1075.38 692.583 1075.78 693.003 1076.07 693.554C1076.36 694.095 1076.5 694.744 1076.5 695.5C1076.5 696.256 1076.36 696.909 1076.07 697.46C1075.78 698.001 1075.38 698.417 1074.87 698.706C1074.36 698.995 1073.78 699.14 1073.12 699.14C1072.46 699.14 1071.88 698.995 1071.37 698.706C1070.85 698.417 1070.45 698.001 1070.16 697.46C1069.87 696.909 1069.73 696.256 1069.73 695.5C1069.73 694.744 1069.87 694.095 1070.16 693.554C1070.45 693.003 1070.85 692.583 1071.37 692.294C1071.88 692.005 1072.46 691.86 1073.12 691.86ZM1073.12 692.826C1072.41 692.826 1071.85 693.064 1071.45 693.54C1071.05 694.016 1070.85 694.669 1070.85 695.5C1070.85 696.331 1071.05 696.984 1071.45 697.46C1071.85 697.936 1072.41 698.174 1073.12 698.174C1073.83 698.174 1074.38 697.936 1074.78 697.46C1075.18 696.984 1075.38 696.331 1075.38 695.5C1075.38 694.669 1075.18 694.016 1074.78 693.54C1074.38 693.064 1073.83 692.826 1073.12 692.826ZM1078.61 699V692H1079.59L1079.66 693.092C1079.91 692.653 1080.24 692.341 1080.66 692.154C1081.08 691.958 1081.53 691.86 1082.01 691.86C1082.52 691.86 1082.98 691.958 1083.39 692.154C1083.8 692.341 1084.12 692.63 1084.37 693.022C1084.62 693.414 1084.74 693.913 1084.74 694.52V699H1083.62V694.912C1083.62 694.137 1083.46 693.601 1083.12 693.302C1082.79 692.994 1082.39 692.84 1081.9 692.84C1081.57 692.84 1081.23 692.919 1080.89 693.078C1080.56 693.237 1080.28 693.493 1080.05 693.848C1079.84 694.203 1079.73 694.679 1079.73 695.276V699H1078.61ZM1091.38 692V692.966H1088.84V697.068C1088.84 697.413 1088.93 697.67 1089.13 697.838C1089.33 698.006 1089.58 698.09 1089.89 698.09C1090.16 698.09 1090.39 698.043 1090.59 697.95C1090.78 697.857 1090.96 697.731 1091.12 697.572L1091.51 698.51C1091.3 698.706 1091.04 698.86 1090.74 698.972C1090.45 699.084 1090.12 699.14 1089.73 699.14C1089.38 699.14 1089.05 699.079 1088.74 698.958C1088.43 698.827 1088.18 698.627 1088 698.356C1087.82 698.076 1087.73 697.712 1087.72 697.264V692.966H1086.32V692H1087.72V690.32L1088.84 690.012V692H1091.38ZM1097.14 694.478C1097.14 693.955 1097 693.554 1096.72 693.274C1096.44 692.985 1096.04 692.84 1095.53 692.84C1095.04 692.84 1094.63 692.947 1094.3 693.162C1093.96 693.367 1093.71 693.703 1093.55 694.17L1092.64 693.61C1092.83 693.087 1093.18 692.667 1093.68 692.35C1094.18 692.023 1094.81 691.86 1095.56 691.86C1096.06 691.86 1096.52 691.949 1096.93 692.126C1097.34 692.294 1097.66 692.555 1097.89 692.91C1098.14 693.255 1098.26 693.703 1098.26 694.254V697.642C1098.26 697.978 1098.44 698.146 1098.79 698.146C1098.97 698.146 1099.14 698.123 1099.31 698.076L1099.25 698.958C1099.07 699.051 1098.82 699.098 1098.52 699.098C1098.18 699.098 1097.88 699.014 1097.63 698.846C1097.39 698.678 1097.23 698.421 1097.15 698.076C1096.91 698.44 1096.58 698.711 1096.16 698.888C1095.74 699.056 1095.32 699.14 1094.91 699.14C1094.5 699.14 1094.12 699.07 1093.76 698.93C1093.41 698.79 1093.12 698.58 1092.91 698.3C1092.7 698.011 1092.6 697.656 1092.6 697.236C1092.6 696.713 1092.77 696.284 1093.12 695.948C1093.47 695.603 1093.96 695.369 1094.59 695.248L1097.14 694.744V694.478ZM1093.75 697.18C1093.75 697.469 1093.86 697.707 1094.09 697.894C1094.32 698.071 1094.65 698.16 1095.07 698.16C1095.43 698.16 1095.77 698.099 1096.07 697.978C1096.39 697.847 1096.65 697.656 1096.84 697.404C1097.04 697.143 1097.14 696.811 1097.14 696.41V695.668L1095.11 696.088C1094.65 696.181 1094.31 696.312 1094.09 696.48C1093.86 696.648 1093.75 696.881 1093.75 697.18ZM1103.1 689.62C1103.7 689.62 1104.23 689.718 1104.69 689.914C1105.15 690.101 1105.52 690.371 1105.78 690.726C1106.04 691.081 1106.17 691.505 1106.17 692C1106.17 692.541 1106.05 692.999 1105.81 693.372C1105.57 693.736 1105.25 694.016 1104.85 694.212C1104.46 694.408 1104.02 694.534 1103.54 694.59V696.088H1102.38V693.988C1103.31 693.848 1103.98 693.638 1104.38 693.358C1104.79 693.078 1104.99 692.672 1104.99 692.14C1104.99 691.701 1104.83 691.347 1104.5 691.076C1104.18 690.805 1103.68 690.67 1103.02 690.67C1102.4 690.67 1101.9 690.843 1101.51 691.188C1101.12 691.524 1100.9 691.986 1100.82 692.574L1099.83 692C1099.99 691.281 1100.35 690.707 1100.92 690.278C1101.5 689.839 1102.23 689.62 1103.1 689.62ZM1102.94 697.32C1103.21 697.32 1103.43 697.404 1103.59 697.572C1103.76 697.74 1103.85 697.959 1103.85 698.23C1103.85 698.501 1103.76 698.72 1103.59 698.888C1103.43 699.056 1103.21 699.14 1102.94 699.14C1102.66 699.14 1102.45 699.056 1102.28 698.888C1102.11 698.72 1102.03 698.501 1102.03 698.23C1102.03 697.959 1102.11 697.74 1102.28 697.572C1102.45 697.404 1102.66 697.32 1102.94 697.32ZM1121.02 696.172C1120.85 696.891 1120.56 697.469 1120.15 697.908C1119.75 698.347 1119.26 698.664 1118.68 698.86C1118.1 699.047 1117.46 699.14 1116.75 699.14C1115.78 699.14 1114.94 698.953 1114.23 698.58C1113.53 698.207 1112.99 697.665 1112.61 696.956C1112.23 696.247 1112.05 695.388 1112.05 694.38C1112.05 693.372 1112.23 692.513 1112.61 691.804C1112.99 691.095 1113.53 690.553 1114.23 690.18C1114.94 689.807 1115.78 689.62 1116.75 689.62C1117.43 689.62 1118.07 689.718 1118.65 689.914C1119.24 690.101 1119.74 690.399 1120.14 690.81C1120.55 691.221 1120.82 691.757 1120.95 692.42L1118.15 693.512C1118.08 692.905 1117.92 692.513 1117.69 692.336C1117.46 692.159 1117.18 692.07 1116.83 692.07C1116.35 692.07 1115.99 692.257 1115.74 692.63C1115.5 692.994 1115.38 693.577 1115.38 694.38C1115.38 695.173 1115.49 695.757 1115.71 696.13C1115.95 696.503 1116.34 696.69 1116.9 696.69C1117.24 696.69 1117.52 696.592 1117.73 696.396C1117.95 696.191 1118.08 695.869 1118.14 695.43L1121.02 696.172ZM1125.46 694.632C1125.46 694.175 1125.25 693.946 1124.85 693.946C1124.66 693.946 1124.49 694.002 1124.36 694.114C1124.23 694.226 1124.16 694.45 1124.14 694.786L1121.42 694.394C1121.49 693.619 1121.82 693.003 1122.43 692.546C1123.04 692.089 1123.92 691.86 1125.08 691.86C1126.29 691.86 1127.19 692.107 1127.77 692.602C1128.35 693.087 1128.65 693.731 1128.65 694.534V696.704C1128.65 697.087 1128.83 697.278 1129.19 697.278C1129.3 697.278 1129.38 697.264 1129.43 697.236L1129.29 698.888C1128.95 699.056 1128.53 699.14 1128.05 699.14C1127.5 699.14 1127.04 699.047 1126.66 698.86C1126.28 698.673 1126.02 698.389 1125.89 698.006C1125.7 698.342 1125.41 698.617 1125.01 698.832C1124.61 699.037 1124.15 699.14 1123.64 699.14C1122.9 699.14 1122.33 698.977 1121.93 698.65C1121.54 698.314 1121.34 697.857 1121.34 697.278C1121.34 696.765 1121.5 696.349 1121.83 696.032C1122.16 695.705 1122.63 695.481 1123.24 695.36L1125.46 694.898V694.632ZM1124.36 696.802C1124.36 696.951 1124.41 697.073 1124.5 697.166C1124.6 697.259 1124.73 697.306 1124.9 697.306C1125.05 697.306 1125.18 697.25 1125.29 697.138C1125.4 697.026 1125.46 696.867 1125.46 696.662V696.046L1124.91 696.172C1124.55 696.265 1124.36 696.475 1124.36 696.802ZM1132.29 699.14C1131.43 699.14 1130.77 698.827 1130.3 698.202C1129.84 697.567 1129.61 696.681 1129.61 695.542C1129.61 694.375 1129.85 693.47 1130.31 692.826C1130.79 692.182 1131.45 691.86 1132.3 691.86C1132.79 691.86 1133.19 691.981 1133.52 692.224C1133.85 692.457 1134.1 692.77 1134.28 693.162V689.2H1137.5V699H1134.6L1134.5 697.614C1134.3 698.071 1134.02 698.44 1133.65 698.72C1133.27 699 1132.82 699.14 1132.29 699.14ZM1133.59 696.886C1133.8 696.886 1133.97 696.779 1134.09 696.564C1134.22 696.34 1134.28 695.985 1134.28 695.5C1134.28 694.585 1134.05 694.128 1133.59 694.128C1133.37 694.128 1133.19 694.221 1133.06 694.408C1132.93 694.585 1132.86 694.949 1132.86 695.5C1132.86 696.051 1132.93 696.419 1133.06 696.606C1133.19 696.793 1133.37 696.886 1133.59 696.886ZM1142.38 694.632C1142.38 694.175 1142.18 693.946 1141.78 693.946C1141.58 693.946 1141.42 694.002 1141.29 694.114C1141.16 694.226 1141.08 694.45 1141.07 694.786L1138.35 694.394C1138.41 693.619 1138.75 693.003 1139.36 692.546C1139.96 692.089 1140.85 691.86 1142 691.86C1143.22 691.86 1144.11 692.107 1144.69 692.602C1145.28 693.087 1145.57 693.731 1145.57 694.534V696.704C1145.57 697.087 1145.76 697.278 1146.12 697.278C1146.22 697.278 1146.3 697.264 1146.36 697.236L1146.22 698.888C1145.87 699.056 1145.46 699.14 1144.97 699.14C1144.43 699.14 1143.97 699.047 1143.59 698.86C1143.2 698.673 1142.95 698.389 1142.82 698.006C1142.63 698.342 1142.33 698.617 1141.93 698.832C1141.53 699.037 1141.07 699.14 1140.56 699.14C1139.82 699.14 1139.25 698.977 1138.85 698.65C1138.46 698.314 1138.27 697.857 1138.27 697.278C1138.27 696.765 1138.43 696.349 1138.76 696.032C1139.08 695.705 1139.55 695.481 1140.17 695.36L1142.38 694.898V694.632ZM1141.29 696.802C1141.29 696.951 1141.34 697.073 1141.43 697.166C1141.52 697.259 1141.65 697.306 1141.82 697.306C1141.98 697.306 1142.11 697.25 1142.21 697.138C1142.33 697.026 1142.38 696.867 1142.38 696.662V696.046L1141.84 696.172C1141.47 696.265 1141.29 696.475 1141.29 696.802ZM1150.04 699.14C1149.36 699.14 1148.7 699.047 1148.06 698.86C1147.44 698.673 1146.89 698.393 1146.43 698.02L1147.57 696.354C1147.83 696.578 1148.16 696.779 1148.57 696.956C1148.98 697.124 1149.39 697.208 1149.8 697.208C1149.96 697.208 1150.1 697.189 1150.22 697.152C1150.35 697.115 1150.42 697.049 1150.42 696.956C1150.42 696.881 1150.38 696.825 1150.3 696.788C1150.24 696.751 1150.09 696.713 1149.86 696.676L1149.35 696.578C1148.33 696.382 1147.62 696.102 1147.2 695.738C1146.78 695.374 1146.57 694.884 1146.57 694.268C1146.57 693.885 1146.69 693.512 1146.93 693.148C1147.18 692.775 1147.58 692.467 1148.12 692.224C1148.66 691.981 1149.37 691.86 1150.26 691.86C1150.99 691.86 1151.64 691.953 1152.22 692.14C1152.8 692.317 1153.27 692.565 1153.64 692.882L1152.53 694.478C1152.27 694.273 1151.93 694.109 1151.52 693.988C1151.12 693.857 1150.75 693.792 1150.42 693.792C1150.18 693.792 1150.02 693.815 1149.93 693.862C1149.83 693.899 1149.79 693.951 1149.79 694.016C1149.79 694.081 1149.83 694.142 1149.93 694.198C1150.02 694.254 1150.2 694.305 1150.47 694.352L1151.47 694.52C1152.22 694.641 1152.77 694.884 1153.12 695.248C1153.47 695.612 1153.65 696.06 1153.65 696.592C1153.65 697.049 1153.52 697.474 1153.27 697.866C1153.03 698.249 1152.64 698.557 1152.11 698.79C1151.59 699.023 1150.9 699.14 1150.04 699.14ZM1159.91 692V694.17H1158.14V696.144C1158.14 696.461 1158.21 696.69 1158.34 696.83C1158.48 696.961 1158.7 697.026 1158.98 697.026C1159.33 697.026 1159.62 696.965 1159.87 696.844L1160.01 698.664C1159.77 698.813 1159.46 698.93 1159.05 699.014C1158.65 699.098 1158.28 699.14 1157.92 699.14C1156.94 699.14 1156.19 698.953 1155.68 698.58C1155.18 698.197 1154.92 697.553 1154.92 696.648V694.17H1153.85V692H1154.92V690.516L1158.14 689.62V692H1159.91ZM1160.64 699V692H1163.54L1163.61 693.75C1163.77 693.171 1164.01 692.714 1164.34 692.378C1164.67 692.033 1165.12 691.86 1165.67 691.86C1165.88 691.86 1166.04 691.879 1166.16 691.916C1166.27 691.953 1166.35 691.991 1166.39 692.028L1166.13 694.618C1166.04 694.581 1165.92 694.548 1165.76 694.52C1165.61 694.492 1165.43 694.478 1165.25 694.478C1164.83 694.478 1164.49 694.576 1164.24 694.772C1163.99 694.968 1163.86 695.257 1163.86 695.64V699H1160.64ZM1170.6 699.14C1169.33 699.14 1168.34 698.823 1167.64 698.188C1166.94 697.553 1166.59 696.657 1166.59 695.5C1166.59 694.725 1166.75 694.067 1167.07 693.526C1167.4 692.985 1167.85 692.574 1168.43 692.294C1169.02 692.005 1169.7 691.86 1170.47 691.86C1171.27 691.86 1171.94 692.005 1172.49 692.294C1173.05 692.574 1173.47 692.971 1173.76 693.484C1174.05 693.997 1174.2 694.595 1174.2 695.276C1174.2 695.425 1174.19 695.579 1174.17 695.738C1174.16 695.897 1174.15 696.023 1174.13 696.116H1169.67C1169.72 696.48 1169.82 696.718 1169.98 696.83C1170.14 696.942 1170.36 696.998 1170.64 696.998C1171.1 696.998 1171.38 696.797 1171.48 696.396L1174.07 697.096C1173.97 697.553 1173.74 697.936 1173.38 698.244C1173.03 698.543 1172.61 698.767 1172.11 698.916C1171.63 699.065 1171.12 699.14 1170.6 699.14ZM1170.49 693.988C1170.24 693.988 1170.06 694.058 1169.93 694.198C1169.81 694.329 1169.72 694.571 1169.67 694.926H1171.19C1171.16 694.618 1171.09 694.385 1170.99 694.226C1170.89 694.067 1170.72 693.988 1170.49 693.988ZM1180.95 693.974V696.424H1175.49V693.974H1180.95ZM1185.76 699.14C1185.08 699.14 1184.42 699.047 1183.79 698.86C1183.16 698.673 1182.62 698.393 1182.15 698.02L1183.3 696.354C1183.55 696.578 1183.88 696.779 1184.29 696.956C1184.7 697.124 1185.11 697.208 1185.52 697.208C1185.68 697.208 1185.82 697.189 1185.94 697.152C1186.07 697.115 1186.14 697.049 1186.14 696.956C1186.14 696.881 1186.1 696.825 1186.03 696.788C1185.96 696.751 1185.81 696.713 1185.58 696.676L1185.08 696.578C1184.06 696.382 1183.34 696.102 1182.92 695.738C1182.5 695.374 1182.29 694.884 1182.29 694.268C1182.29 693.885 1182.41 693.512 1182.65 693.148C1182.91 692.775 1183.3 692.467 1183.84 692.224C1184.39 691.981 1185.1 691.86 1185.99 691.86C1186.71 691.86 1187.37 691.953 1187.95 692.14C1188.52 692.317 1189 692.565 1189.36 692.882L1188.25 694.478C1187.99 694.273 1187.66 694.109 1187.25 693.988C1186.84 693.857 1186.48 693.792 1186.14 693.792C1185.91 693.792 1185.74 693.815 1185.65 693.862C1185.56 693.899 1185.51 693.951 1185.51 694.016C1185.51 694.081 1185.56 694.142 1185.65 694.198C1185.74 694.254 1185.93 694.305 1186.2 694.352L1187.19 694.52C1187.95 694.641 1188.5 694.884 1188.84 695.248C1189.2 695.612 1189.37 696.06 1189.37 696.592C1189.37 697.049 1189.25 697.474 1189 697.866C1188.75 698.249 1188.37 698.557 1187.83 698.79C1187.31 699.023 1186.62 699.14 1185.76 699.14ZM1193.74 699.14C1192.48 699.14 1191.49 698.823 1190.79 698.188C1190.09 697.553 1189.74 696.657 1189.74 695.5C1189.74 694.725 1189.9 694.067 1190.22 693.526C1190.54 692.985 1191 692.574 1191.57 692.294C1192.16 692.005 1192.84 691.86 1193.62 691.86C1194.41 691.86 1195.08 692.005 1195.63 692.294C1196.19 692.574 1196.62 692.971 1196.91 693.484C1197.2 693.997 1197.34 694.595 1197.34 695.276C1197.34 695.425 1197.33 695.579 1197.31 695.738C1197.31 695.897 1197.29 696.023 1197.27 696.116H1192.82C1192.87 696.48 1192.97 696.718 1193.13 696.83C1193.29 696.942 1193.51 696.998 1193.79 696.998C1194.24 696.998 1194.52 696.797 1194.63 696.396L1197.22 697.096C1197.11 697.553 1196.89 697.936 1196.53 698.244C1196.18 698.543 1195.75 698.767 1195.26 698.916C1194.77 699.065 1194.27 699.14 1193.74 699.14ZM1193.63 693.988C1193.39 693.988 1193.2 694.058 1193.07 694.198C1192.95 694.329 1192.87 694.571 1192.82 694.926H1194.33C1194.3 694.618 1194.24 694.385 1194.14 694.226C1194.03 694.067 1193.87 693.988 1193.63 693.988ZM1205.42 694.632C1205.42 694.175 1205.22 693.946 1204.82 693.946C1204.62 693.946 1204.46 694.002 1204.33 694.114C1204.2 694.226 1204.12 694.45 1204.11 694.786L1201.39 694.394C1201.46 693.619 1201.79 693.003 1202.4 692.546C1203 692.089 1203.89 691.86 1205.04 691.86C1206.26 691.86 1207.15 692.107 1207.73 692.602C1208.32 693.087 1208.61 693.731 1208.61 694.534V696.704C1208.61 697.087 1208.8 697.278 1209.16 697.278C1209.26 697.278 1209.34 697.264 1209.4 697.236L1209.26 698.888C1208.91 699.056 1208.5 699.14 1208.01 699.14C1207.47 699.14 1207.01 699.047 1206.63 698.86C1206.24 698.673 1205.99 698.389 1205.86 698.006C1205.67 698.342 1205.38 698.617 1204.97 698.832C1204.57 699.037 1204.12 699.14 1203.6 699.14C1202.86 699.14 1202.3 698.977 1201.89 698.65C1201.5 698.314 1201.31 697.857 1201.31 697.278C1201.31 696.765 1201.47 696.349 1201.8 696.032C1202.12 695.705 1202.59 695.481 1203.21 695.36L1205.42 694.898V694.632ZM1204.33 696.802C1204.33 696.951 1204.38 697.073 1204.47 697.166C1204.56 697.259 1204.69 697.306 1204.86 697.306C1205.02 697.306 1205.15 697.25 1205.25 697.138C1205.37 697.026 1205.42 696.867 1205.42 696.662V696.046L1204.88 696.172C1204.51 696.265 1204.33 696.475 1204.33 696.802ZM1214.24 701.94V697.838C1214.07 698.23 1213.81 698.547 1213.49 698.79C1213.16 699.023 1212.75 699.14 1212.27 699.14C1211.42 699.14 1210.76 698.818 1210.28 698.174C1209.81 697.53 1209.58 696.625 1209.58 695.458C1209.58 694.319 1209.81 693.437 1210.27 692.812C1210.73 692.177 1211.4 691.86 1212.25 691.86C1212.79 691.86 1213.24 692 1213.61 692.28C1213.99 692.56 1214.27 692.933 1214.47 693.4L1214.54 692H1217.46V701.94H1214.24ZM1213.56 696.872C1214.01 696.872 1214.24 696.415 1214.24 695.5C1214.24 695.015 1214.18 694.665 1214.06 694.45C1213.94 694.226 1213.77 694.114 1213.56 694.114C1213.33 694.114 1213.16 694.207 1213.02 694.394C1212.89 694.581 1212.83 694.949 1212.83 695.5C1212.83 696.051 1212.89 696.419 1213.02 696.606C1213.16 696.783 1213.33 696.872 1213.56 696.872ZM1220.81 699.14C1220.08 699.14 1219.52 698.953 1219.13 698.58C1218.74 698.197 1218.54 697.581 1218.54 696.732V692H1221.76V695.99C1221.76 696.261 1221.8 696.457 1221.89 696.578C1221.98 696.699 1222.11 696.76 1222.29 696.76C1222.71 696.76 1222.92 696.41 1222.92 695.71V692H1226.14V699H1223.24L1223.17 697.516C1222.76 698.599 1221.97 699.14 1220.81 699.14ZM1228.85 691.552C1228.21 691.552 1227.76 691.449 1227.49 691.244C1227.23 691.039 1227.1 690.693 1227.1 690.208C1227.1 689.713 1227.23 689.368 1227.49 689.172C1227.76 688.967 1228.21 688.864 1228.85 688.864C1229.48 688.864 1229.93 688.967 1230.19 689.172C1230.46 689.368 1230.6 689.713 1230.6 690.208C1230.6 690.693 1230.46 691.039 1230.19 691.244C1229.93 691.449 1229.48 691.552 1228.85 691.552ZM1230.46 692V699H1227.24V692H1230.46Z" fill="#EEEEEE"/>
<path d="M1049.8 363.368H1040.92V367.952H1047.88V370.184H1040.92V377H1038.35V361.16H1049.8V363.368ZM1049.51 377L1055.49 361.16H1058.56L1064.54 377H1061.82L1060.34 372.848H1053.66L1052.15 377H1049.51ZM1056.28 365.624L1054.41 370.76H1059.57L1057.74 365.672L1057.02 363.392H1056.95L1056.28 365.624ZM1079.91 372.8C1079.43 374.24 1078.61 375.344 1077.44 376.112C1076.27 376.864 1074.91 377.24 1073.36 377.24C1071.82 377.24 1070.49 376.912 1069.37 376.256C1068.27 375.6 1067.41 374.664 1066.81 373.448C1066.2 372.216 1065.89 370.76 1065.89 369.08C1065.89 367.4 1066.2 365.952 1066.81 364.736C1067.41 363.504 1068.27 362.56 1069.37 361.904C1070.49 361.248 1071.81 360.92 1073.33 360.92C1074.9 360.92 1076.23 361.248 1077.32 361.904C1078.41 362.56 1079.19 363.528 1079.67 364.808L1077.25 365.888C1076.64 364.064 1075.38 363.152 1073.48 363.152C1071.99 363.152 1070.8 363.672 1069.9 364.712C1069.02 365.736 1068.58 367.192 1068.58 369.08C1068.58 370.952 1069.01 372.408 1069.85 373.448C1070.7 374.488 1071.89 375.008 1073.41 375.008C1074.38 375.008 1075.22 374.76 1075.93 374.264C1076.65 373.752 1077.16 372.992 1077.46 371.984L1079.91 372.8ZM1071.77 376.856L1072.78 376.256C1073.81 376.512 1074.55 376.896 1075.01 377.408C1075.48 377.936 1075.71 378.568 1075.71 379.304C1075.71 380.12 1075.42 380.8 1074.85 381.344C1074.29 381.888 1073.56 382.16 1072.66 382.16C1072.13 382.16 1071.68 382.088 1071.29 381.944C1070.93 381.816 1070.61 381.656 1070.33 381.464L1070.86 379.904C1071.07 380.048 1071.29 380.168 1071.53 380.264C1071.77 380.376 1072.07 380.432 1072.42 380.432C1072.85 380.432 1073.21 380.296 1073.48 380.024C1073.77 379.752 1073.91 379.352 1073.91 378.824C1073.91 378.424 1073.75 378.072 1073.43 377.768C1073.13 377.48 1072.57 377.176 1071.77 376.856ZM1081.32 377L1087.29 361.16H1090.36L1096.34 377H1093.63L1092.14 372.848H1085.47L1083.96 377H1081.32ZM1088.08 365.624L1086.21 370.76H1091.37L1089.55 365.672L1088.83 363.392H1088.76L1088.08 365.624ZM1111.51 360.92C1112.93 360.92 1114.17 361.192 1115.21 361.736C1116.25 362.264 1117.13 363.048 1117.85 364.088L1116.12 365.744C1115.51 364.816 1114.82 364.152 1114.05 363.752C1113.3 363.336 1112.41 363.128 1111.37 363.128C1110.2 363.128 1109.35 363.352 1108.82 363.8C1108.29 364.248 1108.03 364.792 1108.03 365.432C1108.03 365.928 1108.2 366.36 1108.53 366.728C1108.89 367.096 1109.53 367.384 1110.48 367.592L1113.69 368.312C1115.21 368.664 1116.29 369.184 1116.93 369.872C1117.59 370.544 1117.92 371.408 1117.92 372.464C1117.92 373.44 1117.65 374.288 1117.13 375.008C1116.6 375.712 1115.86 376.264 1114.92 376.664C1113.97 377.048 1112.88 377.24 1111.63 377.24C1109.95 377.24 1108.52 376.928 1107.33 376.304C1106.15 375.664 1105.24 374.872 1104.6 373.928L1106.37 372.152C1106.87 373 1107.57 373.696 1108.46 374.24C1109.37 374.768 1110.45 375.032 1111.7 375.032C1112.81 375.032 1113.67 374.84 1114.29 374.456C1114.93 374.056 1115.25 373.488 1115.25 372.752C1115.25 372.304 1115.09 371.904 1114.77 371.552C1114.47 371.184 1113.89 370.904 1113.05 370.712L1109.57 369.92C1108.13 369.616 1107.06 369.112 1106.37 368.408C1105.69 367.704 1105.34 366.824 1105.34 365.768C1105.34 364.872 1105.59 364.056 1106.09 363.32C1106.58 362.584 1107.29 362 1108.2 361.568C1109.13 361.136 1110.23 360.92 1111.51 360.92ZM1121.51 377V361.16H1132.98V363.368H1124.08V367.928H1131.04V370.088H1124.08V374.792H1133.32V377H1121.51ZM1149.39 361.16V370.928C1149.39 373.024 1148.84 374.6 1147.73 375.656C1146.63 376.712 1145.02 377.24 1142.91 377.24C1140.83 377.24 1139.23 376.712 1138.11 375.656C1137.01 374.6 1136.45 373.024 1136.45 370.928V361.16H1139.02V370.616C1139.02 372.12 1139.33 373.232 1139.96 373.952C1140.6 374.656 1141.58 375.008 1142.91 375.008C1144.25 375.008 1145.24 374.656 1145.86 373.952C1146.5 373.232 1146.82 372.12 1146.82 370.616V361.16H1149.39ZM1164.15 374.792H1172.89V377H1161.59V361.16H1164.15V374.792ZM1181.99 360.92C1183.53 360.92 1184.85 361.248 1185.97 361.904C1187.09 362.56 1187.96 363.504 1188.57 364.736C1189.17 365.952 1189.48 367.4 1189.48 369.08C1189.48 370.76 1189.17 372.216 1188.57 373.448C1187.96 374.664 1187.09 375.6 1185.97 376.256C1184.85 376.912 1183.53 377.24 1181.99 377.24C1180.45 377.24 1179.13 376.912 1178.01 376.256C1176.9 375.6 1176.05 374.664 1175.44 373.448C1174.83 372.216 1174.53 370.76 1174.53 369.08C1174.53 367.4 1174.83 365.952 1175.44 364.736C1176.05 363.504 1176.9 362.56 1178.01 361.904C1179.13 361.248 1180.45 360.92 1181.99 360.92ZM1181.99 363.152C1180.5 363.152 1179.33 363.672 1178.49 364.712C1177.64 365.736 1177.21 367.192 1177.21 369.08C1177.21 370.968 1177.64 372.432 1178.49 373.472C1179.33 374.496 1180.5 375.008 1181.99 375.008C1183.49 375.008 1184.67 374.496 1185.52 373.472C1186.37 372.432 1186.79 370.968 1186.79 369.08C1186.79 367.192 1186.37 365.736 1185.52 364.712C1184.67 363.672 1183.49 363.152 1181.99 363.152ZM1199.73 377.24C1198.24 377.24 1196.95 376.912 1195.84 376.256C1194.75 375.6 1193.91 374.664 1193.3 373.448C1192.71 372.232 1192.41 370.776 1192.41 369.08C1192.41 367.4 1192.73 365.952 1193.37 364.736C1194.01 363.52 1194.9 362.584 1196.03 361.928C1197.19 361.256 1198.52 360.92 1200.04 360.92C1201.69 360.92 1203.02 361.232 1204.03 361.856C1205.05 362.464 1205.87 363.4 1206.47 364.664L1204.1 365.792C1203.79 364.912 1203.29 364.256 1202.59 363.824C1201.9 363.376 1201.06 363.152 1200.07 363.152C1198.58 363.152 1197.38 363.672 1196.47 364.712C1195.55 365.752 1195.1 367.208 1195.1 369.08C1195.1 370.984 1195.51 372.456 1196.35 373.496C1197.19 374.52 1198.43 375.032 1200.07 375.032C1201.25 375.032 1202.25 374.736 1203.07 374.144C1203.88 373.536 1204.29 372.616 1204.29 371.384V370.928H1199.68V368.84H1206.57V377H1204.65L1204.55 374.912C1204.09 375.664 1203.45 376.24 1202.63 376.64C1201.83 377.04 1200.87 377.24 1199.73 377.24ZM1213.23 361.16V377H1210.66V361.16H1213.23ZM1230.91 361.16V377H1227.87L1221.75 367.016L1220.21 364.208H1220.19L1220.28 366.776V377H1217.93V361.16H1220.95L1227.05 371.12L1228.61 373.976H1228.63L1228.54 371.384V361.16H1230.91Z" fill="#EDE7CF"/>
<rect x="992" y="412" width="285" height="64" rx="10" fill="#9F9595"/>
<rect x="992" y="412" width="285" height="64" rx="10" fill="#9F9595"/>
<rect x="992" y="412" width="285" height="64" rx="10" fill="#9F9595"/>
<rect x="992" y="412" width="285" height="64" rx="10" fill="#EFECEC"/>
<path d="M1025.59 452V436.16H1036.7V437.96H1027.51V443.072H1034.66V444.872H1027.51V450.2H1037.06V452H1025.59ZM1047.24 444.728V446.72H1039.32V444.728H1047.24ZM1051.62 452V440H1053.3L1053.42 441.872C1053.85 441.136 1054.41 440.6 1055.1 440.264C1055.81 439.928 1056.53 439.76 1057.26 439.76C1058.11 439.76 1058.91 439.952 1059.66 440.336C1060.41 440.72 1060.99 441.312 1061.39 442.112C1061.65 441.568 1062.01 441.128 1062.47 440.792C1062.93 440.44 1063.44 440.184 1063.98 440.024C1064.54 439.848 1065.07 439.76 1065.57 439.76C1066.33 439.76 1067.06 439.92 1067.75 440.24C1068.45 440.56 1069.03 441.056 1069.48 441.728C1069.93 442.4 1070.15 443.264 1070.15 444.32V452H1068.23V444.512C1068.23 443.424 1067.96 442.64 1067.41 442.16C1066.87 441.68 1066.2 441.44 1065.4 441.44C1064.77 441.44 1064.19 441.592 1063.65 441.896C1063.1 442.2 1062.66 442.648 1062.33 443.24C1062.01 443.832 1061.85 444.56 1061.85 445.424V452H1059.93V444.512C1059.93 443.424 1059.65 442.64 1059.11 442.16C1058.57 441.68 1057.89 441.44 1057.09 441.44C1056.57 441.44 1056.02 441.584 1055.46 441.872C1054.92 442.144 1054.46 442.584 1054.09 443.192C1053.73 443.8 1053.54 444.6 1053.54 445.592V452H1051.62ZM1081.51 444.248C1081.51 443.352 1081.27 442.664 1080.79 442.184C1080.31 441.688 1079.63 441.44 1078.75 441.44C1077.91 441.44 1077.21 441.624 1076.63 441.992C1076.06 442.344 1075.63 442.92 1075.36 443.72L1073.8 442.76C1074.12 441.864 1074.71 441.144 1075.58 440.6C1076.44 440.04 1077.51 439.76 1078.79 439.76C1079.66 439.76 1080.44 439.912 1081.15 440.216C1081.85 440.504 1082.4 440.952 1082.8 441.56C1083.22 442.152 1083.43 442.92 1083.43 443.864V449.672C1083.43 450.248 1083.73 450.536 1084.34 450.536C1084.64 450.536 1084.94 450.496 1085.23 450.416L1085.13 451.928C1084.81 452.088 1084.39 452.168 1083.88 452.168C1083.29 452.168 1082.78 452.024 1082.35 451.736C1081.93 451.448 1081.66 451.008 1081.53 450.416C1081.11 451.04 1080.55 451.504 1079.83 451.808C1079.11 452.096 1078.39 452.24 1077.69 452.24C1076.99 452.24 1076.33 452.12 1075.72 451.88C1075.11 451.64 1074.63 451.28 1074.26 450.8C1073.91 450.304 1073.73 449.696 1073.73 448.976C1073.73 448.08 1074.03 447.344 1074.62 446.768C1075.23 446.176 1076.07 445.776 1077.14 445.568L1081.51 444.704V444.248ZM1075.7 448.88C1075.7 449.376 1075.89 449.784 1076.27 450.104C1076.67 450.408 1077.23 450.56 1077.95 450.56C1078.58 450.56 1079.15 450.456 1079.68 450.248C1080.23 450.024 1080.67 449.696 1081 449.264C1081.34 448.816 1081.51 448.248 1081.51 447.56V446.288L1078.03 447.008C1077.24 447.168 1076.66 447.392 1076.27 447.68C1075.89 447.968 1075.7 448.368 1075.7 448.88ZM1089.05 437.696C1088.62 437.696 1088.27 437.568 1088 437.312C1087.74 437.04 1087.61 436.688 1087.61 436.256C1087.61 435.824 1087.74 435.48 1088 435.224C1088.27 434.952 1088.62 434.816 1089.05 434.816C1089.48 434.816 1089.83 434.952 1090.08 435.224C1090.36 435.48 1090.49 435.824 1090.49 436.256C1090.49 436.688 1090.36 437.04 1090.08 437.312C1089.83 437.568 1089.48 437.696 1089.05 437.696ZM1090.01 440V452H1088.09V440H1090.01ZM1096.29 434.48V448.952C1096.29 449.56 1096.4 449.984 1096.63 450.224C1096.85 450.448 1097.21 450.56 1097.71 450.56C1098.03 450.56 1098.29 450.536 1098.5 450.488C1098.71 450.44 1098.99 450.352 1099.34 450.224L1099.03 451.904C1098.5 452.128 1097.91 452.24 1097.25 452.24C1095.33 452.24 1094.37 451.168 1094.37 449.024V434.48H1096.29Z" fill="#363434"/>
<rect x="992" y="509" width="285" height="64" rx="10" fill="#9F9595"/>
<rect x="992" y="509" width="285" height="64" rx="10" fill="#9F9595"/>
<rect x="992" y="509" width="285" height="64" rx="10" fill="#9F9595"/>
<rect x="992" y="509" width="285" height="64" rx="10" fill="#EFECEC"/>
<rect x="992" y="606" width="285" height="64" rx="10" fill="#9F9595"/>
<rect x="992" y="606" width="285" height="64" rx="10" fill="#9F9595"/>
<rect x="992" y="606" width="285" height="64" rx="10" fill="#9F9595"/>
<rect x="992" y="606" width="285" height="64" rx="10" fill="#62929A"/>
<path d="M1031.68 532.92C1033.07 532.92 1034.27 533.208 1035.28 533.784C1036.29 534.344 1037.13 535.176 1037.8 536.28L1036.19 537.528C1035.6 536.504 1034.93 535.784 1034.18 535.368C1033.44 534.936 1032.54 534.72 1031.49 534.72C1030.21 534.72 1029.27 534.976 1028.68 535.488C1028.09 536 1027.79 536.624 1027.79 537.36C1027.79 537.92 1027.97 538.416 1028.32 538.848C1028.67 539.264 1029.38 539.592 1030.43 539.832L1033.86 540.6C1035.38 540.936 1036.44 541.448 1037.03 542.136C1037.64 542.808 1037.94 543.648 1037.94 544.656C1037.94 545.552 1037.69 546.352 1037.18 547.056C1036.68 547.744 1035.98 548.28 1035.06 548.664C1034.15 549.048 1033.08 549.24 1031.85 549.24C1030.14 549.24 1028.72 548.904 1027.6 548.232C1026.48 547.544 1025.62 546.712 1025.03 545.736L1026.71 544.368C1027.18 545.28 1027.83 546.024 1028.68 546.6C1029.54 547.16 1030.64 547.44 1031.97 547.44C1033.2 547.44 1034.17 547.216 1034.87 546.768C1035.59 546.32 1035.95 545.672 1035.95 544.824C1035.95 544.312 1035.78 543.856 1035.45 543.456C1035.11 543.04 1034.48 542.728 1033.55 542.52L1029.83 541.68C1028.36 541.36 1027.31 540.84 1026.69 540.12C1026.08 539.4 1025.78 538.568 1025.78 537.624C1025.78 536.776 1026.01 536 1026.47 535.296C1026.95 534.576 1027.63 534 1028.51 533.568C1029.41 533.136 1030.46 532.92 1031.68 532.92ZM1046.62 549.24C1045.49 549.24 1044.47 548.992 1043.58 548.496C1042.7 548 1042.01 547.288 1041.51 546.36C1041.02 545.416 1040.77 544.296 1040.77 543C1040.77 541.704 1041.02 540.592 1041.51 539.664C1042.01 538.72 1042.69 538 1043.55 537.504C1044.42 537.008 1045.4 536.76 1046.5 536.76C1047.62 536.76 1048.58 537 1049.36 537.48C1050.16 537.96 1050.77 538.616 1051.18 539.448C1051.6 540.264 1051.81 541.184 1051.81 542.208C1051.81 542.48 1051.8 542.728 1051.78 542.952C1051.77 543.176 1051.74 543.376 1051.71 543.552H1042.66C1042.76 544.816 1043.15 545.8 1043.84 546.504C1044.53 547.208 1045.44 547.56 1046.58 547.56C1047.46 547.56 1048.17 547.392 1048.71 547.056C1049.27 546.72 1049.72 546.264 1050.06 545.688L1051.57 546.576C1051.12 547.392 1050.47 548.04 1049.62 548.52C1048.79 549 1047.79 549.24 1046.62 549.24ZM1046.46 538.44C1045.45 538.44 1044.62 538.744 1043.96 539.352C1043.32 539.944 1042.91 540.776 1042.74 541.848H1049.89C1049.84 540.76 1049.5 539.92 1048.88 539.328C1048.26 538.736 1047.45 538.44 1046.46 538.44ZM1055.46 549V537H1057.14L1057.26 538.872C1057.67 538.12 1058.24 537.584 1058.96 537.264C1059.68 536.928 1060.46 536.76 1061.29 536.76C1062.15 536.76 1062.94 536.928 1063.64 537.264C1064.35 537.584 1064.91 538.08 1065.32 538.752C1065.75 539.424 1065.97 540.28 1065.97 541.32V549H1064.05V541.992C1064.05 540.664 1063.76 539.744 1063.19 539.232C1062.63 538.704 1061.93 538.44 1061.1 538.44C1060.52 538.44 1059.95 538.576 1059.37 538.848C1058.79 539.12 1058.31 539.56 1057.93 540.168C1057.56 540.776 1057.38 541.592 1057.38 542.616V549H1055.46ZM1070.32 549V531.48H1072.24V538.8C1072.65 538.08 1073.21 537.56 1073.89 537.24C1074.58 536.92 1075.33 536.76 1076.15 536.76C1077.01 536.76 1077.8 536.928 1078.5 537.264C1079.21 537.584 1079.77 538.08 1080.18 538.752C1080.61 539.424 1080.83 540.28 1080.83 541.32V549H1078.91V541.992C1078.91 540.664 1078.62 539.744 1078.05 539.232C1077.49 538.704 1076.79 538.44 1075.96 538.44C1075.38 538.44 1074.81 538.576 1074.23 538.848C1073.65 539.12 1073.17 539.568 1072.79 540.192C1072.42 540.8 1072.24 541.616 1072.24 542.64V549H1070.32ZM1092.19 541.248C1092.19 540.352 1091.95 539.664 1091.47 539.184C1090.99 538.688 1090.31 538.44 1089.43 538.44C1088.59 538.44 1087.89 538.624 1087.31 538.992C1086.74 539.344 1086.31 539.92 1086.04 540.72L1084.48 539.76C1084.8 538.864 1085.39 538.144 1086.26 537.6C1087.12 537.04 1088.19 536.76 1089.47 536.76C1090.34 536.76 1091.12 536.912 1091.83 537.216C1092.53 537.504 1093.08 537.952 1093.48 538.56C1093.9 539.152 1094.11 539.92 1094.11 540.864V546.672C1094.11 547.248 1094.41 547.536 1095.02 547.536C1095.32 547.536 1095.62 547.496 1095.91 547.416L1095.81 548.928C1095.49 549.088 1095.07 549.168 1094.56 549.168C1093.97 549.168 1093.46 549.024 1093.03 548.736C1092.61 548.448 1092.34 548.008 1092.21 547.416C1091.79 548.04 1091.23 548.504 1090.51 548.808C1089.79 549.096 1089.07 549.24 1088.37 549.24C1087.67 549.24 1087.01 549.12 1086.4 548.88C1085.79 548.64 1085.31 548.28 1084.94 547.8C1084.59 547.304 1084.41 546.696 1084.41 545.976C1084.41 545.08 1084.71 544.344 1085.3 543.768C1085.91 543.176 1086.75 542.776 1087.82 542.568L1092.19 541.704V541.248ZM1086.38 545.88C1086.38 546.376 1086.57 546.784 1086.95 547.104C1087.35 547.408 1087.91 547.56 1088.63 547.56C1089.26 547.56 1089.83 547.456 1090.36 547.248C1090.91 547.024 1091.35 546.696 1091.68 546.264C1092.02 545.816 1092.19 545.248 1092.19 544.56V543.288L1088.71 544.008C1087.92 544.168 1087.34 544.392 1086.95 544.68C1086.57 544.968 1086.38 545.368 1086.38 545.88Z" fill="#363434"/>
<path d="M1100.88 642.808H1108.82V646H1096.75V630.16H1100.88V642.808ZM1117.78 629.92C1119.38 629.92 1120.75 630.248 1121.91 630.904C1123.07 631.544 1123.97 632.472 1124.59 633.688C1125.22 634.904 1125.53 636.368 1125.53 638.08C1125.53 639.792 1125.22 641.256 1124.59 642.472C1123.97 643.688 1123.07 644.624 1121.91 645.28C1120.75 645.92 1119.38 646.24 1117.78 646.24C1116.16 646.24 1114.77 645.92 1113.6 645.28C1112.45 644.624 1111.56 643.688 1110.94 642.472C1110.31 641.256 1110 639.792 1110 638.08C1110 636.368 1110.31 634.904 1110.94 633.688C1111.56 632.472 1112.45 631.544 1113.6 630.904C1114.77 630.248 1116.16 629.92 1117.78 629.92ZM1117.78 633.16C1116.63 633.16 1115.75 633.576 1115.14 634.408C1114.53 635.224 1114.23 636.448 1114.23 638.08C1114.23 639.712 1114.53 640.944 1115.14 641.776C1115.75 642.592 1116.63 643 1117.78 643C1118.91 643 1119.79 642.592 1120.39 641.776C1121 640.944 1121.31 639.712 1121.31 638.08C1121.31 636.448 1121 635.224 1120.39 634.408C1119.79 633.576 1118.91 633.16 1117.78 633.16ZM1134.92 646.24C1133.51 646.24 1132.26 645.928 1131.15 645.304C1130.07 644.68 1129.22 643.76 1128.61 642.544C1128 641.328 1127.7 639.848 1127.7 638.104C1127.7 636.408 1128.02 634.952 1128.66 633.736C1129.3 632.504 1130.21 631.56 1131.39 630.904C1132.59 630.248 1134 629.92 1135.62 629.92C1137.43 629.92 1138.87 630.248 1139.96 630.904C1141.07 631.544 1141.92 632.568 1142.53 633.976L1138.71 635.488C1138.51 634.672 1138.14 634.08 1137.61 633.712C1137.08 633.344 1136.43 633.16 1135.64 633.16C1134.46 633.16 1133.54 633.584 1132.88 634.432C1132.24 635.264 1131.92 636.48 1131.92 638.08C1131.92 639.776 1132.25 641.04 1132.91 641.872C1133.56 642.688 1134.55 643.096 1135.86 643.096C1136.77 643.096 1137.53 642.88 1138.14 642.448C1138.75 642.016 1139.05 641.352 1139.05 640.456V640.216H1135.43V637.456H1142.55V646H1139.75L1139.58 644.056C1139.13 644.76 1138.51 645.304 1137.73 645.688C1136.96 646.056 1136.03 646.24 1134.92 646.24ZM1149.84 630.16V646H1145.71V630.16H1149.84ZM1167.63 630.16V646H1163.05L1158.13 637.432L1156.93 635.08H1156.91L1157 638.008V646H1153.35V630.16H1157.94L1162.86 638.728L1164.06 641.08H1164.08L1163.99 638.152V630.16H1167.63Z" fill="#EDE7CF"/>
<path d="M0 99H499.307L800.066 424.853C863.031 493.071 864.941 597.628 804.508 668.099L499.307 1024H0V99Z" fill="#5C5757"/>
<path d="M220.944 533.16C223.424 533.16 225.352 533.848 226.728 535.224C228.12 536.584 228.816 538.536 228.816 541.08C228.816 543.624 228.12 545.584 226.728 546.96C225.352 548.32 223.424 549 220.944 549H215.352V533.16H220.944ZM220.944 546.816C222.624 546.816 223.904 546.32 224.784 545.328C225.68 544.32 226.128 542.904 226.128 541.08C226.128 539.256 225.68 537.848 224.784 536.856C223.904 535.848 222.624 535.344 220.944 535.344H217.92V546.816H220.944ZM237.545 549.24C236.345 549.24 235.289 548.992 234.377 548.496C233.481 548 232.777 547.288 232.265 546.36C231.753 545.416 231.497 544.296 231.497 543C231.497 541.704 231.745 540.592 232.241 539.664C232.753 538.72 233.449 538 234.329 537.504C235.225 537.008 236.249 536.76 237.401 536.76C238.569 536.76 239.561 537 240.377 537.48C241.193 537.96 241.817 538.616 242.249 539.448C242.681 540.28 242.897 541.224 242.897 542.28C242.897 542.584 242.889 542.864 242.873 543.12C242.857 543.376 242.833 543.592 242.801 543.768H234.017C234.129 544.888 234.489 545.744 235.097 546.336C235.721 546.912 236.521 547.2 237.497 547.2C238.297 547.2 238.945 547.048 239.441 546.744C239.937 546.44 240.329 546.016 240.617 545.472L242.657 546.432C242.241 547.312 241.577 548 240.665 548.496C239.769 548.992 238.729 549.24 237.545 549.24ZM237.353 538.8C236.473 538.8 235.745 539.056 235.169 539.568C234.609 540.08 234.249 540.824 234.089 541.8H240.401C240.337 540.84 240.033 540.104 239.489 539.592C238.945 539.064 238.233 538.8 237.353 538.8ZM250.7 549.24C249.5 549.24 248.404 549.008 247.412 548.544C246.42 548.08 245.636 547.424 245.06 546.576L246.836 545.04C247.188 545.696 247.692 546.224 248.348 546.624C249.02 547.008 249.82 547.2 250.748 547.2C251.484 547.2 252.068 547.072 252.5 546.816C252.932 546.56 253.148 546.2 253.148 545.736C253.148 545.432 253.044 545.168 252.836 544.944C252.644 544.704 252.268 544.52 251.708 544.392L249.188 543.864C247.908 543.608 246.996 543.192 246.452 542.616C245.908 542.04 245.636 541.32 245.636 540.456C245.636 539.8 245.828 539.192 246.212 538.632C246.612 538.072 247.18 537.624 247.916 537.288C248.652 536.936 249.54 536.76 250.58 536.76C251.764 536.76 252.78 536.976 253.628 537.408C254.492 537.824 255.148 538.424 255.596 539.208L253.82 540.696C253.5 540.056 253.044 539.584 252.452 539.28C251.876 538.96 251.268 538.8 250.628 538.8C249.844 538.8 249.236 538.944 248.804 539.232C248.388 539.504 248.18 539.864 248.18 540.312C248.18 540.616 248.3 540.896 248.54 541.152C248.78 541.392 249.212 541.576 249.836 541.704L252.572 542.28C253.724 542.504 254.532 542.888 254.996 543.432C255.476 543.96 255.716 544.608 255.716 545.376C255.716 546.528 255.268 547.464 254.372 548.184C253.476 548.888 252.252 549.24 250.7 549.24ZM265.78 541.296C265.78 540.496 265.556 539.88 265.108 539.448C264.676 539 264.076 538.776 263.308 538.776C262.588 538.776 261.964 538.944 261.436 539.28C260.924 539.616 260.556 540.16 260.332 540.912L258.172 540C258.476 539.024 259.068 538.24 259.948 537.648C260.844 537.056 261.996 536.76 263.404 536.76C264.348 536.76 265.188 536.92 265.924 537.24C266.676 537.544 267.26 538.016 267.676 538.656C268.108 539.28 268.324 540.072 268.324 541.032V546.384C268.324 546.976 268.62 547.272 269.212 547.272C269.5 547.272 269.78 547.232 270.052 547.152L269.908 548.928C269.54 549.104 269.076 549.192 268.516 549.192C267.876 549.192 267.324 549.048 266.86 548.76C266.396 548.472 266.084 548.04 265.924 547.464C265.54 548.056 264.988 548.504 264.268 548.808C263.548 549.096 262.828 549.24 262.108 549.24C260.972 549.24 260.028 548.968 259.276 548.424C258.524 547.88 258.148 547.064 258.148 545.976C258.148 545.096 258.436 544.368 259.012 543.792C259.604 543.216 260.436 542.816 261.508 542.592L265.78 541.752V541.296ZM260.74 545.784C260.74 546.232 260.908 546.592 261.244 546.864C261.596 547.12 262.06 547.248 262.636 547.248C263.18 547.248 263.692 547.16 264.172 546.984C264.652 546.808 265.036 546.52 265.324 546.12C265.628 545.72 265.78 545.2 265.78 544.56V543.552L262.756 544.176C262.068 544.304 261.556 544.488 261.22 544.728C260.9 544.968 260.74 545.32 260.74 545.784ZM279.733 537V539.016H275.917V549H273.349V539.016H271.093V537H273.349V535.272C273.349 534.056 273.717 533.112 274.453 532.44C275.205 531.768 276.229 531.432 277.525 531.432C278.549 531.432 279.309 531.624 279.805 532.008L279.325 533.856C279.149 533.744 278.949 533.664 278.725 533.616C278.501 533.552 278.245 533.52 277.957 533.52C277.285 533.52 276.765 533.672 276.397 533.976C276.029 534.28 275.845 534.776 275.845 535.464V537H279.733ZM283.333 534.984C282.773 534.984 282.341 534.848 282.037 534.576C281.749 534.288 281.605 533.888 281.605 533.376C281.605 532.864 281.749 532.472 282.037 532.2C282.341 531.928 282.773 531.792 283.333 531.792C283.877 531.792 284.293 531.928 284.581 532.2C284.885 532.472 285.037 532.864 285.037 533.376C285.037 533.888 284.885 534.288 284.581 534.576C284.293 534.848 283.877 534.984 283.333 534.984ZM284.605 537V549H282.037V537H284.605ZM293.794 536.76C294.962 536.76 295.994 537.008 296.89 537.504C297.786 538 298.482 538.72 298.978 539.664C299.49 540.592 299.746 541.704 299.746 543C299.746 544.296 299.49 545.416 298.978 546.36C298.482 547.288 297.786 548 296.89 548.496C295.994 548.992 294.962 549.24 293.794 549.24C292.626 549.24 291.594 548.992 290.698 548.496C289.802 548 289.098 547.288 288.586 546.36C288.074 545.416 287.818 544.296 287.818 543C287.818 541.704 288.074 540.592 288.586 539.664C289.098 538.72 289.802 538 290.698 537.504C291.594 537.008 292.626 536.76 293.794 536.76ZM293.794 538.776C292.738 538.776 291.906 539.144 291.298 539.88C290.69 540.6 290.386 541.64 290.386 543C290.386 544.36 290.69 545.408 291.298 546.144C291.906 546.864 292.738 547.224 293.794 547.224C294.85 547.224 295.674 546.864 296.266 546.144C296.874 545.408 297.178 544.36 297.178 543C297.178 541.64 296.874 540.6 296.266 539.88C295.674 539.144 294.85 538.776 293.794 538.776ZM313.109 531.6V553.032H310.853V531.6H313.109ZM330.913 533.16C333.393 533.16 335.321 533.848 336.697 535.224C338.089 536.584 338.785 538.536 338.785 541.08C338.785 543.624 338.089 545.584 336.697 546.96C335.321 548.32 333.393 549 330.913 549H325.321V533.16H330.913ZM330.913 546.816C332.593 546.816 333.873 546.32 334.753 545.328C335.649 544.32 336.097 542.904 336.097 541.08C336.097 539.256 335.649 537.848 334.753 536.856C333.873 535.848 332.593 535.344 330.913 535.344H327.889V546.816H330.913ZM347.514 549.24C346.314 549.24 345.258 548.992 344.346 548.496C343.45 548 342.746 547.288 342.234 546.36C341.722 545.416 341.466 544.296 341.466 543C341.466 541.704 341.714 540.592 342.21 539.664C342.722 538.72 343.418 538 344.298 537.504C345.194 537.008 346.218 536.76 347.37 536.76C348.538 536.76 349.53 537 350.346 537.48C351.162 537.96 351.786 538.616 352.218 539.448C352.65 540.28 352.866 541.224 352.866 542.28C352.866 542.584 352.858 542.864 352.842 543.12C352.826 543.376 352.802 543.592 352.77 543.768H343.986C344.098 544.888 344.458 545.744 345.066 546.336C345.69 546.912 346.49 547.2 347.466 547.2C348.266 547.2 348.914 547.048 349.41 546.744C349.906 546.44 350.298 546.016 350.586 545.472L352.626 546.432C352.21 547.312 351.546 548 350.634 548.496C349.738 548.992 348.698 549.24 347.514 549.24ZM347.322 538.8C346.442 538.8 345.714 539.056 345.138 539.568C344.578 540.08 344.218 540.824 344.058 541.8H350.37C350.306 540.84 350.002 540.104 349.458 539.592C348.914 539.064 348.202 538.8 347.322 538.8ZM363.654 537H366.342L361.566 549H358.758L353.958 537H356.79L360.174 546.768L363.654 537ZM368.093 545.76C368.637 545.76 369.069 545.92 369.389 546.24C369.725 546.544 369.893 546.96 369.893 547.488C369.893 548.016 369.725 548.44 369.389 548.76C369.069 549.08 368.637 549.24 368.093 549.24C367.533 549.24 367.085 549.08 366.749 548.76C366.429 548.44 366.269 548.016 366.269 547.488C366.269 546.96 366.429 546.544 366.749 546.24C367.085 545.92 367.533 545.76 368.093 545.76ZM392.972 535.368H384.092V539.952H391.052V542.184H384.092V549H381.524V533.16H392.972V535.368ZM399.287 549.24C398.503 549.24 397.775 549.096 397.103 548.808C396.447 548.52 395.919 548.056 395.519 547.416C395.119 546.776 394.919 545.944 394.919 544.92V537H397.487V544.272C397.487 545.36 397.711 546.112 398.159 546.528C398.623 546.928 399.279 547.128 400.127 547.128C400.671 547.128 401.183 547.008 401.663 546.768C402.143 546.512 402.527 546.12 402.815 545.592C403.119 545.048 403.271 544.352 403.271 543.504V537H405.839V549H403.583L403.463 547.056C403.047 547.808 402.487 548.36 401.783 548.712C401.079 549.064 400.247 549.24 399.287 549.24ZM412.347 531.6V545.64C412.347 546.232 412.451 546.64 412.659 546.864C412.867 547.088 413.211 547.2 413.691 547.2C413.979 547.2 414.219 547.184 414.411 547.152C414.619 547.104 414.875 547.024 415.179 546.912L414.891 548.832C414.331 549.104 413.667 549.24 412.899 549.24C411.827 549.24 411.035 548.968 410.523 548.424C410.027 547.88 409.779 547.024 409.779 545.856V531.6H412.347ZM419.824 531.6V545.64C419.824 546.232 419.928 546.64 420.136 546.864C420.344 547.088 420.688 547.2 421.168 547.2C421.456 547.2 421.696 547.184 421.888 547.152C422.096 547.104 422.352 547.024 422.656 546.912L422.368 548.832C421.808 549.104 421.144 549.24 420.376 549.24C419.304 549.24 418.512 548.968 418 548.424C417.504 547.88 417.256 547.024 417.256 545.856V531.6H419.824ZM437.666 532.92C439.09 532.92 440.322 533.192 441.362 533.736C442.402 534.264 443.282 535.048 444.002 536.088L442.274 537.744C441.666 536.816 440.978 536.152 440.21 535.752C439.458 535.336 438.562 535.128 437.522 535.128C436.354 535.128 435.506 535.352 434.978 535.8C434.45 536.248 434.186 536.792 434.186 537.432C434.186 537.928 434.354 538.36 434.69 538.728C435.042 539.096 435.69 539.384 436.634 539.592L439.85 540.312C441.37 540.664 442.45 541.184 443.09 541.872C443.746 542.544 444.074 543.408 444.074 544.464C444.074 545.44 443.81 546.288 443.282 547.008C442.754 547.712 442.018 548.264 441.074 548.664C440.13 549.048 439.034 549.24 437.786 549.24C436.106 549.24 434.674 548.928 433.49 548.304C432.306 547.664 431.394 546.872 430.754 545.928L432.53 544.152C433.026 545 433.722 545.696 434.618 546.24C435.53 546.768 436.61 547.032 437.858 547.032C438.962 547.032 439.826 546.84 440.45 546.456C441.09 546.056 441.41 545.488 441.41 544.752C441.41 544.304 441.25 543.904 440.93 543.552C440.626 543.184 440.05 542.904 439.202 542.712L435.722 541.92C434.282 541.616 433.218 541.112 432.53 540.408C431.842 539.704 431.498 538.824 431.498 537.768C431.498 536.872 431.746 536.056 432.242 535.32C432.738 534.584 433.442 534 434.354 533.568C435.282 533.136 436.386 532.92 437.666 532.92ZM454.937 537V539.016H450.809V545.4C450.809 545.976 450.969 546.408 451.289 546.696C451.609 546.968 452.025 547.104 452.537 547.104C452.985 547.104 453.361 547.04 453.665 546.912C453.985 546.768 454.281 546.576 454.553 546.336L455.129 548.208C454.761 548.528 454.305 548.784 453.761 548.976C453.233 549.152 452.641 549.24 451.985 549.24C450.929 549.24 450.041 548.984 449.321 548.472C448.601 547.944 448.241 547.064 448.241 545.832V539.016H445.937V537H448.241V534.192L450.809 533.472V537H454.937ZM464.483 541.296C464.483 540.496 464.259 539.88 463.811 539.448C463.379 539 462.779 538.776 462.011 538.776C461.291 538.776 460.667 538.944 460.139 539.28C459.627 539.616 459.259 540.16 459.035 540.912L456.875 540C457.179 539.024 457.771 538.24 458.651 537.648C459.547 537.056 460.699 536.76 462.107 536.76C463.051 536.76 463.891 536.92 464.627 537.24C465.379 537.544 465.963 538.016 466.379 538.656C466.811 539.28 467.027 540.072 467.027 541.032V546.384C467.027 546.976 467.323 547.272 467.915 547.272C468.203 547.272 468.483 547.232 468.755 547.152L468.611 548.928C468.243 549.104 467.779 549.192 467.219 549.192C466.579 549.192 466.027 549.048 465.563 548.76C465.099 548.472 464.787 548.04 464.627 547.464C464.243 548.056 463.691 548.504 462.971 548.808C462.251 549.096 461.531 549.24 460.811 549.24C459.675 549.24 458.731 548.968 457.979 548.424C457.227 547.88 456.851 547.064 456.851 545.976C456.851 545.096 457.139 544.368 457.715 543.792C458.307 543.216 459.139 542.816 460.211 542.592L464.483 541.752V541.296ZM459.443 545.784C459.443 546.232 459.611 546.592 459.947 546.864C460.299 547.12 460.763 547.248 461.339 547.248C461.883 547.248 462.395 547.16 462.875 546.984C463.355 546.808 463.739 546.52 464.027 546.12C464.331 545.72 464.483 545.2 464.483 544.56V543.552L461.459 544.176C460.771 544.304 460.259 544.488 459.923 544.728C459.603 544.968 459.443 545.32 459.443 545.784ZM476.395 536.76C477.819 536.76 478.955 537.072 479.803 537.696C480.651 538.32 481.259 539.128 481.627 540.12L479.203 541.08C478.995 540.344 478.659 539.784 478.195 539.4C477.747 539 477.155 538.8 476.419 538.8C475.347 538.8 474.507 539.168 473.899 539.904C473.307 540.624 473.011 541.664 473.011 543.024C473.011 544.368 473.315 545.4 473.923 546.12C474.531 546.84 475.363 547.2 476.419 547.2C477.251 547.2 477.907 547 478.387 546.6C478.883 546.2 479.211 545.624 479.371 544.872L481.699 545.664C481.363 546.752 480.747 547.624 479.851 548.28C478.955 548.92 477.827 549.24 476.467 549.24C475.283 549.24 474.235 548.992 473.323 548.496C472.427 548 471.723 547.288 471.211 546.36C470.699 545.416 470.443 544.296 470.443 543C470.443 541.704 470.699 540.592 471.211 539.664C471.723 538.72 472.427 538 473.323 537.504C474.219 537.008 475.243 536.76 476.395 536.76ZM496.015 537L491.431 541.704L496.303 549H493.327L489.631 543.36L487.255 545.808V549H484.687V531.6H487.255V542.856L492.967 537H496.015Z" fill="black"/>
<g clip-path="url(#clip0)">
<path d="M172.845 11C150.842 11 133 28.8391 133 50.8453C133 68.4503 144.417 83.3859 160.249 88.6547C162.24 89.0234 162.971 87.7903 162.971 86.7378C162.971 85.7878 162.934 82.6488 162.917 79.3194C151.832 81.7297 149.493 74.6181 149.493 74.6181C147.68 70.0125 145.069 68.7881 145.069 68.7881C141.454 66.315 145.341 66.3656 145.341 66.3656C149.343 66.6469 151.449 70.4719 151.449 70.4719C155.003 76.5634 160.771 74.8022 163.044 73.7844C163.402 71.2088 164.435 69.4513 165.574 68.4562C156.724 67.4484 147.42 64.0319 147.42 48.7644C147.42 44.4144 148.977 40.8597 151.526 38.0694C151.112 37.0656 149.748 33.0131 151.912 27.5247C151.912 27.5247 155.258 26.4537 162.872 31.6091C166.05 30.7259 169.459 30.2834 172.845 30.2684C176.232 30.2834 179.643 30.7259 182.827 31.6091C190.433 26.4537 193.774 27.5247 193.774 27.5247C195.943 33.0131 194.578 37.0656 194.164 38.0694C196.719 40.8597 198.265 44.4141 198.265 48.7644C198.265 64.0681 188.944 67.4381 180.071 68.4244C181.5 69.6609 182.774 72.0859 182.774 75.8031C182.774 81.1344 182.728 85.4253 182.728 86.7378C182.728 87.7981 183.445 89.0406 185.465 88.6494C201.288 83.3747 212.69 68.4444 212.69 50.8453C212.69 28.8391 194.851 11 172.845 11Z" fill="#363434"/>
<path d="M147.924 67.7606C147.836 67.9584 147.524 68.0178 147.241 67.8822C146.952 67.7522 146.789 67.4822 146.883 67.2834C146.969 67.0797 147.281 67.0228 147.569 67.1597C147.859 67.2894 148.024 67.5619 147.924 67.7606ZM149.884 69.5094C149.694 69.6856 149.322 69.6038 149.07 69.3253C148.809 69.0475 148.761 68.6763 148.953 68.4972C149.149 68.3213 149.51 68.4034 149.771 68.6816C150.031 68.9625 150.082 69.3316 149.883 69.5097L149.884 69.5094ZM151.228 71.7469C150.984 71.9166 150.585 71.7575 150.338 71.4031C150.094 71.0491 150.094 70.6241 150.343 70.4538C150.591 70.2834 150.984 70.4366 151.234 70.7881C151.478 71.1484 151.478 71.5734 151.228 71.7472L151.228 71.7469ZM153.502 74.3384C153.284 74.5791 152.819 74.5147 152.478 74.186C152.13 73.8647 152.033 73.4088 152.252 73.1678C152.473 72.9266 152.94 72.9944 153.284 73.3203C153.63 73.6409 153.735 74.1003 153.502 74.3384H153.502ZM156.441 75.2134C156.345 75.5253 155.897 75.6672 155.445 75.5347C154.995 75.3981 154.7 75.0325 154.791 74.7172C154.885 74.4031 155.335 74.2553 155.789 74.3972C156.239 74.5331 156.535 74.8959 156.441 75.2134H156.441ZM159.786 75.5844C159.797 75.9131 159.414 76.1856 158.94 76.1916C158.464 76.2019 158.079 75.936 158.074 75.6128C158.074 75.2809 158.448 75.0109 158.924 75.0031C159.398 74.9938 159.786 75.2578 159.786 75.5844ZM163.071 75.4584C163.128 75.7791 162.799 76.1084 162.329 76.1959C161.866 76.2803 161.438 76.0825 161.379 75.7647C161.321 75.4359 161.657 75.1069 162.119 75.0216C162.59 74.9397 163.011 75.1325 163.071 75.4584Z" fill="#363434"/>
</g>
<g clip-path="url(#clip1)">
<g filter="url(#filter0_d)">
<path d="M3813.14 383H-503.726V562.048H3813.14V383Z" fill="black"/>
</g>
<path d="M3813.14 383H-503.726V562.048H3813.14V383Z" fill="#5C5757"/>
<mask id="mask0" mask-type="alpha" maskUnits="userSpaceOnUse" x="218" y="434" width="45" height="71">
<path d="M218 434.585V504.346H262.122V434.585H218V434.585Z" fill="white"/>
</mask>
<g mask="url(#mask0)">
<path fill-rule="evenodd" clip-rule="evenodd" d="M247.326 478.994C247.326 467.127 244.367 464.072 239.882 464.072C236.834 464.072 234.413 466.139 232.349 469.556V489.603C234.143 492.389 236.206 493.918 239.164 493.918C244.187 493.918 247.326 489.692 247.326 478.994ZM232.349 459.935C235.309 455.98 239.793 453.463 244.457 453.463C256.832 453.463 262.123 463.263 262.123 478.813C262.123 493.558 255.397 504.346 243.021 504.346C238.268 504.346 234.054 502.279 231.274 498.502L230.735 502.817H218V436.112L232.349 434.585V459.935Z" fill="black"/>
</g>
<path fill-rule="evenodd" clip-rule="evenodd" d="M305.508 502.817H269.188V493.018H279.053V464.881H269.188V455.081H291.787L292.952 463.982C295.105 457.599 300.217 453.644 306.045 453.644C308.466 453.644 309.902 453.912 311.964 454.453L309.632 468.387C307.84 467.847 306.225 467.667 304.163 467.667C298.244 467.667 294.925 472.432 293.401 478.815V493.018H305.508V502.817Z" fill="black"/>
<path fill-rule="evenodd" clip-rule="evenodd" d="M360.373 502.817H320.464V493.018H333.918V464.881H320.914V455.081H348.267V493.018H360.373V502.817Z" fill="black"/>
<path fill-rule="evenodd" clip-rule="evenodd" d="M332.572 438.091C332.572 433.506 336.159 430.001 341.091 430.001C346.025 430.001 349.612 433.506 349.612 438.091C349.612 442.675 346.025 446.181 341.091 446.181C336.159 446.181 332.572 442.675 332.572 438.091Z" fill="black"/>
<path fill-rule="evenodd" clip-rule="evenodd" d="M378.307 478.904C378.307 490.682 381.356 493.828 385.661 493.828C388.709 493.828 391.22 491.761 393.284 488.344V467.846C391.311 465.419 389.249 463.982 386.378 463.982C381.535 463.982 378.307 468.206 378.307 478.904ZM393.284 457.868V434.585L407.633 436.113V502.817H394.898L394.18 497.603C391.579 501.288 387.276 504.346 380.998 504.346C369.159 504.346 363.51 494.188 363.51 478.815C363.51 464.071 370.773 453.463 382.522 453.463C386.736 453.463 390.413 454.991 393.284 457.868Z" fill="black"/>
<mask id="mask1" mask-type="alpha" maskUnits="userSpaceOnUse" x="414" y="447" width="51" height="76">
<path d="M414.265 522.775H464.307V447.26H414.265V522.775Z" fill="white"/>
</mask>
<g mask="url(#mask1)">
<path fill-rule="evenodd" clip-rule="evenodd" d="M438.3 478.635C442.694 478.635 445.385 475.848 445.385 470.634C445.385 465.689 442.875 463.172 438.3 463.172C433.727 463.172 430.767 466.049 430.767 470.813C430.767 475.848 433.816 478.635 438.3 478.635ZM427.808 505.963C427.449 506.953 427.18 507.851 427.18 508.841C427.18 511.447 430.049 513.156 437.673 513.156C446.91 513.156 448.792 511.087 448.792 508.571C448.792 505.784 446.73 504.345 438.03 503.806C423.503 502.816 419.468 499.491 419.468 493.289C419.468 490.142 421.441 487.264 424.669 485.107C419.646 482.14 416.329 477.466 416.329 471.083C416.329 460.566 424.31 453.464 437.673 453.464C447.985 453.464 455.25 450.587 460.81 447.26L464.307 457.958C460.9 459.397 456.057 459.757 450.586 459.757V460.115C455.877 462.363 459.107 466.14 459.107 472.163C459.107 481.331 451.213 488.073 438.659 488.073C436.775 488.073 434.713 487.894 432.74 487.445C432.022 488.164 431.663 488.973 431.663 489.602C431.663 491.671 432.829 492.388 444.846 493.197C456.864 494.007 463.232 499.401 463.232 507.581C463.232 517.651 453.456 522.775 437.762 522.775C420.634 522.775 414.265 517.291 414.265 510.638C414.265 507.851 414.714 505.694 416.777 503.267L427.808 505.963Z" fill="black"/>
</g>
<path fill-rule="evenodd" clip-rule="evenodd" d="M481.704 474.5H499.013C498.922 467.757 496.592 463.082 490.492 463.082C485.56 463.082 482.332 466.588 481.704 474.5ZM481.884 483.129C482.87 490.861 487.264 493.918 493.272 493.918C497.308 493.918 501.164 492.66 505.2 489.603L511.208 497.782C506.546 501.47 499.909 504.346 492.197 504.346C475.606 504.346 467.266 493.827 467.266 478.994C467.266 464.881 475.517 453.463 490.403 453.463C504.125 453.463 513.003 462.543 513.003 478.004C513.003 479.624 512.913 481.691 512.733 483.129H481.884Z" fill="black"/>
<path fill-rule="evenodd" clip-rule="evenodd" d="M512.686 519.539H561.472V508.302H512.686V519.539Z" fill="#0099FF"/>
</g>
<rect x="243" y="28" width="414" height="47.5997" rx="4" fill="#EFECEC"/>
<path d="M303.296 44.264H293.696V50.384H301.304V51.512H293.696V59H292.496V43.16H303.296V44.264ZM306.752 44.672C306.448 44.672 306.2 44.584 306.008 44.408C305.832 44.216 305.744 43.968 305.744 43.664C305.744 43.36 305.832 43.12 306.008 42.944C306.2 42.752 306.448 42.656 306.752 42.656C307.056 42.656 307.296 42.752 307.472 42.944C307.664 43.12 307.76 43.36 307.76 43.664C307.76 43.968 307.664 44.216 307.472 44.408C307.296 44.584 307.056 44.672 306.752 44.672ZM307.352 47V59H306.152V47H307.352ZM311.636 59V47H312.716L312.788 49.4C313.156 48.552 313.74 47.904 314.54 47.456C315.34 46.992 316.244 46.76 317.252 46.76C318.58 46.76 319.676 47.136 320.54 47.888C321.404 48.64 321.836 49.752 321.836 51.224V59H320.636V51.608C320.636 50.296 320.308 49.336 319.652 48.728C318.996 48.12 318.156 47.816 317.132 47.816C316.38 47.816 315.676 47.992 315.02 48.344C314.364 48.68 313.836 49.176 313.436 49.832C313.036 50.488 312.836 51.288 312.836 52.232V59H311.636ZM330.66 59.24C329.62 59.24 328.684 58.992 327.852 58.496C327.036 58 326.388 57.288 325.908 56.36C325.428 55.416 325.188 54.296 325.188 53C325.188 51.688 325.436 50.568 325.932 49.64C326.428 48.696 327.092 47.984 327.924 47.504C328.772 47.008 329.724 46.76 330.78 46.76C331.788 46.76 332.676 47.016 333.444 47.528C334.212 48.04 334.756 48.752 335.076 49.664V41.48H336.276V59H335.196L335.124 56.168C334.82 57.144 334.26 57.904 333.444 58.448C332.628 58.976 331.7 59.24 330.66 59.24ZM330.804 58.184C331.636 58.184 332.372 57.976 333.012 57.56C333.668 57.128 334.172 56.52 334.524 55.736C334.892 54.936 335.076 53.992 335.076 52.904C335.076 51.336 334.676 50.096 333.876 49.184C333.092 48.272 332.084 47.816 330.852 47.816C329.476 47.816 328.388 48.28 327.588 49.208C326.788 50.136 326.388 51.4 326.388 53C326.388 54.6 326.78 55.864 327.564 56.792C328.364 57.72 329.444 58.184 330.804 58.184ZM355.425 51.104C355.425 50.08 355.145 49.28 354.585 48.704C354.025 48.112 353.225 47.816 352.185 47.816C351.273 47.816 350.481 48.016 349.809 48.416C349.153 48.816 348.673 49.464 348.369 50.36L347.385 49.736C347.737 48.792 348.321 48.064 349.137 47.552C349.969 47.024 350.993 46.76 352.209 46.76C353.521 46.76 354.585 47.112 355.401 47.816C356.217 48.504 356.625 49.528 356.625 50.888V56.888C356.625 57.736 357.009 58.16 357.777 58.16C358.113 58.16 358.401 58.104 358.641 57.992L358.569 58.952C358.297 59.096 357.945 59.168 357.513 59.168C356.985 59.168 356.513 59.016 356.097 58.712C355.681 58.408 355.449 57.856 355.401 57.056C355.001 57.808 354.401 58.36 353.601 58.712C352.801 59.064 351.993 59.24 351.177 59.24C350.041 59.24 349.105 58.976 348.369 58.448C347.633 57.92 347.265 57.152 347.265 56.144C347.265 55.232 347.569 54.504 348.177 53.96C348.785 53.416 349.625 53.04 350.697 52.832L355.425 51.896V51.104ZM348.489 56.048C348.489 56.72 348.737 57.248 349.233 57.632C349.729 58 350.433 58.184 351.345 58.184C351.969 58.184 352.593 58.072 353.217 57.848C353.857 57.608 354.385 57.24 354.801 56.744C355.217 56.232 355.425 55.576 355.425 54.776V52.904L351.297 53.72C350.353 53.912 349.649 54.192 349.185 54.56C348.721 54.928 348.489 55.424 348.489 56.048ZM368.027 59V47H369.035L369.179 49.496C369.483 48.68 369.963 48.024 370.619 47.528C371.291 47.016 372.107 46.76 373.067 46.76C373.707 46.76 374.211 46.896 374.579 47.168L374.291 48.224C374.115 48.112 373.923 48.024 373.715 47.96C373.507 47.896 373.195 47.864 372.779 47.864C372.171 47.864 371.595 48.056 371.051 48.44C370.507 48.808 370.067 49.328 369.731 50C369.395 50.656 369.227 51.416 369.227 52.28V59H368.027ZM381.43 59.24C380.326 59.24 379.342 58.992 378.478 58.496C377.614 58 376.934 57.288 376.438 56.36C375.958 55.416 375.718 54.296 375.718 53C375.718 51.704 375.958 50.592 376.438 49.664C376.918 48.72 377.574 48 378.406 47.504C379.254 47.008 380.214 46.76 381.286 46.76C382.374 46.76 383.302 47 384.07 47.48C384.854 47.96 385.446 48.632 385.846 49.496C386.262 50.344 386.47 51.328 386.47 52.448C386.47 52.608 386.462 52.76 386.446 52.904C386.446 53.032 386.438 53.144 386.422 53.24H376.894C376.942 54.792 377.374 56.008 378.19 56.888C379.022 57.752 380.094 58.184 381.406 58.184C382.334 58.184 383.126 57.984 383.782 57.584C384.454 57.184 384.974 56.632 385.342 55.928L386.302 56.48C385.854 57.328 385.206 58 384.358 58.496C383.526 58.992 382.55 59.24 381.43 59.24ZM381.262 47.816C380.094 47.816 379.11 48.2 378.31 48.968C377.526 49.72 377.062 50.784 376.918 52.16H385.294C385.246 50.832 384.862 49.776 384.142 48.992C383.438 48.208 382.478 47.816 381.262 47.816ZM389.894 64.04V47H390.974L391.046 49.736C391.398 48.824 391.974 48.104 392.774 47.576C393.574 47.032 394.51 46.76 395.582 46.76C396.606 46.76 397.526 47.008 398.342 47.504C399.158 48 399.806 48.712 400.286 49.64C400.766 50.568 401.006 51.688 401.006 53C401.006 54.296 400.766 55.416 400.286 56.36C399.806 57.288 399.15 58 398.318 58.496C397.502 58.992 396.574 59.24 395.534 59.24C394.51 59.24 393.606 58.984 392.822 58.472C392.038 57.96 391.462 57.264 391.094 56.384V64.04H389.894ZM395.39 58.184C396.75 58.184 397.822 57.72 398.606 56.792C399.406 55.864 399.806 54.6 399.806 53C399.806 51.4 399.414 50.136 398.63 49.208C397.846 48.28 396.782 47.816 395.438 47.816C394.59 47.816 393.838 48.032 393.182 48.464C392.542 48.88 392.03 49.48 391.646 50.264C391.278 51.032 391.094 51.944 391.094 53C391.094 54.056 391.278 54.976 391.646 55.76C392.014 56.528 392.518 57.128 393.158 57.56C393.814 57.976 394.558 58.184 395.39 58.184ZM409.368 46.76C410.488 46.76 411.472 47.008 412.32 47.504C413.184 48 413.856 48.72 414.336 49.664C414.832 50.592 415.08 51.704 415.08 53C415.08 54.296 414.832 55.416 414.336 56.36C413.856 57.288 413.184 58 412.32 58.496C411.472 58.992 410.488 59.24 409.368 59.24C408.248 59.24 407.256 58.992 406.392 58.496C405.544 58 404.872 57.288 404.376 56.36C403.896 55.416 403.656 54.296 403.656 53C403.656 51.704 403.896 50.592 404.376 49.664C404.872 48.72 405.544 48 406.392 47.504C407.256 47.008 408.248 46.76 409.368 46.76ZM409.368 47.792C408.008 47.792 406.912 48.256 406.08 49.184C405.264 50.112 404.856 51.384 404.856 53C404.856 54.616 405.264 55.888 406.08 56.816C406.912 57.744 408.008 58.208 409.368 58.208C410.728 58.208 411.816 57.744 412.632 56.816C413.464 55.888 413.88 54.616 413.88 53C413.88 51.384 413.464 50.112 412.632 49.184C411.816 48.256 410.728 47.792 409.368 47.792ZM422.567 59.24C421.351 59.24 420.271 58.992 419.327 58.496C418.399 58 417.743 57.288 417.359 56.36L418.391 55.664C418.663 56.48 419.175 57.104 419.927 57.536C420.679 57.968 421.591 58.184 422.663 58.184C423.703 58.184 424.527 57.976 425.135 57.56C425.743 57.144 426.047 56.592 426.047 55.904C426.047 55.44 425.895 55.04 425.591 54.704C425.303 54.352 424.751 54.088 423.935 53.912L421.127 53.312C419.991 53.072 419.175 52.688 418.679 52.16C418.183 51.616 417.935 50.96 417.935 50.192C417.935 49.568 418.127 49 418.511 48.488C418.895 47.96 419.423 47.544 420.095 47.24C420.783 46.92 421.583 46.76 422.495 46.76C423.695 46.76 424.687 47 425.471 47.48C426.255 47.944 426.807 48.648 427.127 49.592L426.119 50.24C425.879 49.392 425.431 48.776 424.775 48.392C424.119 48.008 423.359 47.816 422.495 47.816C421.471 47.816 420.655 48.04 420.047 48.488C419.439 48.92 419.135 49.464 419.135 50.12C419.135 50.584 419.287 51.008 419.591 51.392C419.911 51.76 420.487 52.032 421.319 52.208L424.199 52.832C425.319 53.072 426.103 53.44 426.551 53.936C427.015 54.416 427.247 55.016 427.247 55.736C427.247 56.808 426.815 57.664 425.951 58.304C425.103 58.928 423.975 59.24 422.567 59.24ZM431.228 44.672C430.924 44.672 430.676 44.584 430.484 44.408C430.308 44.216 430.22 43.968 430.22 43.664C430.22 43.36 430.308 43.12 430.484 42.944C430.676 42.752 430.924 42.656 431.228 42.656C431.532 42.656 431.772 42.752 431.948 42.944C432.14 43.12 432.236 43.36 432.236 43.664C432.236 43.968 432.14 44.216 431.948 44.408C431.772 44.584 431.532 44.672 431.228 44.672ZM431.828 47V59H430.628V47H431.828ZM442.593 47V48.032H438.105V55.832C438.105 57.368 438.809 58.136 440.217 58.136C440.665 58.136 441.057 58.064 441.393 57.92C441.745 57.76 442.057 57.536 442.329 57.248L442.785 58.232C442.465 58.536 442.073 58.784 441.609 58.976C441.161 59.152 440.649 59.24 440.073 59.24C439.129 59.24 438.361 58.984 437.769 58.472C437.193 57.944 436.905 57.12 436.905 56V48.032H434.505V47H436.905V44L438.105 43.664V47H442.593ZM450.055 46.76C451.175 46.76 452.159 47.008 453.007 47.504C453.871 48 454.543 48.72 455.023 49.664C455.519 50.592 455.767 51.704 455.767 53C455.767 54.296 455.519 55.416 455.023 56.36C454.543 57.288 453.871 58 453.007 58.496C452.159 58.992 451.175 59.24 450.055 59.24C448.935 59.24 447.943 58.992 447.079 58.496C446.231 58 445.559 57.288 445.063 56.36C444.583 55.416 444.343 54.296 444.343 53C444.343 51.704 444.583 50.592 445.063 49.664C445.559 48.72 446.231 48 447.079 47.504C447.943 47.008 448.935 46.76 450.055 46.76ZM450.055 47.792C448.695 47.792 447.599 48.256 446.767 49.184C445.951 50.112 445.543 51.384 445.543 53C445.543 54.616 445.951 55.888 446.767 56.816C447.599 57.744 448.695 58.208 450.055 58.208C451.415 58.208 452.503 57.744 453.319 56.816C454.151 55.888 454.567 54.616 454.567 53C454.567 51.384 454.151 50.112 453.319 49.184C452.503 48.256 451.415 47.792 450.055 47.792ZM459.199 59V47H460.207L460.351 49.496C460.655 48.68 461.135 48.024 461.791 47.528C462.463 47.016 463.279 46.76 464.239 46.76C464.879 46.76 465.383 46.896 465.751 47.168L465.463 48.224C465.287 48.112 465.095 48.024 464.887 47.96C464.679 47.896 464.367 47.864 463.951 47.864C463.343 47.864 462.767 48.056 462.223 48.44C461.679 48.808 461.239 49.328 460.903 50C460.567 50.656 460.399 51.416 460.399 52.28V59H459.199ZM477.725 47L471.917 61.208C471.469 62.328 470.973 63.096 470.429 63.512C469.885 63.944 469.213 64.16 468.413 64.16C467.421 64.16 466.653 63.888 466.109 63.344L466.493 62.312C466.733 62.6 467.021 62.8 467.357 62.912C467.693 63.04 468.037 63.104 468.389 63.104C468.901 63.104 469.357 62.952 469.757 62.648C470.173 62.36 470.549 61.784 470.885 60.92L471.677 59L470.405 56.024L466.613 47H467.981L471.653 56.096L472.253 57.704L472.901 55.976L476.429 47H477.725ZM479.015 57.032C479.335 57.032 479.591 57.136 479.783 57.344C479.991 57.536 480.095 57.792 480.095 58.112C480.095 58.432 479.991 58.696 479.783 58.904C479.591 59.096 479.335 59.192 479.015 59.192C478.695 59.192 478.431 59.096 478.223 58.904C478.031 58.696 477.935 58.432 477.935 58.112C477.935 57.792 478.031 57.536 478.223 57.344C478.431 57.136 478.695 57.032 479.015 57.032ZM484.288 57.032C484.608 57.032 484.864 57.136 485.056 57.344C485.264 57.536 485.368 57.792 485.368 58.112C485.368 58.432 485.264 58.696 485.056 58.904C484.864 59.096 484.608 59.192 484.288 59.192C483.968 59.192 483.704 59.096 483.496 58.904C483.304 58.696 483.208 58.432 483.208 58.112C483.208 57.792 483.304 57.536 483.496 57.344C483.704 57.136 483.968 57.032 484.288 57.032ZM489.562 57.032C489.882 57.032 490.138 57.136 490.33 57.344C490.538 57.536 490.642 57.792 490.642 58.112C490.642 58.432 490.538 58.696 490.33 58.904C490.138 59.096 489.882 59.192 489.562 59.192C489.242 59.192 488.978 59.096 488.77 58.904C488.578 58.696 488.482 58.432 488.482 58.112C488.482 57.792 488.578 57.536 488.77 57.344C488.978 57.136 489.242 57.032 489.562 57.032Z" fill="#363434"/>
<path d="M284.396 64.6856L277.429 55.4475C278.51 53.5942 279.095 51.3283 279.095 48.945C279.095 46.0921 278.255 43.4171 276.737 41.4002C275.219 39.3832 273.196 38.2734 271.047 38.2734C268.899 38.2734 266.876 39.3868 265.358 41.4002C263.837 43.4135 263 46.0921 263 48.945C263 51.7943 263.84 54.4764 265.358 56.4898C266.876 58.5067 268.896 59.6166 271.047 59.6166C272.845 59.6166 274.551 58.8411 275.948 57.4111L282.915 66.6456C282.935 66.6727 282.96 66.6942 282.986 66.7088C283.013 66.7235 283.042 66.7311 283.07 66.7311C283.099 66.7311 283.128 66.7235 283.155 66.7088C283.181 66.6942 283.206 66.6727 283.226 66.6456L284.396 65.0982C284.416 65.0711 284.432 65.0389 284.443 65.0035C284.454 64.9681 284.46 64.9302 284.46 64.8919C284.46 64.8535 284.454 64.8156 284.443 64.7802C284.432 64.7448 284.416 64.7126 284.396 64.6856ZM275.297 54.5796C274.159 56.0843 272.652 56.9131 271.047 56.9131C269.443 56.9131 267.936 56.0843 266.798 54.5796C265.664 53.0713 265.039 51.0722 265.039 48.945C265.039 46.8178 265.664 44.8151 266.798 43.3104C267.936 41.8057 269.443 40.9768 271.047 40.9768C272.652 40.9768 274.162 41.8021 275.297 43.3104C276.431 44.8186 277.056 46.8178 277.056 48.945C277.056 51.0722 276.431 53.0749 275.297 54.5796Z" fill="black" fill-opacity="0.77"/>
<defs>
<filter id="filter0_d" x="-507.726" y="381" width="4324.86" height="187.048" filterUnits="userSpaceOnUse" color-interpolation-filters="sRGB">
<feFlood flood-opacity="0" result="BackgroundImageFix"/>
<feColorMatrix in="SourceAlpha" type="matrix" values="0 0 0 0 0 0 0 0 0 0 0 0 0 0 0 0 0 0 127 0"/>
<feOffset dy="2"/>
<feGaussianBlur stdDeviation="2"/>
<feColorMatrix type="matrix" values="0 0 0 0 0.500372 0 0 0 0 0.500372 0 0 0 0 0.500372 0 0 0 0.5 0"/>
<feBlend mode="normal" in2="BackgroundImageFix" result="effect1_dropShadow"/>
<feBlend mode="normal" in="SourceGraphic" in2="effect1_dropShadow" result="shape"/>
</filter>
<clipPath id="clip0">
<rect width="80" height="77.824" fill="white" transform="translate(133 11)"/>
</clipPath>
<clipPath id="clip1">
<rect width="344" height="94" fill="white" transform="translate(218 430)"/>
</clipPath>
</defs>
</svg>
