<svg width="20" height="25" viewBox="0 0 20 25" fill="none" xmlns="http://www.w3.org/2000/svg">
<path d="M2.5 0H17.5C18.163 0 18.7989 0.263392 19.2678 0.732233C19.7366 1.20107 20 1.83696 20 2.5V22.5C20 23.163 19.7366 23.7989 19.2678 24.2678C18.7989 24.7366 18.163 25 17.5 25H2.5C1.83696 25 1.20107 24.7366 0.732233 24.2678C0.263392 23.7989 0 23.163 0 22.5V2.5C0 1.83696 0.263392 1.20107 0.732233 0.732233C1.20107 0.263392 1.83696 0 2.5 0V0ZM10.9375 14.375C14.375 14.375 15.3 11.8375 15.5375 10.5C16.675 10.1375 17.5 9.075 17.5 7.8125C17.5 6.25 16.25 5 14.6875 5C13.125 5 11.875 6.25 11.875 7.8125C11.875 8.9875 12.5875 10 13.6125 10.4125C13.3375 11.25 12.5 12.5 10 12.5C8.275 12.5 7.075 12.9375 6.25 13.55V8.5875C7.3375 8.2 8.125 7.1625 8.125 5.9375C8.125 4.375 6.875 3.125 5.3125 3.125C3.75 3.125 2.5 4.375 2.5 5.9375C2.5 7.1625 3.2875 8.2 4.375 8.5875V16.4125C3.2875 16.8 2.5 17.8375 2.5 19.0625C2.5 20.625 3.75 21.875 5.3125 21.875C6.875 21.875 8.125 20.625 8.125 19.0625C8.125 17.9 7.425 16.875 6.4125 16.475C6.7625 15.625 7.7875 14.375 10.9375 14.375ZM5.3125 18.125C5.56114 18.125 5.7996 18.2238 5.97541 18.3996C6.15123 18.5754 6.25 18.8139 6.25 19.0625C6.25 19.3111 6.15123 19.5496 5.97541 19.7254C5.7996 19.9012 5.56114 20 5.3125 20C5.06386 20 4.8254 19.9012 4.64959 19.7254C4.47377 19.5496 4.375 19.3111 4.375 19.0625C4.375 18.8139 4.47377 18.5754 4.64959 18.3996C4.8254 18.2238 5.06386 18.125 5.3125 18.125ZM5.3125 5C5.56114 5 5.7996 5.09877 5.97541 5.27459C6.15123 5.4504 6.25 5.68886 6.25 5.9375C6.25 6.18614 6.15123 6.4246 5.97541 6.60041C5.7996 6.77623 5.56114 6.875 5.3125 6.875C5.06386 6.875 4.8254 6.77623 4.64959 6.60041C4.47377 6.4246 4.375 6.18614 4.375 5.9375C4.375 5.68886 4.47377 5.4504 4.64959 5.27459C4.8254 5.09877 5.06386 5 5.3125 5ZM14.6875 6.875C14.9361 6.875 15.1746 6.97377 15.3504 7.14959C15.5262 7.3254 15.625 7.56386 15.625 7.8125C15.625 8.06114 15.5262 8.2996 15.3504 8.47541C15.1746 8.65123 14.9361 8.75 14.6875 8.75C14.4389 8.75 14.2004 8.65123 14.0246 8.47541C13.8488 8.2996 13.75 8.06114 13.75 7.8125C13.75 7.56386 13.8488 7.3254 14.0246 7.14959C14.2004 6.97377 14.4389 6.875 14.6875 6.875Z" fill="black"/>
</svg>
