<svg height="1800" viewBox="0 0 2400 1800" width="2400" xmlns="http://www.w3.org/2000/svg" xmlns:xlink="http://www.w3.org/1999/xlink"><defs><filter id="a" height="113.3%" width="120.5%" x="-10.3%" y="-8.3%"><feOffset dx="0" dy="0" in="SourceAlpha" result="shadowOffsetOuter1"/><feGaussianBlur in="shadowOffsetOuter1" result="shadowBlurOuter1" stdDeviation="40"/><feColorMatrix in="shadowBlurOuter1" result="shadowMatrixOuter1" type="matrix" values="0 0 0 0 0.187342709   0 0 0 0 0.40319409   0 0 0 0 0.370489335  0 0 0 1 0"/><feMerge><feMergeNode in="shadowMatrixOuter1"/><feMergeNode in="SourceGraphic"/></feMerge></filter><path id="b" d="m555.866346 1386.08365c28.643593-12.70065 59.484916-22.57369 91.367042-29.67054 63.048161-14.03519 116.782854-4.7598 160.739588 19.0756 74.892674 40.6125 165.010322 44.16414 243.046914 9.92659 28.21566-12.37718 58.53013-22.02958 89.85099-29.00219 64.46314-14.35008 119.18918-4.33351 163.68352 20.69933 76.10766 42.81674 185.79296 119.6255 312.46519 145.51669s137.75102 175.01189 195.30486 192.6844v-1714.83605092h-1812.32445v1384.64435092c50.2940211-6.42636 91.3261836-17.02987 143.794279-28.70872 63.280407-14.0866 117.178532-4.69339 161.227734 19.33908 77.572098 42.32191 170.042305 46.15631 250.844333 10.33146z"/><filter id="c" height="107%" width="106.6%" x="-3.3%" y="-3.5%"><feOffset dx="0" dy="0" in="SourceAlpha" result="shadowOffsetOuter1"/><feGaussianBlur in="shadowOffsetOuter1" result="shadowBlurOuter1" stdDeviation="20"/><feColorMatrix in="shadowBlurOuter1" type="matrix" values="0 0 0 0 0.235294118   0 0 0 0 0.623529412   0 0 0 0 0.564705882  0 0 0 1 0"/></filter><path id="d" d="m671.766453 1093.43545c-19.624732 0-35.533538-17.7432-35.533538-39.62926 0-21.88607 15.908806-39.62927 35.533538-39.62927 19.624733 0 35.533539 17.7432 35.533539 39.62927 0 21.88606-15.908806 39.62926-35.533539 39.62926zm-671.76537779-1092.95797092v1283.96460092c41.69234139-5.35531 91.32618359-9.63527 143.79212879-21.31412 46.515733-10.35502 87.958626.54624 124.150193 12.05158 113.656144 36.13547 235.836553 36.10976 350.628119 3.73372 9.436042-2.66266 88.676866-25.53195 149.492892-4.75765 110.112252 37.61781 230.099232 37.46572 341.961922 5.37887 10.14353-2.909 87.51779-25.08211 156.38284-3.90723 225.8285 69.43689 452.04552 33.55507 545.9142 246.2521v-1521.40187092z"/><filter id="e" height="107.9%" width="106.6%" x="-3.3%" y="-3.9%"><feOffset dx="0" dy="0" in="SourceAlpha" result="shadowOffsetOuter1"/><feGaussianBlur in="shadowOffsetOuter1" result="shadowBlurOuter1" stdDeviation="20"/><feColorMatrix in="shadowBlurOuter1" type="matrix" values="0 0 0 0 0.166002338   0 0 0 0 0.166002338   0 0 0 0 0.166002338  0 0 0 0.5 0"/></filter><path id="f" d="m671.766453 1129.94986c-58.306485 0-105.570565-34.08974-105.570565-76.14389 0-42.052 47.26408-76.143878 105.570565-76.143878 58.306486 0 105.570566 34.091878 105.570566 76.143878 0 42.05415-47.26408 76.14389-105.570566 76.14389zm-671.76537779-1129.47259513v1188.64015513c93.05727169-22.56512 230.59597979-17.19696 267.94232179-10.26077 113.585181 21.09777 258.128423 27.74734 402.157217 0 170.3588-32.81984 223.925346 52.59366 455.587226 28.4431 576.12976-60.06103 576.12976 167.43435 686.63553 166.36706v-1373.18954513z"/><filter id="g" height="113.1%" width="109.9%" x="-5%" y="-6.6%"><feOffset dx="0" dy="0" in="SourceAlpha" result="shadowOffsetOuter1"/><feGaussianBlur in="shadowOffsetOuter1" result="shadowBlurOuter1" stdDeviation="30"/><feColorMatrix in="shadowBlurOuter1" type="matrix" values="0 0 0 0 0.224979349   0 0 0 0 0.44701318   0 0 0 0 0.413371691  0 0 0 1 0"/></filter><path id="h" d="m0 .40139476v1527.55937524c480.595198 55.87555 448.341049-221.27992 671.765378-221.27992 194.717152 0 98.199724 165.83405 490.467332 241.55358 93.71801 18.09041 285.26905-38.9172 449.89739-20.27366 79.20708 8.9699 242.32571 111.63258 335.22157 99.11976l-135.02722-1626.67913524z"/><filter id="i" height="114.7%" width="112.3%" x="-6.2%" y="-7.4%"><feOffset dx="0" dy="0" in="SourceAlpha" result="shadowOffsetOuter1"/><feGaussianBlur in="shadowOffsetOuter1" result="shadowBlurOuter1" stdDeviation="40"/><feColorMatrix in="shadowBlurOuter1" type="matrix" values="0 0 0 0 0.421305381   0 0 0 0 0.432158801   0 0 0 0 0.345331441  0 0 0 0.349241395 0"/></filter></defs><g fill="none" fill-rule="evenodd" filter="url(#a)" transform="matrix(0 -1 1 0 -7 1807)"><path d="m510.004771 1511.80481c40.285966-24.77579 87.487684-42.60467 137.229047-53.6773 79.655854-17.73249 144.443706 1.74154 193.432422 40.78172 47.857595 38.14263 114.787265 41.53361 167.40159 10.22007 39.30107-23.38769 84.87277-40.33402 132.80348-51.00179 81.17405-18.07095 146.91024 2.49557 196.21937 43.03524 47.72857 39.23725 22.71593 130.12804 179.47491 140.78443 156.75897 10.65638 249.18765 294.67752 295.75929 325.05282v-1966.52252092h-1812.32444992v1515.46805092c41.68589012-26.93504 91.32618362-46.13917 143.79427892-57.81802 80.821383-17.99169 146.338226 2.31777 195.576391 42.50827 48.651101 39.71067 117.111869 44.08488 170.633671 11.16903z" fill="#61c4b5" transform="translate(0 440)"/><g transform="translate(0 440)"><use fill="#000" filter="url(#c)" xlink:href="#b"/><use fill="#87cfc5" fill-rule="evenodd" xlink:href="#b"/></g><g transform="translate(0 440)"><use fill="#000" filter="url(#e)" xlink:href="#d"/><use fill="#b8e1dc" fill-rule="evenodd" xlink:href="#d"/></g><g transform="translate(0 440)"><use fill="#000" filter="url(#g)" xlink:href="#f"/><use fill="#f7f8f0" fill-rule="evenodd" xlink:href="#f"/></g><use fill="#000" filter="url(#i)" xlink:href="#h"/><use fill="#f7f8f0" fill-rule="evenodd" xlink:href="#h"/></g></svg>