<svg height="1800" viewBox="0 0 2400 1800" width="2400" xmlns="http://www.w3.org/2000/svg" xmlns:xlink="http://www.w3.org/1999/xlink"><defs><path id="a" d="m585.521392 1451.36441c-338.263888 18.54973-585.23548716-270.26362-585.23548716-658.386982 0-388.123367 402.26972616-749.2338398 741.19515616-749.2338398 196.124628 0 278.436129 204.6504498 393.458929 159.5529018 123.1315-48.279113 144.03173-145.5640549 343.54482-195.09699148 199.51309-49.53293662 523.05136 154.90390948 364.00947 424.96342148-73.63445 125.035103 80.41688 102.514573 67.41782 198.91032-33.5271 248.623461-119.93141 563.41231-231.9142 858.99527-106.74239 281.74915-456.56368-74.5763-1092.476508-39.7041z"/><filter id="b" height="102.5%" width="102.1%" x="-1%" y="-1.3%"><feGaussianBlur in="SourceAlpha" result="shadowBlurInner1" stdDeviation="20"/><feOffset dx="0" dy="0" in="shadowBlurInner1" result="shadowOffsetInner1"/><feComposite in="shadowOffsetInner1" in2="SourceAlpha" k2="-1" k3="1" operator="arithmetic" result="shadowInnerInner1"/><feColorMatrix in="shadowInnerInner1" type="matrix" values="0 0 0 0 0.734614158   0 0 0 0 0.431901762   0 0 0 0 0.534358266  0 0 0 0.476336051 0"/></filter><path id="c" d="m1481.43172 1013.00436c94.28535 129.74056 96.88027 284.36588 14.35711 341.25351-82.52315 56.88763-447.19912-101.41499-740.167759-101.41499s-573.878725-188.66913-573.878725-449.405285c0-260.731945 227.05838-577.859798 518.027875-543.409438 288.895225 34.206091 313.523519 269.651977 441.222559 225.148683 88.27539-30.761055 65.74223-256.908579 354.79605-298.74176 147.26061-21.314581 241.77452 157.425341 223.11835 245.98018s-161.60192 242.458578-353.79946 160.177811c-208.15732-89.111877-52.35125 188.309362 116.324 420.411289z"/><filter id="d" height="105.1%" width="103.9%" x="-1.9%" y="-2.5%"><feGaussianBlur in="SourceAlpha" result="shadowBlurInner1" stdDeviation="30"/><feOffset dx="0" dy="0" in="shadowBlurInner1" result="shadowOffsetInner1"/><feComposite in="shadowOffsetInner1" in2="SourceAlpha" k2="-1" k3="1" operator="arithmetic" result="shadowInnerInner1"/><feColorMatrix in="shadowInnerInner1" type="matrix" values="0 0 0 0 0.571614583   0 0 0 0 0.255494397   0 0 0 0 0.362488922  0 0 0 0.475543478 0"/></filter><path id="e" d="m1480.19945 526.078471c-135.93801-16.066612-214.07341-190.946423-37.75515-205.651286 160.56094-13.393925 152.94411 206.294899 37.75515 205.651286-22.21602-2.62865 8.81189.047425 0 0z"/><filter id="f" height="133.9%" width="131.2%" x="-15.6%" y="-17%"><feGaussianBlur in="SourceAlpha" result="shadowBlurInner1" stdDeviation="35"/><feOffset dx="0" dy="0" in="shadowBlurInner1" result="shadowOffsetInner1"/><feComposite in="shadowOffsetInner1" in2="SourceAlpha" k2="-1" k3="1" operator="arithmetic" result="shadowInnerInner1"/><feColorMatrix in="shadowInnerInner1" type="matrix" values="0 0 0 0 0.559922406   0 0 0 0 0.201697112   0 0 0 0 0.322942596  0 0 0 1 0"/></filter><path id="g" d="m1339.54944 1108.30903c-83.10632 121.31693-236.48277-14.64386-459.291593-16.15748-185.977865-1.26341-479.796963-60.29652-495.151315-276.362917-15.354353-216.066394 157.56911-431.469199 336.958807-369.147702 164.805536 57.254837 179.999138 175.953806 306.915021 328.737567 143.39603 172.622878 376.95292 236.024722 310.56908 332.930532z"/><filter id="h" height="109.7%" width="107.2%" x="-3.6%" y="-4.8%"><feGaussianBlur in="SourceAlpha" result="shadowBlurInner1" stdDeviation="35"/><feOffset dx="0" dy="0" in="shadowBlurInner1" result="shadowOffsetInner1"/><feComposite in="shadowOffsetInner1" in2="SourceAlpha" k2="-1" k3="1" operator="arithmetic" result="shadowInnerInner1"/><feColorMatrix in="shadowInnerInner1" type="matrix" values="0 0 0 0 0.559922406   0 0 0 0 0.201697112   0 0 0 0 0.322942596  0 0 0 1 0"/></filter></defs><g fill="none" fill-rule="evenodd" transform="matrix(.76604444 -.64278761 .64278761 .76604444 530.6336 720.297432)"><use fill="#ffeaf1" fill-rule="evenodd" xlink:href="#a"/><use fill="#000" filter="url(#b)" xlink:href="#a"/><use fill="#f9b1c9" fill-rule="evenodd" xlink:href="#c"/><use fill="#000" filter="url(#d)" xlink:href="#c"/><use fill="#ba3864" fill-rule="evenodd" xlink:href="#e"/><use fill="#000" filter="url(#f)" xlink:href="#e"/><use fill="#ba3864" fill-rule="evenodd" xlink:href="#g"/><use fill="#000" filter="url(#h)" xlink:href="#g"/></g></svg>