<svg height="1800" viewBox="0 0 2400 1800" width="2400" xmlns="http://www.w3.org/2000/svg" xmlns:xlink="http://www.w3.org/1999/xlink"><defs><ellipse id="a" cx="2013" cy="626" rx="876" ry="922"/><path id="b" d="m1513.60937 1802.99914h271.91733v-1802.52304534h-1785.52754745v1802.52304534l346.51195145 335.38971c-155.335938-218-5.338259-639.63479 345.371708-598.20135 350.709968 41.43344 460.282218-148.35126 612.013288-194.92894 151.73107-46.57769 179.41361 148.41756 209.71327 457.74058z"/><filter id="c" height="108.4%" width="110.1%" x="-5%" y="-4.2%"><feOffset dx="0" dy="0" in="SourceAlpha" result="shadowOffsetOuter1"/><feGaussianBlur in="shadowOffsetOuter1" result="shadowBlurOuter1" stdDeviation="30"/><feColorMatrix in="shadowBlurOuter1" type="matrix" values="0 0 0 0 0   0 0 0 0 0   0 0 0 0 0  0 0 0 0.5 0"/></filter><path id="d" d="m1876.15992 1027.5712c-50.32791 0-91.12767-42.137035-91.12767-94.11795s40.79976-94.117948 91.12767-94.117948 91.12767 42.137033 91.12767 94.117948-40.79976 94.11795-91.12767 94.11795zm-1304.15992-1027.5712v1802.73517h204.270097c-148.877187-162.97592 88.317473-396.78984 456.336543-425.5304 172.81371-13.49594 210.37047 27.70453 603.28756-225.569 225.37569-145.27747 374.62444 119.12461 358.21447 651.0994h163.94286v-1802.73517z"/><filter id="e" height="107.2%" width="107.3%" x="-3.6%" y="-3.1%"><feOffset dx="0" dy="10" in="SourceAlpha" result="shadowOffsetOuter1"/><feGaussianBlur in="shadowOffsetOuter1" result="shadowBlurOuter1" stdDeviation="20"/><feColorMatrix in="shadowBlurOuter1" type="matrix" values="0 0 0 0 0.184124658   0 0 0 0 0.193889545   0 0 0 0 0.45533057  0 0 0 0.559442935 0"/></filter><path id="f" d="m0 0v1803h642.667111c-84.592125-89.71817-47.073797-258.25008 113.50696-398.53547 242.523943-211.87201 580.355869-125.44415 724.000159-206.28399 109.09728-61.39738 172.40464-177.08091 168.93703-300.125973-.0722-110.268824 91.02197-195.515741 203.38996-195.515741 112.37018 0 203.46215 85.246917 203.46215 190.40268-1.64957 61.42305 20.29153 115.745574 61.70811 154.938574 131.78878 124.72018 228.87304 382.22804 200.82371 755.11992h88.50481v-1803z"/><filter id="g" height="106.8%" width="105.1%" x="-2.6%" y="-3.4%"><feOffset dx="-2" dy="0" in="SourceAlpha" result="shadowOffsetOuter1"/><feGaussianBlur in="shadowOffsetOuter1" result="shadowBlurOuter1" stdDeviation="20"/><feColorMatrix in="shadowBlurOuter1" type="matrix" values="0 0 0 0 0.729411765   0 0 0 0 0.877036711   0 0 0 0 0.925490196  0 0 0 1 0"/></filter><mask id="h" fill="#fff"><use fill="none" xlink:href="#a"/></mask></defs><g fill="none" fill-rule="evenodd"><use fill="#d8d8d8" xlink:href="#a"/><g mask="url(#h)"><g transform="matrix(-.39073113 -.92050485 .92050485 -.39073113 1402.197595 2588.890105)"><g fill-rule="evenodd" transform="translate(570)"><path d="m299.5 1385.36395v417.35029c452.760273 266.70773 744.0012 400.07135 873.57756 400.07135 129.44471 0 247.61362-133.25592 354.42244-399.88201v-417.59201c-229.11804-112.44644-403.99081-168.66482-524.58723-168.66482-120.629824 0-355.118146 56.23903-703.41277 168.7172z" fill="#36495a" stroke="#979797"/><use fill="#000" filter="url(#c)" xlink:href="#b"/><use fill="#669acc" fill-rule="evenodd" xlink:href="#b"/></g><use fill="#000" filter="url(#e)" xlink:href="#d"/><use fill="#f6f7f9" fill-rule="evenodd" xlink:href="#d"/><use fill="#000" filter="url(#g)" xlink:href="#f"/><use fill="#fefbff" fill-rule="evenodd" xlink:href="#f"/></g></g></g></svg>