<svg height="1800" viewBox="0 0 2400 1800" width="2400" xmlns="http://www.w3.org/2000/svg" xmlns:xlink="http://www.w3.org/1999/xlink"><defs><path id="a" d="m1434.37269 1545.36493c-40.29836-18.07351-71.82052-72.0886-35.07473-127.77224 20.51371-31.08624 102.71886-32.5694 137.79359 35.07473 35.07474 67.64413-51.04626 115.87189-102.71886 92.69751zm-397.86021-159.21674c-64.214322 43.6931-322.795276 17.46221-233.437382-275.88783 20.0878-65.9405 121.711829-159.795472 188.509153-145.22192 77.329769 16.868441 51.609959 119.93554 64.136659 180.64991 12.28617 59.54687 142.80427 130.22497-19.20843 240.45984zm-1036.51348214 725.85156h2111.44131214v-2111.44131014h-2111.44131214z"/><filter id="b" height="104.3%" width="104.3%" x="-2.1%" y="-2.1%"><feOffset dx="0" dy="0" in="SourceAlpha" result="shadowOffsetOuter1"/><feGaussianBlur in="shadowOffsetOuter1" result="shadowBlurOuter1" stdDeviation="15"/><feColorMatrix in="shadowBlurOuter1" type="matrix" values="0 0 0 0 0   0 0 0 0 0   0 0 0 0 0  0 0 0 0.253566576 0"/></filter><path id="c" d="m1547.60195 1600.20553c-92.2691 48.65366-321.27704-70.05677-196.66904-217.73893 56.3701-66.80985 181.63701-61.92695 235.08339 27.28563 39.16094 65.36427 45.09608 146.41697-38.41435 190.4533zm-522.78138-152.25942c-176.300644 64.9534-412.263406-103.01699-293.217256-385.62414 77.009082-182.814519 242.814861-289.206206 347.668266-201.674705 52.50187 43.83089 36.26477 150.868955 93.08584 292.032225 24.91308 61.89689 40.37102 226.03912-147.53685 295.26662zm-1024.82107107 664.05489h2111.44131107v-2111.44130747h-2111.44131107z"/><filter id="d" height="104.3%" width="104.3%" x="-2.1%" y="-2.1%"><feOffset dx="0" dy="0" in="SourceAlpha" result="shadowOffsetOuter1"/><feGaussianBlur in="shadowOffsetOuter1" result="shadowBlurOuter1" stdDeviation="15"/><feColorMatrix in="shadowBlurOuter1" type="matrix" values="0 0 0 0 0   0 0 0 0 0   0 0 0 0 0  0 0 0 0.22265625 0"/></filter><path id="e" d="m1591.863 1627.49643c-184.37534 114.08558-397.12615-79.18121-318.17793-255.54449 73.57426-164.3602 286.58562-156.86172 339.94932-5.01067 41.69634 118.6503 58.51217 210.87681-21.77139 260.55516zm-569.84165-118.4599c-179.008909 57.0716-478.411841-71.88817-369.91066-470.09162 53.887317-197.766376 267.189296-392.323415 487.70665-327.658134 146.0587 42.83126 51.22164 330.273704 86.05335 416.813094 24.91308 61.89438 54.41594 298.59371-203.84934 380.93666zm-1022.02009733 602.96222h2111.44130733v-2111.44131228h-2111.44130733z"/><filter id="f" height="105.7%" width="105.7%" x="-2.8%" y="-2.8%"><feOffset dx="0" dy="0" in="SourceAlpha" result="shadowOffsetOuter1"/><feGaussianBlur in="shadowOffsetOuter1" result="shadowBlurOuter1" stdDeviation="20"/><feColorMatrix in="shadowBlurOuter1" type="matrix" values="0 0 0 0 0.152941176   0 0 0 0 0.51372549   0 0 0 0 0.556862745  0 0 0 1 0"/></filter><mask id="g" fill="#fff"><path d="m0 .55869039h2111.44031v2111.44105961h-2111.44031z" fill="none"/></mask><mask id="h" fill="#fff"><path d="m0 .55969253h2111.44081v2111.44030747h-2111.44081z" fill="none"/></mask><mask id="i" fill="#fff"><path d="m.00125267.55869039h2111.44005733v2111.44005961h-2111.44005733z" fill="none"/></mask><mask id="j" fill="#fff"><path d="m.00050107.55869039h2111.44080893v2111.44080961h-2111.44080893z" fill="none"/></mask></defs><g fill="none" fill-rule="evenodd"><path d="m843 1406h1283v-1283h-1283z" fill="#27838e"/><g mask="url(#g)" transform="translate(430 -293)"><use fill="#000" filter="url(#b)" xlink:href="#a"/><use fill="#45a2ac" fill-rule="evenodd" xlink:href="#a"/></g><g mask="url(#h)" transform="translate(430 -293)"><use fill="#000" filter="url(#d)" xlink:href="#c"/><use fill="#64bcc5" fill-rule="evenodd" xlink:href="#c"/></g><g mask="url(#i)" transform="translate(430 -293)"><use fill="#000" filter="url(#f)" xlink:href="#e"/><use fill="#8de0e7" fill-rule="evenodd" xlink:href="#e"/></g><path d="m1593.53331 1661.71258c-128.13301 57.31462-302.49201 21.41814-366.14263-93.01569-22.20982-39.92757-72.53705-54.40341-112.03872-31.44449-1.47314.85682-2.9588 1.70864-4.45199 2.55795-278.155156 157.83629-734.054031-50.98363-531.194302-576.285385 138.342264-358.233281 545.687692-523.578078 714.021352-390.775117 161.96259 127.772242 28.40051 278.606121 2.50534 455.971532-22.54804 154.44407 61.79416 169.44854 106.05597 160.78759 95.19784-18.6297 202.07806 32.53432 252.83371 171.1697 41.96441 114.61922 51.15149 250.60396-61.58873 301.03391zm-1593.53280893 450.28692h2111.44130893v-2111.44131068h-2111.44130893z" mask="url(#j)" transform="translate(430 -293)"/></g></svg>