<svg height="1800" viewBox="0 0 2400 1800" width="2400" xmlns="http://www.w3.org/2000/svg" xmlns:xlink="http://www.w3.org/1999/xlink"><defs><path id="a" d="m1513.60937 1802.99914h271.91733v-1802.52304534h-1785.52754745v1802.52304534l466.30553445 19.1493c-155.335937-218 23-343.625 225.578125-281.96094s396.933598 12.46875 513.937498-100.14844c117.00391-112.61719 344.1211-42.74218 307.78906 362.96008z"/><filter id="b" height="109.9%" width="110.1%" x="-5%" y="-4.9%"><feOffset dx="0" dy="0" in="SourceAlpha" result="shadowOffsetOuter1"/><feGaussianBlur in="shadowOffsetOuter1" result="shadowBlurOuter1" stdDeviation="30"/><feColorMatrix in="shadowBlurOuter1" type="matrix" values="0 0 0 0 0   0 0 0 0 0   0 0 0 0 0  0 0 0 0.5 0"/></filter><path id="c" d="m1869.15992 1024.5712c-50.32791 0-91.12767-42.137035-91.12767-94.11795s40.79976-94.117948 91.12767-94.117948 91.12767 42.137033 91.12767 94.117948-40.79976 94.11795-91.12767 94.11795zm-993.927413 98.39603c-31.602229 0-57.219701-25.85676-57.219701-57.75419s25.617472-57.7542 57.219701-57.7542c31.60223 0 57.219702 25.85677 57.219702 57.7542s-25.617472 57.75419-57.219702 57.75419zm-310.232507-1125.96723v1802.73517h204.270097c-148.877187-162.97592-132.313143-657.75611 453.722563-487.28926 166.55172 48.44722 212.98445 89.46339 605.90154-163.81014 225.37569-145.27747 374.62444 119.12461 358.21447 651.0994h163.94286v-1802.73517z"/><filter id="d" height="107.2%" width="107.3%" x="-3.6%" y="-3.1%"><feOffset dx="0" dy="10" in="SourceAlpha" result="shadowOffsetOuter1"/><feGaussianBlur in="shadowOffsetOuter1" result="shadowBlurOuter1" stdDeviation="20"/><feColorMatrix in="shadowBlurOuter1" type="matrix" values="0 0 0 0 0.512808073   0 0 0 0 0.386178799   0 0 0 0 0.636904762  0 0 0 0.559442935 0"/></filter><path id="e" d="m-7-3v1803h642.667111c-84.592125-89.71817-89.317698-354.43138 14.006073-522.23604 41.32907-67.1223 57.881701-145.44626 50.161078-223.4322-.476933-4.81141-.721962-9.69342-.721962-14.63534 0-77.979521 60.730171-141.19749 135.641437-141.19749 74.913453 0 135.641437 63.217969 135.641437 141.19749 28.440946 173.28784 359.134766 236.32396 502.779056 155.48412 109.09728-61.39738 172.40464-177.08091 168.93703-300.125973-.0722-110.268824 91.02197-195.515741 203.38996-195.515741 112.37018 0 203.46215 85.246917 203.46215 190.40268-1.64957 61.42305 20.29153 115.745574 61.70811 154.938574 131.78878 124.72018 228.87304 382.22804 200.82371 755.11992h88.50481v-1803z"/><filter id="f" height="106.7%" width="105%" x="-2.5%" y="-3.3%"><feOffset dx="0" dy="0" in="SourceAlpha" result="shadowOffsetOuter1"/><feGaussianBlur in="shadowOffsetOuter1" result="shadowBlurOuter1" stdDeviation="20"/><feColorMatrix in="shadowBlurOuter1" type="matrix" values="0 0 0 0 0.82745098   0 0 0 0 0.729411765   0 0 0 0 0.925490196  0 0 0 1 0"/></filter></defs><g fill="none" fill-rule="evenodd"><path d="m862.5 1382.5h1228v417h-1228z" fill="#8e5cbf" stroke="#979797"/><g transform="translate(563 -3)"><use fill="#000" filter="url(#b)" xlink:href="#a"/><use fill="#d3baec" fill-rule="evenodd" xlink:href="#a"/></g><use fill="#000" filter="url(#d)" xlink:href="#c"/><use fill="#f4eaff" fill-rule="evenodd" xlink:href="#c"/><use fill="#000" filter="url(#f)" xlink:href="#e"/><use fill="#fefbff" fill-rule="evenodd" xlink:href="#e"/></g></svg>