<svg height="1800" viewBox="0 0 2400 1800" width="2400" xmlns="http://www.w3.org/2000/svg" xmlns:xlink="http://www.w3.org/1999/xlink"><defs><path id="a" d="m-195.311786 1613.31179h1224.623576v-844.000004h-1224.623576z"/><path id="b" d="m1044.47204 460.323197c252.75187 176.427691 404.49152 399.751069 412.78329 805.063923l-24.51196 147.61254v-1405.79436024h-738.099345-677.644025v1405.79436024h636.998978c-91.174848-342.74163-88.267568-467.47661-210.815766-783.548574-122.548197-316.071964 348.536966-345.555581 601.288828-169.127889z"/><filter id="c" height="108.5%" width="108.3%" x="-4.2%" y="-4.3%"><feOffset dx="0" dy="0" in="SourceAlpha" result="shadowOffsetOuter1"/><feGaussianBlur in="shadowOffsetOuter1" result="shadowBlurOuter1" stdDeviation="20"/><feColorMatrix in="shadowBlurOuter1" type="matrix" values="0 0 0 0 0   0 0 0 0 0   0 0 0 0 0  0 0 0 0.5 0"/></filter><path id="d" d="m307.874912 706.687227c-26.299394-33.497894-140.625933-319.441886 62.073945-408.406546 221.535725-97.231685 440.847306-23.099742 456.434473-22.025326 116.181282 22.081687-103.255749 234.321551-208.817704 306.771744-93.246168 63.997334-284.324853 155.968046-309.690714 123.660128zm-307.87440559-706.31394693v1412.62621993h527.40633759c-99.836194-83.94025-19.101739-299.75231-111.735564-439.695873-78.21756-118.164658 111.735564-171.651852 322.841137-306.558516 118.402123-75.664679 218.967614-245.832518 282.335163-292.261603 63.36755-46.429085 330.56573 162.24703 401.7765 387.569407v-761.67963493z"/><filter id="e" height="112.7%" width="112.7%" x="-6.3%" y="-6.4%"><feOffset dx="0" dy="0" in="SourceAlpha" result="shadowOffsetOuter1"/><feGaussianBlur in="shadowOffsetOuter1" result="shadowBlurOuter1" stdDeviation="30"/><feColorMatrix in="shadowBlurOuter1" type="matrix" values="0 0 0 0 0   0 0 0 0 0   0 0 0 0 0  0 0 0 0.386577219 0"/></filter><mask id="f" fill="#fff"><use fill="none" xlink:href="#a"/></mask></defs><g fill="none" fill-rule="evenodd"><use fill="#341d1e" transform="matrix(0 1 -1 0 1608.311786 774.311786)" xlink:href="#a"/><g mask="url(#f)"><g transform="matrix(0 1 -1 0 1089 409)"><path d="m925.292645 520.063367c253.980185 177.285091 433.136795 489.510673 441.468855 896.793253l65.86275-3.85696v-1412.62621231h-741.686349-680.9372258v1412.62621231h768.9905508c-118.583334-127.70804-5.40552-377.45123-209.532591-713.758637-89.338404-147.190014 101.853826-356.462748 355.83401-179.177656z" fill="#903135" fill-rule="evenodd"/><g fill="none"><g><use fill="#000" filter="url(#c)" xlink:href="#b"/><use fill="#bb3238" fill-rule="evenodd" xlink:href="#b"/></g><g><use fill="#000" filter="url(#e)" xlink:href="#d"/><use fill="#fff" fill-rule="evenodd" xlink:href="#d"/></g></g></g></g></g></svg>