<svg height="1800" viewBox="0 0 2400 1800" width="2400" xmlns="http://www.w3.org/2000/svg" xmlns:xlink="http://www.w3.org/1999/xlink"><defs><path id="a" d="m1099.41192 1271.30763c-199.515295 0-384.607103-159.52922-358.165645-371.629788 19.487734-156.311121 167.304443-312.062989 317.300695-359.35659 180.79522-57.005424 425.44 23.801793 502.77714 181.797064 86.15309 176.008 199.13067 89.026633 220.7659 194.480914 34.20931 166.75477-132.20889 35.95036-294.03241 215.99616-102.6151 114.17064-300.38355 138.71224-388.64568 138.71224z"/><filter id="b" height="105.3%" width="103.8%" x="-1.9%" y="-2.7%"><feGaussianBlur in="SourceAlpha" result="shadowBlurInner1" stdDeviation="20"/><feOffset dx="0" dy="0" in="shadowBlurInner1" result="shadowOffsetInner1"/><feComposite in="shadowOffsetInner1" in2="SourceAlpha" k2="-1" k3="1" operator="arithmetic" result="shadowInnerInner1"/><feColorMatrix in="shadowInnerInner1" type="matrix" values="0 0 0 0 0   0 0 0 0 0   0 0 0 0 0  0 0 0 0.14526721 0"/></filter><path id="c" d="m847.987682 902.998473c0-144.709947 116.512687-250.668156 261.693988-262.020157 273.3469-21.373511 363.1721 140.52469 363.1721 285.234637s-218.64197 238.805677-363.1721 238.805677c-144.530121 0-261.693988-117.31021-261.693988-262.020157z"/><filter id="d" height="105.7%" width="104.8%" x="-2.4%" y="-2.9%"><feGaussianBlur in="SourceAlpha" result="shadowBlurInner1" stdDeviation="15"/><feOffset dx="0" dy="0" in="shadowBlurInner1" result="shadowOffsetInner1"/><feComposite in="shadowOffsetInner1" in2="SourceAlpha" k2="-1" k3="1" operator="arithmetic" result="shadowInnerInner1"/><feColorMatrix in="shadowInnerInner1" type="matrix" values="0 0 0 0 0   0 0 0 0 0   0 0 0 0 0  0 0 0 0.345335145 0"/></filter><path id="e" d="m1704.74582 1110.25517c-48.80748 25.47795-84.48478-145.098907-86.13226-171.262344-2.59302-41.19615 1.32856-84.83863 18.297-123.01162 5.9601-13.410879 12.75997-27.465697 22.28428-38.816928 49.81392-59.368666 74.51975-9.775737 131.00694 29.357569 58.43115 40.480306 136.7571 92.589872 109.19702 176.421847-24.64013 74.952636-132.5166 94.874816-194.65298 127.311476zm-138.99755 105.92884c-160.61995 178.7068-519.68787 216.93411-715.695051 92.54833-248.273094-157.55586-264.082839-473.410578-73.83223-692.663191 178.766307-206.019096 440.583051-238.781715 683.405671-122.832658 63.77105 30.450509 153.97073 79.051164 142.8951 150.678648-11.13494 72.014167-39.86973 131.170317-35.30229 209.197249 7.13482 121.867548 88.31662 263.171522-1.4712 363.071622-102.6151 114.17064 12.04362-13.39969 0 0zm-1565.74827 583.81599h2400v-1800h-2400z"/><filter id="f" height="106.7%" width="105%" x="-2.5%" y="-3.3%"><feOffset dx="0" dy="0" in="SourceAlpha" result="shadowOffsetOuter1"/><feGaussianBlur in="shadowOffsetOuter1" result="shadowBlurOuter1" stdDeviation="20"/><feColorMatrix in="shadowBlurOuter1" type="matrix" values="0 0 0 0 0.788235294   0 0 0 0 0.752941176   0 0 0 0 0.721568627  0 0 0 1 0"/></filter></defs><g fill="none" fill-rule="evenodd"><use fill="#c9c0b8" fill-rule="evenodd" xlink:href="#a"/><use fill="#000" filter="url(#b)" xlink:href="#a"/><use fill="#df4428" fill-rule="evenodd" xlink:href="#c"/><use fill="#000" filter="url(#d)" xlink:href="#c"/><use fill="#000" filter="url(#f)" xlink:href="#e"/><use fill="#fffcfa" fill-rule="evenodd" xlink:href="#e"/></g></svg>