<svg height="1800" viewBox="0 0 2400 1800" width="2400" xmlns="http://www.w3.org/2000/svg" xmlns:xlink="http://www.w3.org/1999/xlink"><defs><path id="a" d="m1511.84005 1611.39627c-182.01402 81.40259-429.69244 30.41967-520.108681-132.10795-31.549239-56.70818-103.039492-77.26787-159.151939-44.65987-2.092606 1.21693-4.203006 2.42674-6.324083 3.63299-395.121735 224.17113-1042.729907-72.41083-754.5659615-818.484344 196.5163435-508.790164 775.1539305-743.625427 1014.2733145-555.0085564 230.06921 181.4718604 40.34316 395.6976124 3.55885 647.6054634-32.02968 219.353221 87.77913 240.663711 150.6534 228.362766 135.22932-26.459309 287.05358 46.207717 359.1524 243.108241 59.6108 162.79094 72.66111 355.92681-87.4873 427.55126z"/><filter id="b" height="102.4%" width="102.4%" x="-1.2%" y="-1.2%"><feGaussianBlur in="SourceAlpha" result="shadowBlurInner1" stdDeviation="20"/><feOffset dx="0" dy="0" in="shadowBlurInner1" result="shadowOffsetInner1"/><feComposite in="shadowOffsetInner1" in2="SourceAlpha" k2="-1" k3="1" operator="arithmetic" result="shadowInnerInner1"/><feColorMatrix in="shadowInnerInner1" type="matrix" values="0 0 0 0 0.698039216   0 0 0 0 0.917647059   0 0 0 0 0.921568627  0 0 0 1 0"/></filter><path id="c" d="m1453.85849 1517.77791c-233.73861 144.60635-503.449712-100.36417-403.3645-323.90906 93.27248-208.330683 363.3139-198.826175 430.96479-6.35115 52.85981 150.39224 74.17778 267.29166-27.60029 330.26021z"/><filter id="d" height="105.8%" width="106%" x="-3%" y="-2.9%"><feGaussianBlur in="SourceAlpha" result="shadowBlurInner1" stdDeviation="15"/><feOffset dx="0" dy="0" in="shadowBlurInner1" result="shadowOffsetInner1"/><feComposite in="shadowOffsetInner1" in2="SourceAlpha" k2="-1" k3="1" operator="arithmetic" result="shadowInnerInner1"/><feColorMatrix in="shadowInnerInner1" type="matrix" values="0 0 0 0 0.278431373   0 0 0 0 0.733333333   0 0 0 0 0.741176471  0 0 0 1 0"/></filter><path id="e" d="m731.451731 1367.62701c-226.935406 72.33969-606.49822-91.12006-468.947751-595.852945 68.3147-250.673858 338.724541-497.279798 618.281545-415.314928 185.163365 54.289699 64.935332 418.630232 109.092628 528.321083 31.583127 78.45268 68.984857 378.47504-258.426422 482.84679z"/><filter id="f" height="102.9%" width="103.9%" x="-1.9%" y="-1.4%"><feGaussianBlur in="SourceAlpha" result="shadowBlurInner1" stdDeviation="15"/><feOffset dx="0" dy="0" in="shadowBlurInner1" result="shadowOffsetInner1"/><feComposite in="shadowOffsetInner1" in2="SourceAlpha" k2="-1" k3="1" operator="arithmetic" result="shadowInnerInner1"/><feColorMatrix in="shadowInnerInner1" type="matrix" values="0 0 0 0 0.278431373   0 0 0 0 0.733333333   0 0 0 0 0.741176471  0 0 0 1 0"/></filter><path id="g" d="m1254.20291 1413.67418c-51.08755-22.90863-91.04922-91.37411-44.46538-161.95453 26.00589-39.40259 130.22003-41.28253 174.68541 44.4581 44.46538 85.74064-64.713 146.87053-130.22003 117.49643z"/><filter id="h" height="120.5%" width="119.4%" x="-9.7%" y="-10.2%"><feGaussianBlur in="SourceAlpha" result="shadowBlurInner1" stdDeviation="20"/><feOffset dx="0" dy="0" in="shadowBlurInner1" result="shadowOffsetInner1"/><feComposite in="shadowOffsetInner1" in2="SourceAlpha" k2="-1" k3="1" operator="arithmetic" result="shadowInnerInner1"/><feColorMatrix in="shadowInnerInner1" type="matrix" values="0 0 0 0 0   0 0 0 0 0   0 0 0 0 0  0 0 0 0.275192482 0"/></filter><path id="i" d="m749.822602 1211.86295c-81.406578 55.3821-409.218045 22.13379-295.936144-349.694758 25.465957-83.58124 154.298036-202.544782 238.979172-184.072438 98.033452 21.381173 65.427626 152.021319 81.308118 228.978301 15.575587 75.477162 181.037608 165.063425-24.351146 304.788895z"/><filter id="j" height="107.2%" width="109.5%" x="-4.7%" y="-3.6%"><feGaussianBlur in="SourceAlpha" result="shadowBlurInner1" stdDeviation="20"/><feOffset dx="0" dy="0" in="shadowBlurInner1" result="shadowOffsetInner1"/><feComposite in="shadowOffsetInner1" in2="SourceAlpha" k2="-1" k3="1" operator="arithmetic" result="shadowInnerInner1"/><feColorMatrix in="shadowInnerInner1" type="matrix" values="0 0 0 0 0   0 0 0 0 0   0 0 0 0 0  0 0 0 0.275192482 0"/></filter></defs><g fill="none" fill-rule="evenodd" transform="matrix(-.96592583 -.25881905 .25881905 -.96592583 1005.084281 2505.499666)"><g opacity=".474609"><use fill="#f3f3f3" fill-rule="evenodd" xlink:href="#a"/><use fill="#000" filter="url(#b)" xlink:href="#a"/></g><use fill="#71dcde" fill-opacity=".516418" fill-rule="evenodd" xlink:href="#c"/><use fill="#000" filter="url(#d)" xlink:href="#c"/><use fill="#71dcde" fill-opacity=".516418" fill-rule="evenodd" xlink:href="#e"/><use fill="#000" filter="url(#f)" xlink:href="#e"/><use fill="#259fa1" fill-rule="evenodd" xlink:href="#g"/><use fill="#000" filter="url(#h)" xlink:href="#g"/><use fill="#259fa1" fill-rule="evenodd" xlink:href="#i"/><use fill="#000" filter="url(#j)" xlink:href="#i"/></g></svg>