<svg height="1800" viewBox="0 0 2400 1800" width="2400" xmlns="http://www.w3.org/2000/svg" xmlns:xlink="http://www.w3.org/1999/xlink"><defs><path id="a" d="m899.453125 1106.39844c0-103.23899 16.274914-141.156296 0-228.031253-35.96875-192 49.445433-278.412448 189.148435-297.249999 193.38478-26.076002 215.67849 18.168792 293.01563 176.164062 86.15309 176.008 304.32812-192.023438 400.47282 159.31798 45.1789 165.09719-176.39149-17.910659-338.21501 162.13514-102.6151 114.17064-68.4116 219.32983-222.04688 214.53907-153.63527-4.79077-322.374995-101.57813-322.374995-186.875z"/><filter id="b" height="105.6%" width="104.5%" x="-2.2%" y="-2.8%"><feGaussianBlur in="SourceAlpha" result="shadowBlurInner1" stdDeviation="20"/><feOffset dx="0" dy="0" in="shadowBlurInner1" result="shadowOffsetInner1"/><feComposite in="shadowOffsetInner1" in2="SourceAlpha" k2="-1" k3="1" operator="arithmetic" result="shadowInnerInner1"/><feColorMatrix in="shadowInnerInner1" type="matrix" values="0 0 0 0 0   0 0 0 0 0   0 0 0 0 0  0 0 0 0.428526947 0"/></filter><path id="c" d="m1028.58674 878.597453c0-154.75507 80.63758-153.018036 108.10857-157.808391 79.52344-13.867187 88.72657 59.230672 124.14063 136.781251 64.79609 141.89207 373.8654-116.076932 425.86718 73.953125 36.17285 132.186372-176.11562-71.287917-305.6809 72.867192-82.1596 91.41162-80.28635 129.88264-203.29566 126.04687-123.0093-3.83577-149.13982-106.51562-149.13982-251.840047z"/><filter id="d" height="109.7%" width="106%" x="-3%" y="-4.9%"><feGaussianBlur in="SourceAlpha" result="shadowBlurInner1" stdDeviation="20"/><feOffset dx="0" dy="0" in="shadowBlurInner1" result="shadowOffsetInner1"/><feComposite in="shadowOffsetInner1" in2="SourceAlpha" k2="-1" k3="1" operator="arithmetic" result="shadowInnerInner1"/><feColorMatrix in="shadowInnerInner1" type="matrix" values="0 0 0 0 0   0 0 0 0 0   0 0 0 0 0  0 0 0 0.459720335 0"/></filter><path id="e" d="m1653.09375 900c43.59012-188.148437 13.46842-180.000636 92.83594-195.007813 113.08594-21.382812 142.08929 270.180236 126.26562 318.312503-24.64012 74.95264-262.69168 64.84375-219.10156-123.30469zm-803.040531 408.73234c-248.273094-157.55586-31.213176-199.68919-118.287594-481.865153-51.135051-165.709774 77.531804-331.466646 340.289065-360.335937 250.50781-27.523438 299.91406 57.15575 428.04687 311.914062 107.91545 214.561412 71.42844 379.248338-18.35937 479.148438-102.6151 114.17063-126.24788 130.26098-219.16407 153.125-180.10423 44.3185-326.324455-47.28377-412.524901-101.98641zm-850.053219 491.26766h2400v-1800h-2400z"/><filter id="f" height="106.7%" width="105%" x="-2.5%" y="-3.3%"><feOffset dx="0" dy="0" in="SourceAlpha" result="shadowOffsetOuter1"/><feGaussianBlur in="shadowOffsetOuter1" result="shadowBlurOuter1" stdDeviation="20"/><feColorMatrix in="shadowBlurOuter1" type="matrix" values="0 0 0 0 0.274509804   0 0 0 0 0.031372549   0 0 0 0 0.184313725  0 0 0 1 0"/></filter></defs><g fill="none" fill-rule="evenodd"><use fill="#5c1747" fill-rule="evenodd" xlink:href="#a"/><use fill="#000" filter="url(#b)" xlink:href="#a"/><use fill="#46082f" fill-rule="evenodd" xlink:href="#c"/><use fill="#000" filter="url(#d)" xlink:href="#c"/><use fill="#000" filter="url(#f)" xlink:href="#e"/><use fill="#fb6696" fill-rule="evenodd" xlink:href="#e"/></g></svg>