<svg width="23" height="23" viewBox="0 0 23 23" fill="none" xmlns="http://www.w3.org/2000/svg">
<path d="M11.5 5.75H10.0625V12.9375H15.8125V11.5H11.5V5.75Z" fill="black"/>
<path d="M11.5 0C7.1875 0 3.45 2.3 1.58125 5.89375L0 4.3125V10.0625H5.75L3.59375 7.90625C5.03125 5.03125 8.05 2.875 11.5 2.875C16.2437 2.875 20.125 6.75625 20.125 11.5C20.125 16.2437 16.2437 20.125 11.5 20.125C8.9125 20.125 6.6125 18.975 5.03125 17.1062L2.875 18.975C4.8875 21.4187 8.05 23 11.5 23C17.825 23 23 17.825 23 11.5C23 5.175 17.825 0 11.5 0Z" fill="black"/>
</svg>
