<svg id="icone-servico-mecanico" xmlns="http://www.w3.org/2000/svg" width="144.876" height="135.488" viewBox="0 0 144.876 135.488">
  <path id="Path_25" data-name="Path 25" d="M141.53,77.66,133.7,76.9a43.326,43.326,0,0,0-3.824-9.41l4.964-6.235a3.931,3.931,0,0,0-.221-5.126l-9.781-10.29a3.575,3.575,0,0,0-4.964-.268l-5.994,5.164a41.4,41.4,0,0,0-9.009-3.978l-.735-8.109a3.735,3.735,0,0,0-3.677-3.443H88.249V23.725a3.68,3.68,0,1,0-7.354,0V42.851H67a18.9,18.9,0,0,0-15.149,7.8L36.7,71.425l-25.482,7.23A15.763,15.763,0,0,0,0,93.917v10.137c.037,8.721,6.876,15.76,15.26,15.76h1.986C20,130.486,30.556,136.76,40.815,133.891a19.664,19.664,0,0,0,13.532-14.077H80.9v31.749a3.68,3.68,0,1,0,7.354,0v-9.18h12.208a3.739,3.739,0,0,0,3.677-3.481l.735-8.148a41.546,41.546,0,0,0,9.046-3.94l5.994,5.164a3.564,3.564,0,0,0,4.927-.23l9.891-10.29a3.98,3.98,0,0,0,.221-5.164l-4.964-6.235a45.8,45.8,0,0,0,3.824-9.372l7.722-.765a3.8,3.8,0,0,0,3.346-3.825V81.447A3.793,3.793,0,0,0,141.53,77.66ZM35.778,126.967a12.365,12.365,0,0,1,0-24.711,12.365,12.365,0,0,1,0,24.711ZM80.9,112.125H54.862c-1.287-10.978-10.884-18.743-21.4-17.443a19.685,19.685,0,0,0-16.767,17.443H15.223a8,8,0,0,1-7.906-8.109v-10.1a8.217,8.217,0,0,1,5.81-7.88l26.7-7.574a3.587,3.587,0,0,0,1.949-1.377L57.73,55.321a11.535,11.535,0,0,1,9.3-4.781H80.9Zm7.354-39.591c8.6-2.984,17.907,1.874,20.775,10.864a17.232,17.232,0,0,1-10.443,21.612,15.936,15.936,0,0,1-10.333,0Zm49.272,20.044h0l-6.986.689a3.729,3.729,0,0,0-3.236,2.984,37.049,37.049,0,0,1-4.89,12.011,3.916,3.916,0,0,0,.257,4.514l4.486,5.661L122,123.792l-5.442-4.628a3.533,3.533,0,0,0-4.376-.23,32.86,32.86,0,0,1-11.509,5.049,3.731,3.731,0,0,0-2.868,3.366l-.662,7.344h-8.9V112.929c12.833,2.984,25.555-5.432,28.387-18.782,2.868-13.35-5.221-26.585-18.054-29.569a22.452,22.452,0,0,0-10.333,0V42.889h8.862l.7,7.306a3.775,3.775,0,0,0,2.868,3.366,34.829,34.829,0,0,1,11.546,5.049,3.536,3.536,0,0,0,4.339-.268l5.405-4.667,5.074,5.317-4.523,5.7a3.912,3.912,0,0,0-.221,4.552,35.657,35.657,0,0,1,4.854,11.973,3.726,3.726,0,0,0,3.273,2.984l7.1.727Z" transform="translate(0 -19.9)" fill="#195e83"/>
</svg>
