<svg xmlns="http://www.w3.org/2000/svg" width="127.574" height="138.149" viewBox="0 0 127.574 138.149">
  <g id="icone-servico-limpeza" transform="translate(1.168 0)">
    <path id="Path_26" data-name="Path 26" d="M242.046,173.422a5.948,5.948,0,1,0-5.948,5.948A5.95,5.95,0,0,0,242.046,173.422Zm-7.27,0a1.322,1.322,0,1,1,1.322,1.322A1.321,1.321,0,0,1,234.776,173.422Zm0,0" transform="translate(-170.157 -123.193)" fill="#195e83"/>
    <path id="Path_27" data-name="Path 27" d="M377.512,139.381a6.857,6.857,0,1,0-6.857,6.857A6.857,6.857,0,0,0,377.512,139.381Zm-9.088,0a2.23,2.23,0,1,1,2.231,2.231A2.231,2.231,0,0,1,368.424,139.381Zm0,0" transform="translate(-268.469 -97.484)" fill="#195e83"/>
    <path id="Path_28" data-name="Path 28" d="M258.415,212.4a16.628,16.628,0,0,0-25.141-11.741,12.217,12.217,0,0,0-22.891,1.744c-.043,0-.085.068-.127.068a12.3,12.3,0,0,0-11.994,9.928h-1.885a7.394,7.394,0,0,0-7.518,7.352v3.895c0,.057.009.114.014.17a38.655,38.655,0,0,0,8.712,23.637l2.867,25.491a8.342,8.342,0,0,0,8.331,7.533h37.5a8.33,8.33,0,0,0,8.325-7.505l2.863-25.468a38.722,38.722,0,0,0,8.7-23.574,2.186,2.186,0,0,0,.013-.284v-3.895a7.374,7.374,0,0,0-7.5-7.352ZM242,202.828a11.852,11.852,0,0,1,11.709,9.567h-5.83a7.352,7.352,0,0,0-7.47,7.352v12.487a.418.418,0,0,1-.161.313.6.6,0,0,1-.417.1.557.557,0,0,1-.413-.5V219.748a7.275,7.275,0,0,0-7.377-7.353H230.3a11.857,11.857,0,0,1,3.866-6.61h.217s0-.131-.005-.193A11.923,11.923,0,0,1,242,202.828Zm11.032,42.745a34.178,34.178,0,0,1-16.861,10.384,5.332,5.332,0,0,0-4.1-1.922h-9.089a5.331,5.331,0,0,0-4.094,1.923,33.911,33.911,0,0,1-16.868-10.427l-2.2-19.586H234.8v6.2a5.162,5.162,0,0,0,4.386,5.081,5.569,5.569,0,0,0,.742.05,5.136,5.136,0,0,0,3.347-1.234,5.078,5.078,0,0,0,1.769-3.8v-6.289h10.2ZM232.8,259.323a.67.67,0,0,1-.715.66h-9.088a.663.663,0,1,1,0-1.321h9.088a.67.67,0,0,1,.715.661Zm-22.538-52.234a7.515,7.515,0,0,1,4.379,1.349,2.326,2.326,0,0,0,2.67-3.809,12.228,12.228,0,0,0-2.371-1.31,7.587,7.587,0,0,1,14.584.568,16.37,16.37,0,0,0-3.922,8.508H203.036a7.35,7.35,0,0,1,7.22-5.307Zm-16.771,12.658a2.764,2.764,0,0,1,2.89-2.725h3.456c.165,0,.335.058.51.058s.347-.058.51-.058h31.192a2.648,2.648,0,0,1,2.751,2.725v1.571H193.487Zm.137,6.2h1.549l1.206,10.73A34.755,34.755,0,0,1,193.624,225.944Zm56.388,46.535a3.726,3.726,0,0,1-3.724,3.366h-37.5a3.734,3.734,0,0,1-3.728-3.395l-2.213-19.688a38.269,38.269,0,0,0,14.914,7.626,5.3,5.3,0,0,0,5.235,4.221h9.089a5.3,5.3,0,0,0,5.235-4.22,38.711,38.711,0,0,0,14.913-7.648Zm9.886-46.535h1.549a34.816,34.816,0,0,1-2.761,10.779Zm1.666-6.2v1.571H245.04v-1.571a2.723,2.723,0,0,1,2.843-2.725h10.81A2.746,2.746,0,0,1,261.564,219.746Zm0,0" transform="translate(-139.785 -142.324)" fill="#195e83"/>
    <path id="Path_29" data-name="Path 29" d="M336.161,337.461a2.314,2.314,0,0,0-2.313,2.313v7.6a2.314,2.314,0,1,0,4.627,0v-7.6A2.314,2.314,0,0,0,336.161,337.461Zm0,0" transform="translate(-246.438 -248.236)" fill="#195e83"/>
    <path id="Path_30" data-name="Path 30" d="M382.407,374.957a2.314,2.314,0,0,0-2.313,2.313v5.619a2.313,2.313,0,0,0,4.627,0V377.27A2.315,2.315,0,0,0,382.407,374.957Zm0,0" transform="translate(-280.457 -275.818)" fill="#195e83"/>
    <path id="Path_31" data-name="Path 31" d="M1.144,138.149H1.16l56.181-.382a2.309,2.309,0,0,0,2.254-2.757l-3.2-16.27a5.233,5.233,0,0,0-5.17-6.269l-7.119.008a5.559,5.559,0,0,0-5.488-5.065h-.042l-7.01.149V2.314a2.313,2.313,0,0,0-4.627,0V107.6l-7.543.058a5.51,5.51,0,0,0-5.45,5.1l-7.119.056a5.2,5.2,0,0,0-5.114,6.1l-2.841,16.543a2.3,2.3,0,0,0,2.279,2.695Zm49.914-4.961v-4.073a2.313,2.313,0,0,0-4.627,0v4.1l-4.957.036v-4.141a2.313,2.313,0,1,0-4.626,0v4.173l-5.288.036v-4.209a2.313,2.313,0,0,0-4.627,0v4.24l-5.287.036v-4.276a2.313,2.313,0,0,0-4.627,0v4.308l-4.956.036v-4.343a2.313,2.313,0,0,0-4.627,0v4.373l-3.491.025L5.7,123.136a4.945,4.945,0,0,0,1.161.14H6.9l44.4-.341a5.314,5.314,0,0,0,1.17-.145l1.983,10.372Zm-44.2-15.747,9.415-.072a2.313,2.313,0,0,0,2.295-2.331l-.014-1.864a.878.878,0,0,1,.254-.627.888.888,0,0,1,.624-.312L38.6,112.04h.007a.923.923,0,0,1,.883.925l.014,1.886a2.346,2.346,0,0,0,.691,1.643,2.231,2.231,0,0,0,1.64.62L51.255,117h.005c.206,0,.27.145.351.224a.756.756,0,0,1,.107.476.613.613,0,0,1-.1.43.5.5,0,0,1-.39.18l-44.362.342h0a.6.6,0,0,1-.005-1.209Zm0,0" fill="#195e83"/>
  </g>
</svg>
