<svg id="icone-servico-ti" xmlns="http://www.w3.org/2000/svg" width="137.648" height="137.648" viewBox="0 0 137.648 137.648">
  <path id="Path_20" data-name="Path 20" d="M64.032,133.587h56.995a4.032,4.032,0,0,0,4.033-4.033v-4.862a53.782,53.782,0,0,0,26.1-15.79,4.033,4.033,0,0,0,.851-4l-1.192-3.577h3.868a4.031,4.031,0,0,0,3.495-2.022A54.229,54.229,0,0,0,165.387,72.3V65.032a4.032,4.032,0,0,0-4.823-3.955,54.226,54.226,0,0,0-43.569,53.145v11.3H64.032a4.033,4.033,0,0,0,0,8.065Zm61.028-19.365a46.277,46.277,0,0,1,32.261-44V72.3a46.185,46.185,0,0,1-5.035,20.963h-7.063a4.032,4.032,0,0,0-3.826,5.308l2.192,6.573A45.688,45.688,0,0,1,125.06,116.3Zm0,0" transform="translate(-43.869 -44.6)" fill="#195e83"/>
  <path id="Path_21" data-name="Path 21" d="M125.55,0H12.1A12.321,12.321,0,0,0,0,12.367v96.784a12.112,12.112,0,0,0,12.1,12.1H54.281l-4.1,8.334H36.563a4.033,4.033,0,1,0,0,8.065h64.791a4.033,4.033,0,1,0,0-8.065H87.734l-4.1-8.334H125.55a12.112,12.112,0,0,0,12.1-12.1V12.367A12.319,12.319,0,0,0,125.55,0ZM12.1,8.065H125.55a4.283,4.283,0,0,1,4.033,4.3V97.053H8.065V12.367A4.283,4.283,0,0,1,12.1,8.065ZM78.746,129.583H59.171l4.1-8.334H74.647Zm46.8-16.4H12.1a4.038,4.038,0,0,1-4.033-4.033v-4.033H129.583v4.033A4.038,4.038,0,0,1,125.55,113.183Zm0,0" fill="#195e83"/>
</svg>
