<?xml version="1.0" encoding="iso-8859-1"?>
<!-- Generator: Adobe Illustrator 16.0.0, SVG Export Plug-In . SVG Version: 6.00 Build 0)  -->
<!DOCTYPE svg PUBLIC "-//W3C//DTD SVG 1.1//EN" "http://www.w3.org/Graphics/SVG/1.1/DTD/svg11.dtd">
<svg version="1.1" id="Capa_1" xmlns="http://www.w3.org/2000/svg" xmlns:xlink="http://www.w3.org/1999/xlink" x="0px" y="0px"
	 width="23.021px" height="23.021px" viewBox="0 0 27.021 27.021" style="enable-background:new 0 0 27.021 27.021;"
	 xml:space="preserve">
<g>
	<g>
		<path d="M20.443,16.782c-0.963-0.308-2-0.552-3.09-0.722c2.342-1.299,3.929-3.794,3.929-6.663c0-4.207-3.41-7.617-7.617-7.617
			s-7.617,3.41-7.617,7.617c0,2.868,1.587,5.364,3.929,6.663C4.223,16.958,0,19.896,0,23.389h18.35
			c-0.31-0.66-0.496-1.39-0.496-2.166C17.855,19.32,18.904,17.674,20.443,16.782z"/>
		<path d="M23.004,17.206c-2.218,0-4.018,1.797-4.018,4.019c0,2.217,1.8,4.016,4.018,4.016c2.219,0,4.018-1.799,4.018-4.016
			C27.02,19.003,25.223,17.206,23.004,17.206z M24.757,23.921l-1.753-0.922l-1.753,0.922l0.335-1.952l-1.418-1.383l1.96-0.283
			l0.876-1.777l0.876,1.777l1.96,0.283l-1.418,1.383L24.757,23.921z"/>
	</g>
</g>
<g>
</g>
<g>
</g>
<g>
</g>
<g>
</g>
<g>
</g>
<g>
</g>
<g>
</g>
<g>
</g>
<g>
</g>
<g>
</g>
<g>
</g>
<g>
</g>
<g>
</g>
<g>
</g>
<g>
</g>
</svg>
