<?xml version="1.0" encoding="iso-8859-1"?>
<!-- Generator: Adobe Illustrator 19.0.0, SVG Export Plug-In . SVG Version: 6.00 Build 0)  -->
<svg version="1.1" id="Capa_1" xmlns="http://www.w3.org/2000/svg" xmlns:xlink="http://www.w3.org/1999/xlink" x="0px" y="0px"
	 viewBox="0 0 512 512" style="enable-background:new 0 0 512 512;" xml:space="preserve">
<g>
	<g>
		<g>
			<circle cx="53.333" cy="53.333" r="10.667"/>
			<circle cx="96" cy="53.333" r="10.667"/>
			<circle cx="138.667" cy="53.333" r="10.667"/>
			<path d="M437.333,384h-32v-32c0-5.896-4.771-10.667-10.667-10.667S384,346.104,384,352v32h-32
				c-5.896,0-10.667,4.771-10.667,10.667s4.771,10.667,10.667,10.667h32v32c0,5.896,4.771,10.667,10.667,10.667
				s10.667-4.771,10.667-10.667v-32h32c5.896,0,10.667-4.771,10.667-10.667S443.229,384,437.333,384z"/>
			<path d="M469.333,304.228V42.667C469.333,19.135,450.198,0,426.667,0h-384C19.135,0,0,19.135,0,42.667v384
				c0,23.531,19.135,42.667,42.667,42.667h261.561C325.767,495.376,358.31,512,394.667,512C459.365,512,512,459.365,512,394.667
				C512,358.31,495.376,325.767,469.333,304.228z M21.333,42.667c0-11.76,9.573-21.333,21.333-21.333h384
				c11.76,0,21.333,9.573,21.333,21.333v42.667H21.333V42.667z M42.667,448c-11.76,0-21.333-9.573-21.333-21.333v-320H448v183.62
				c-16.023-8.22-34.121-12.953-53.333-12.953c-64.698,0-117.333,52.635-117.333,117.333c0,19.212,4.733,37.31,12.953,53.333H42.667
				z M394.667,490.667c-52.938,0-96-43.063-96-96s43.063-96,96-96s96,43.063,96,96S447.604,490.667,394.667,490.667z"/>
		</g>
	</g>
</g>
<g>
</g>
<g>
</g>
<g>
</g>
<g>
</g>
<g>
</g>
<g>
</g>
<g>
</g>
<g>
</g>
<g>
</g>
<g>
</g>
<g>
</g>
<g>
</g>
<g>
</g>
<g>
</g>
<g>
</g>
</svg>
