<?xml version="1.0" encoding="iso-8859-1"?>
<!-- Generator: Adobe Illustrator 19.0.0, SVG Export Plug-In . SVG Version: 6.00 Build 0)  -->
<svg version="1.1" id="Capa_1" xmlns="http://www.w3.org/2000/svg" xmlns:xlink="http://www.w3.org/1999/xlink" x="0px" y="0px"
	 viewBox="0 0 496 496" style="enable-background:new 0 0 496 496;" xml:space="preserve">
<g>
	<polygon style="fill:#FFCB57;" points="264,40 264,104 232,104 232,40 128,40 128,208 368,208 368,40 	"/>
	<rect x="296" y="368" style="fill:#FFCB57;" width="80" height="80"/>
	<rect x="120" y="248" style="fill:#FFCB57;" width="80" height="80"/>
</g>
<g>
	<rect x="184" y="368" style="fill:#E56565;" width="88" height="16"/>
	<rect x="184" y="432" style="fill:#E56565;" width="88" height="16"/>
	<rect x="184" y="400" style="fill:#E56565;" width="16" height="16"/>
	<rect x="216" y="400" style="fill:#E56565;" width="56" height="16"/>
</g>
<g>
	<polygon style="fill:#3F3A34;" points="88,112 104,112 104,96 72,96 72,384 88,384 	"/>
	<path style="fill:#3F3A34;" d="M392,96v16h16v368H168v-80H88h-8h-8v11.312L156.688,496H424V96H392z M152,468.688L99.312,416H152
		V468.688z"/>
	<path style="fill:#3F3A34;" d="M192,96v112h112V96h-20.688L248,60.688L212.688,96H192z M288,192h-80v-80h80V192z M248,83.312
		L260.688,96h-25.376L248,83.312z"/>
	<path style="fill:#3F3A34;" d="M280,48h80v144h-40v16h56V32h-16V0h-80v32h-16v32h16V48z M296,16h48v16h-48V16z"/>
	<rect x="224" y="128" style="fill:#3F3A34;" width="48" height="16"/>
	<rect x="224" y="160" style="fill:#3F3A34;" width="48" height="16"/>
	<rect x="296" y="64" style="fill:#3F3A34;" width="16" height="16"/>
	<rect x="328" y="64" style="fill:#3F3A34;" width="16" height="16"/>
	<rect x="328" y="96" style="fill:#3F3A34;" width="16" height="16"/>
	<rect x="328" y="128" style="fill:#3F3A34;" width="16" height="16"/>
	<rect x="328" y="160" style="fill:#3F3A34;" width="16" height="16"/>
	<path style="fill:#3F3A34;" d="M176,192h-40V48h80v16h16V32h-16V0h-80v32h-16v176h56V192z M152,16h48v16h-48V16z"/>
	<rect x="184" y="64" style="fill:#3F3A34;" width="16" height="16"/>
	<rect x="152" y="64" style="fill:#3F3A34;" width="16" height="16"/>
	<rect x="152" y="96" style="fill:#3F3A34;" width="16" height="16"/>
	<rect x="152" y="128" style="fill:#3F3A34;" width="16" height="16"/>
	<rect x="152" y="160" style="fill:#3F3A34;" width="16" height="16"/>
	<path style="fill:#3F3A34;" d="M288,456h96v-96h-96V456z M304,376h64v64h-64V376z"/>
	<path style="fill:#3F3A34;" d="M208,240h-96v96h96V240z M192,320h-64v-64h64V320z"/>
</g>
<g>
	<rect x="224" y="248" style="fill:#E56565;" width="160" height="16"/>
	<rect x="224" y="312" style="fill:#E56565;" width="160" height="16"/>
	<rect x="368" y="280" style="fill:#E56565;" width="16" height="16"/>
	<rect x="224" y="280" style="fill:#E56565;" width="128" height="16"/>
</g>
<g>
</g>
<g>
</g>
<g>
</g>
<g>
</g>
<g>
</g>
<g>
</g>
<g>
</g>
<g>
</g>
<g>
</g>
<g>
</g>
<g>
</g>
<g>
</g>
<g>
</g>
<g>
</g>
<g>
</g>
</svg>
