<?xml version="1.0" standalone="no"?>
<!DOCTYPE svg PUBLIC "-//W3C//DTD SVG 20010904//EN"
 "http://www.w3.org/TR/2001/REC-SVG-20010904/DTD/svg10.dtd">
<svg version="1.0" xmlns="http://www.w3.org/2000/svg"
 width="119.000000pt" height="126.000000pt" viewBox="0 0 119.000000 126.000000"
 preserveAspectRatio="xMidYMid meet">

<g transform="translate(0.000000,126.000000) scale(0.100000,-0.100000)"
fill="#000000" stroke="none">
<path d="M481 1126 c-43 -30 -160 -114 -260 -187 l-181 -133 0 -378 0 -378
540 0 540 0 0 378 0 377 -259 188 c-142 103 -268 187 -279 187 -12 0 -57 -24
-101 -54z m314 -164 c94 -69 189 -139 213 -156 l42 -30 0 -333 0 -333 -458 0
c-380 0 -461 2 -478 14 -18 14 -19 29 -19 320 l0 306 40 39 c22 22 130 106
239 186 199 145 200 145 225 128 14 -9 103 -73 196 -141z"/>
<path d="M497 971 c-42 -28 -132 -91 -201 -141 l-126 -91 0 -275 0 -274 405 0
405 0 0 278 0 277 -127 90 c-159 114 -265 185 -274 185 -3 0 -40 -22 -82 -49z
m164 -92 c41 -28 114 -81 163 -117 l88 -66 -7 -215 c-4 -119 -11 -220 -16
-226 -12 -12 -613 -14 -626 -2 -4 5 -9 107 -11 226 l-3 218 88 65 c109 82 234
168 243 168 4 0 40 -23 81 -51z"/>
<path d="M504 819 c-44 -29 -105 -72 -136 -96 l-58 -44 0 -195 0 -194 270 0
270 0 -2 197 -3 196 -128 94 c-70 51 -129 93 -131 93 -2 0 -39 -23 -82 -51z"/>
</g>
</svg>
